<?xml version="1.0" encoding="UTF-8"?>
<!DOCTYPE svg PUBLIC "-//W3C//DTD SVG 1.1//EN" "http://www.w3.org/Graphics/SVG/1.1/DTD/svg11.dtd">
<!-- Creator: CorelDRAW 2021 (64-Bit) -->
<svg xmlns="http://www.w3.org/2000/svg" xml:space="preserve" width="50mm" height="18.666mm" version="1.1" style="shape-rendering:geometricPrecision; text-rendering:geometricPrecision; image-rendering:optimizeQuality; fill-rule:evenodd; clip-rule:evenodd"
viewBox="0 0 5000 1866.6"
 xmlns:xlink="http://www.w3.org/1999/xlink"
 xmlns:xodm="http://www.corel.com/coreldraw/odm/2003">
 <defs>
  <style type="text/css">
   <![CDATA[
    .fil0 {fill:#ED6B28;fill-rule:nonzero}
   ]]>
  </style>
 </defs>
 <g id="Layer_x0020_1">
  <metadata id="CorelCorpID_0Corel-Layer"/>
  <g id="_1671414458352">
   <path class="fil0" d="M2613.65 6.54c12.17,0 16.73,0 22.82,0 86.7,0 177.97,0 263.16,0 114.08,0 223.6,91.27 223.6,223.61 0,126.25 0,252.51 0,372.68 0,126.25 -97.35,223.61 -223.6,223.61 -86.71,0 -171.89,0 -258.6,0 -6.08,0 -16.73,0 -22.81,0 -6.09,-6.09 0,-12.17 6.08,-16.74 16.73,-22.81 34.99,-45.63 51.72,-68.45 6.08,-12.17 12.17,-16.73 22.82,-16.73 62.36,-16.73 126.25,-39.55 184.05,-57.8 51.72,-16.74 74.54,-45.64 74.54,-97.36 0,-97.35 0,-200.79 0,-298.14 0,-51.72 -22.82,-80.62 -74.54,-97.35 -62.36,-16.74 -120.17,-39.55 -184.05,-57.81 -12.17,-6.08 -22.82,-12.17 -28.91,-22.81 -16.73,-30.43 -39.55,-57.81 -56.28,-86.71z"/>
   <path class="fil0" d="M2315.51 6.54c-22.82,34.99 -45.64,62.37 -62.37,91.27 -6.08,6.08 -16.73,12.17 -22.82,12.17 -62.36,16.73 -126.25,39.55 -188.62,57.8 -45.63,12.17 -68.45,45.64 -68.45,91.27 0,103.44 0,206.87 0,310.31 0,45.64 22.82,80.62 68.45,91.27 62.37,16.73 126.26,39.55 188.62,57.8 6.09,0 12.17,6.09 16.74,12.17 22.81,28.91 45.63,62.37 68.45,97.36 -12.17,0 -16.73,0 -22.82,0 -86.7,0 -177.97,0 -263.16,0 -109.52,0 -194.7,-68.45 -217.52,-171.89 -6.09,-16.73 -6.09,-34.99 -6.09,-51.72 0,-126.26 0,-252.51 0,-372.68 0,-109.52 74.54,-194.71 184.06,-217.52 12.17,0 22.82,0 34.99,0 97.35,0 188.62,0 285.97,0 -1.52,-7.61 -1.52,-7.61 4.57,-7.61z"/>
   <path class="fil0" d="M527.79 1857.12c-28.9,0 -57.8,0 -86.7,0 -12.17,0 -16.74,-6.08 -22.82,-16.73 -12.17,-51.72 -28.9,-97.35 -39.55,-142.99 -12.17,-39.55 -12.17,-39.55 -45.64,-39.55 -51.71,0 -103.43,0 -161.24,0 -22.81,0 -22.81,0 -28.9,16.74 -16.73,57.8 -28.9,109.52 -45.63,165.8 -6.09,12.17 -6.09,16.73 -22.82,16.73 -28.9,0 -51.72,0 -80.62,0 6.08,-28.9 12.17,-51.72 16.73,-74.53 57.81,-217.53 114.09,-441.13 177.98,-658.66 6.08,-12.17 12.17,-16.73 22.81,-16.73 28.91,0 57.81,0 86.71,0 22.82,0 22.82,0 28.9,16.73 34.99,126.26 68.45,252.51 103.44,378.77 28.9,109.52 57.8,223.6 86.7,333.13 4.57,4.56 10.65,10.64 10.65,21.29zm-177.97 -304.23c-28.9,-103.43 -51.72,-200.79 -86.71,-298.14 -28.9,103.44 -51.72,200.79 -80.62,298.14 59.33,0 111.05,0 167.33,0z"/>
   <path class="fil0" d="M1995.69 1347.54c6.09,0 12.17,-6.08 12.17,-6.08 103.44,-86.71 258.6,-28.91 281.41,103.43 0,12.17 0,16.74 0,28.9 0,74.54 0,149.08 0,223.61 0,68.45 -34.98,126.26 -97.35,155.16 -62.37,28.9 -120.17,22.82 -177.97,-16.73 -6.09,-6.09 -12.17,-12.17 -16.73,-12.17 -6.09,0 -6.09,6.08 -6.09,6.08 0,28.9 0,28.9 -28.9,28.9 -16.73,0 -39.55,0 -57.8,0 -12.17,0 -16.74,-6.08 -12.17,-16.73 0,-6.08 0,-6.08 0,-12.17 0,-235.78 0,-470.03 0,-705.81 0,-6.08 0,-12.17 0,-12.17 0,-12.17 6.08,-12.17 12.17,-12.17 22.81,0 45.63,0 74.53,0 12.17,0 16.73,6.09 16.73,16.74 0,62.36 0,126.25 0,194.7 0,13.69 0,24.34 0,36.51zm194.71 240.34c0,-28.9 0,-62.37 0,-91.27 0,-12.17 0,-16.73 0,-28.9 -12.17,-45.63 -57.8,-74.54 -103.44,-74.54 -45.63,6.09 -86.7,45.64 -86.7,97.36 0,62.36 0,126.25 0,188.62 0,57.8 45.63,97.35 97.35,97.35 57.8,0 97.35,-45.63 97.35,-103.44 -4.56,-27.38 -4.56,-56.28 -4.56,-85.18z"/>
   <path class="fil0" d="M4891.95 1822.14c-16.73,12.17 -34.99,28.9 -51.72,34.98 -114.08,45.64 -235.78,-34.98 -235.78,-155.15 0,-74.54 0,-149.08 0,-223.61 0,-80.62 62.37,-165.81 171.89,-171.89 39.55,0 74.54,12.17 103.44,34.99 6.09,6.08 6.09,12.16 16.73,12.16 6.09,-6.08 0,-12.16 0,-16.73 0,-68.45 0,-142.99 0,-211.44 0,-16.73 0,-16.73 16.74,-16.73 22.81,0 45.63,0 68.45,0 6.08,0 12.17,0 12.17,12.17 0,6.08 0,12.17 0,12.17 0,235.78 0,470.03 0,705.81l0 6.08c0,16.74 0,16.74 -16.74,16.74 -22.81,0 -45.63,0 -68.45,0 -12.17,0 -16.73,-6.09 -16.73,-12.17 6.08,-15.21 10.65,-21.3 0,-27.38zm6.08 -240.34c0,-28.91 0,-57.81 0,-86.71 0,-12.17 0,-22.82 -6.08,-34.99 -12.17,-45.63 -57.8,-74.53 -103.44,-68.45 -45.63,6.09 -80.62,45.64 -86.7,86.71 0,68.45 0,136.9 0,206.87 0,57.81 62.36,97.36 114.08,86.71 45.64,-12.17 74.54,-45.64 74.54,-97.35 7.6,-28.91 7.6,-57.81 7.6,-92.79z"/>
   <path class="fil0" d="M1078.44 1352.1c6.09,-6.08 12.17,-12.17 22.82,-16.73 57.81,-34.99 114.09,-39.55 177.98,-12.17 62.36,28.9 91.26,80.62 91.26,149.07 0,74.54 0,155.16 0,229.7 0,68.45 -34.98,120.17 -97.35,149.07 -62.37,28.9 -120.17,22.81 -177.97,-16.73 -6.09,-6.09 -12.17,-12.17 -16.74,-12.17 -6.08,0 -6.08,0 -6.08,0 0,28.9 0,28.9 -34.99,28.9 -16.73,0 -34.98,0 -51.71,0 -12.17,0 -16.74,-6.09 -16.74,-16.73 0,-6.09 0,-6.09 0,-12.17 0,-235.78 0,-470.04 0,-705.81 0,-6.09 0,-6.09 0,-12.17 0,-12.17 6.09,-16.74 16.74,-16.74 22.81,0 45.63,0 68.45,0 12.17,0 16.73,6.09 16.73,16.74 0,68.45 0,142.98 0,211.44 1.52,19.77 1.52,25.86 7.6,36.5zm-6.08 235.78c0,28.9 0,62.37 0,91.27 0,57.8 39.55,97.35 97.35,97.35 51.72,0 97.36,-39.55 97.36,-97.35 0,-62.37 0,-126.26 0,-184.06 0,-28.9 -12.17,-57.8 -34.99,-74.54 -28.9,-22.81 -68.45,-28.9 -103.44,-12.16 -34.98,16.73 -57.8,45.63 -57.8,86.7 1.52,28.9 1.52,57.8 1.52,92.79z"/>
   <path class="fil0" d="M3097 1484.44c0,51.72 0,103.44 0,149.07 0,62.37 34.99,109.53 97.35,126.26 74.54,22.82 155.16,-28.9 161.25,-109.52 0,-16.74 0,-16.74 22.81,-16.74 22.82,0 45.64,0 62.37,0 12.17,0 16.73,6.09 16.73,16.74 -6.08,91.27 -51.72,155.15 -132.34,194.7 -120.17,57.81 -258.59,0 -310.31,-120.17 -16.73,-28.9 -22.82,-51.72 -22.82,-80.62 0,-103.44 0,-211.44 0,-314.87 0,-91.27 57.81,-171.89 136.91,-206.88 86.7,-34.99 184.05,-16.73 252.51,45.63 45.63,39.55 68.45,91.27 68.45,155.16 0,12.17 0,12.17 -12.17,12.17 -22.82,0 -51.72,0 -74.54,0 -12.17,0 -16.73,-6.08 -16.73,-16.73 -6.09,-51.72 -39.55,-97.36 -91.27,-109.52 -86.7,-22.82 -165.8,34.98 -165.8,126.25 7.6,45.63 7.6,97.35 7.6,149.07z"/>
   <path class="fil0" d="M2357.73 1467.71c16.73,-91.27 86.7,-155.16 177.97,-161.24 103.44,-6.09 188.62,62.37 206.88,155.16 6.08,16.73 6.08,34.98 6.08,51.71 0,109.53 0,217.53 0,320.97 0,6.08 0,12.16 0,12.16 0,6.09 -6.08,12.17 -12.17,12.17 -28.9,0 -51.72,0 -80.62,0 -12.17,0 -12.17,-6.08 -12.17,-12.17 0,-6.08 0,-12.16 0,-22.81 -12.17,0 -16.73,12.17 -22.82,16.73 -86.7,62.37 -252.51,39.55 -281.41,-103.44 -28.9,-120.17 68.45,-206.87 161.24,-206.87 45.64,0 86.71,0 132.34,0 12.17,0 16.74,-6.09 16.74,-16.74 0,-16.73 0,-34.98 0,-51.71 -12.17,-39.55 -45.64,-68.46 -91.27,-74.54 -39.55,0 -80.62,22.82 -91.27,62.37 -6.09,12.17 -12.17,16.73 -22.82,16.73 -30.42,1.52 -57.8,1.52 -86.7,1.52zm217.52 136.9l0 0c-22.82,0 -39.55,0 -62.37,0 -34.98,6.09 -57.8,22.82 -68.45,57.81 -12.17,34.98 -6.08,62.36 16.73,86.7 57.81,62.37 155.16,34.99 177.98,-39.55 12.17,-28.9 6.08,-62.37 6.08,-91.27 0,-6.08 -6.08,-6.08 -12.17,-6.08 -18.25,-7.61 -34.98,-7.61 -57.8,-7.61z"/>
   <path class="fil0" d="M1720.37 1817.57c-28.9,22.82 -57.81,39.55 -86.71,45.64 -103.44,16.73 -184.06,-28.9 -211.44,-114.09 -39.55,-120.17 57.81,-223.61 161.24,-223.61 39.55,0 86.71,0 126.26,0 12.17,0 16.73,-6.08 16.73,-16.73 0,-10.65 0,-16.73 0,-28.9 0,-45.64 -34.98,-86.71 -80.62,-97.35 -39.55,-6.09 -91.27,16.73 -103.44,62.36 -6.08,16.74 -12.17,16.74 -28.9,16.74 -16.73,0 -39.55,0 -57.8,0 -16.73,0 -16.73,0 -12.17,-16.74 16.73,-62.36 57.8,-109.52 120.17,-132.34 126.25,-45.63 263.16,45.64 263.16,184.06 0,114.09 0,223.61 0,337.7 0,16.73 0,16.73 -16.74,16.73 -22.81,0 -39.55,0 -62.36,0 -16.73,0 -16.73,0 -22.82,-16.73 1.52,-6.09 -4.56,-6.09 -4.56,-16.74zm0 -167.32c0,-12.17 0,-22.82 0,-34.99 0,-12.17 -6.09,-12.17 -16.74,-12.17 -34.98,0 -74.53,0 -109.52,0 -39.55,0 -68.45,28.9 -80.62,62.37 -12.17,34.98 6.09,74.53 34.99,97.35 62.36,45.64 142.99,6.09 161.24,-57.8 16.73,-19.78 10.65,-36.51 10.65,-54.76z"/>
   <path class="fil0" d="M4432.56 1822.14c-6.08,0 -12.16,6.08 -12.16,6.08 -57.81,39.55 -114.09,51.72 -177.98,22.82 -62.36,-28.9 -97.35,-80.62 -103.44,-149.07 0,-6.09 0,-12.17 0,-16.74 0,-120.17 0,-240.34 0,-360.51 0,-22.81 0,-22.81 22.82,-22.81 22.82,0 39.55,0 62.37,0 16.73,0 16.73,0 16.73,16.73 0,16.73 0,39.55 0,57.8 0,97.35 0,200.79 0,298.15 0,45.63 22.82,80.62 62.37,91.26 62.36,22.82 132.34,-22.81 132.34,-91.26 0,-114.09 0,-229.7 0,-337.7 0,-6.08 0,-12.17 0,-16.73 0,-22.82 0,-22.82 22.81,-22.82 22.82,0 39.55,0 62.37,0 16.73,0 16.73,0 16.73,16.73 0,12.17 0,16.74 0,28.91 0,161.24 0,320.96 0,482.2 0,6.08 0,12.17 0,12.17 0,12.17 0,16.73 -16.73,16.73 -22.82,0 -45.63,0 -74.53,0 -12.17,0 -16.74,0 -16.74,-12.17 3.04,-7.6 3.04,-13.69 3.04,-19.77z"/>
   <path class="fil0" d="M3676.56 1581.8c0,-28.91 0,-62.37 0,-91.27 0,-97.36 80.62,-177.98 177.97,-188.62 109.52,-12.17 188.62,62.36 211.44,142.98 6.08,16.74 6.08,34.99 6.08,51.72 0,57.81 0,114.09 0,171.89 0,97.35 -74.53,184.06 -171.89,194.71 -114.08,12.17 -200.79,-62.37 -217.52,-161.24 0,-12.17 0,-16.74 0,-28.91 -6.08,-27.38 -6.08,-56.28 -6.08,-91.26zm292.06 6.08c0,-28.9 0,-57.8 0,-86.7 0,-51.72 -39.55,-91.27 -97.36,-97.36 -51.72,0 -97.35,39.55 -97.35,97.36 0,57.8 0,114.08 0,171.88 0,51.72 39.55,97.36 97.35,97.36 57.81,0 97.36,-51.72 97.36,-97.36 0,-27.38 0,-56.28 0,-85.18z"/>
   <path class="fil0" d="M573.43 1478.36c0,-114.09 0,-235.78 0,-349.86 0,-6.09 0,-12.17 0,-16.74 0,-6.08 6.08,-12.17 12.16,-12.17 28.91,0 57.81,0 86.71,0 6.08,0 12.17,6.09 12.17,12.17 0,6.09 0,12.17 0,16.74 0,235.77 0,470.03 0,699.72 0,6.09 0,6.09 0,12.17 0,12.17 -6.09,16.73 -16.73,16.73 -22.82,0 -45.64,0 -68.46,0 -16.73,0 -16.73,0 -16.73,-16.73 0,-22.82 0,-39.55 0,-62.37 -9.12,-98.87 -9.12,-202.31 -9.12,-299.66z"/>
   <path class="fil0" d="M3602.02 1478.36c0,114.08 0,229.69 0,349.86 0,6.09 0,12.17 0,16.73 0,6.09 0,12.17 -12.17,12.17 -22.82,0 -51.72,0 -74.53,0 -12.17,0 -12.17,-6.08 -12.17,-12.17 0,-6.08 0,-12.17 0,-12.17 0,-235.77 0,-470.03 0,-705.81 0,-6.08 0,-6.08 0,-12.16 0,-12.17 0,-16.74 12.17,-12.17 22.81,0 51.71,0 74.53,0 6.09,0 12.17,0 12.17,12.17 0,6.08 0,12.16 0,16.73 0,112.56 0,232.73 0,346.82z"/>
   <path class="fil0" d="M871.57 1581.8c0,86.7 0,171.88 0,258.59 0,22.82 0,22.82 -22.82,22.82 -22.81,0 -39.55,0 -62.36,0 -12.17,0 -16.74,-6.09 -16.74,-16.74 0,-51.71 0,-109.52 0,-161.24 0,-114.08 0,-235.77 0,-349.86 0,-22.82 0,-22.82 22.82,-22.82 22.82,0 39.55,0 62.37,0 16.73,-12.17 16.73,-12.17 16.73,12.17 0,85.19 0,171.89 0,257.08z"/>
   <path class="fil0" d="M2464.58 360.97c62.37,0 132.34,0 194.71,0 22.81,0 22.81,0 22.81,22.81 0,22.82 0,39.55 0,62.37 0,12.17 -6.08,16.73 -16.73,16.73 -34.99,0 -62.37,0 -97.35,0 -103.44,0 -200.79,0 -304.23,0 -6.09,0 -12.17,0 -16.73,0 -4.57,0 -12.17,-6.08 -12.17,-12.17 0,-28.9 0,-51.72 0,-80.62 0,-12.17 6.08,-12.17 12.17,-12.17 22.81,0 45.63,0 68.45,0 56.28,3.05 101.91,3.05 149.07,3.05z"/>
   <path class="fil0" d="M825.94 1101.11c12.16,0 22.81,0 34.98,0 12.17,0 12.17,6.09 12.17,12.17 0,22.82 0,51.72 0,74.54 0,12.17 -6.08,12.17 -12.17,12.17 -22.82,0 -51.72,0 -74.53,0 -12.17,0 -12.17,-6.09 -12.17,-12.17 0,-22.82 0,-51.72 0,-74.54 0,-12.17 6.08,-12.17 12.17,-12.17 16.73,0 28.9,0 39.55,0z"/>
  </g>
 </g>
</svg>
