<?xml version="1.0" encoding="UTF-8"?>
<!DOCTYPE svg PUBLIC "-//W3C//DTD SVG 1.1//EN" "http://www.w3.org/Graphics/SVG/1.1/DTD/svg11.dtd">
<!-- Creator: CorelDRAW 2021 (64-Bit) -->
<svg xmlns="http://www.w3.org/2000/svg" xml:space="preserve" width="11.289mm" height="8.996mm" version="1.1" style="shape-rendering:geometricPrecision; text-rendering:geometricPrecision; image-rendering:optimizeQuality; fill-rule:evenodd; clip-rule:evenodd"
viewBox="0 0 1128.9 899.6"
 xmlns:xlink="http://www.w3.org/1999/xlink"
 xmlns:xodm="http://www.corel.com/coreldraw/odm/2003">
 <defs>
  <style type="text/css">
   <![CDATA[
    .fil1 {fill:none}
    .fil10 {fill:#000001;fill-rule:nonzero}
    .fil11 {fill:#7C4DFF;fill-rule:nonzero}
    .fil9 {fill:#F7DF1E;fill-rule:nonzero}
    .fil8 {fill:#FFFF30;fill-rule:nonzero}
    .fil12 {fill:white;fill-rule:nonzero}
    .fil3 {fill:url(#id0)}
    .fil5 {fill:url(#id1)}
    .fil0 {fill:url(#id2)}
    .fil7 {fill:url(#id3)}
    .fil2 {fill:url(#id4)}
    .fil6 {fill:url(#id5)}
    .fil4 {fill:url(#id6)}
   ]]>
  </style>
  <linearGradient id="id0" gradientUnits="objectBoundingBox" x1="0%" y1="50%" x2="100%" y2="50%">
   <stop offset="0" style="stop-opacity:1; stop-color:#DBDB03"/>
   <stop offset="1" style="stop-opacity:1; stop-color:#94940F"/>
  </linearGradient>
  <linearGradient id="id1" gradientUnits="objectBoundingBox" xlink:href="#id0" x1="100%" y1="50%" x2="0%" y2="50%">
  </linearGradient>
  <linearGradient id="id2" gradientUnits="userSpaceOnUse" xlink:href="#id0" x1="7191.18" y1="-91.08" x2="7885.27" y2="637.4">
  </linearGradient>
  <linearGradient id="id3" gradientUnits="userSpaceOnUse" xlink:href="#id0" x1="11429.83" y1="-91.08" x2="10813.01" y2="637.4">
  </linearGradient>
  <linearGradient id="id4" gradientUnits="userSpaceOnUse" xlink:href="#id0" x1="7192.11" y1="1131.34" x2="7884.34" y2="517.53">
  </linearGradient>
  <linearGradient id="id5" gradientUnits="userSpaceOnUse" xlink:href="#id0" x1="11429" y1="1131.34" x2="10813.84" y2="517.53">
  </linearGradient>
  <linearGradient id="id6" gradientUnits="userSpaceOnUse" xlink:href="#id0" x1="9003.95" y1="-64.41" x2="9971.82" y2="903.47">
  </linearGradient>
 </defs>
 <g id="Layer_x0020_1">
  <metadata id="CorelCorpID_0Corel-Layer"/>
  <g id="_2281287460640">
   <polygon class="fil0" points="8120.07,-120.45 8453.77,176.07 7255.86,666.77 6622.68,492.93 "/>
   <polygon class="fil1" points="8120.07,-120.45 8453.77,176.07 7255.86,666.77 6622.68,492.93 "/>
   <polygon class="fil2" points="6622.68,492.93 7255.86,666.77 8453.77,1155.94 8120.07,1104.39 "/>
   <polygon class="fil1" points="6622.68,492.93 7255.86,666.77 8453.77,1155.94 8120.07,1104.39 "/>
   <polygon class="fil3" points="8120.07,1104.39 8453.77,1155.94 8453.77,1603.76 8120.07,1664.16 "/>
   <polygon class="fil1" points="8120.07,1104.39 8453.77,1155.94 8453.77,1603.76 8120.07,1664.16 "/>
   <polygon class="fil3" points="8120.07,-683.41 8453.77,-274.3 8453.77,176.07 8120.07,-120.45 "/>
   <polygon class="fil1" points="8120.07,-683.41 8453.77,-274.3 8453.77,176.07 8120.07,-120.45 "/>
   <polygon class="fil4" points="9996.59,-1150.62 9954.99,-648.07 9141.06,1864.17 8979.18,1989.68 "/>
   <polygon class="fil1" points="9996.59,-1150.62 9954.99,-648.07 9141.06,1864.17 8979.18,1989.68 "/>
   <polygon class="fil5" points="10437.63,1664.16 10307.82,1603.76 10307.82,1155.94 10437.63,1104.39 "/>
   <polygon class="fil1" points="10437.63,1664.16 10307.82,1603.76 10307.82,1155.94 10437.63,1104.39 "/>
   <polygon class="fil6" points="10437.63,1104.39 10307.82,1155.94 11505.73,666.77 11935.02,492.93 "/>
   <polygon class="fil1" points="10437.63,1104.39 10307.82,1155.94 11505.73,666.77 11935.02,492.93 "/>
   <polygon class="fil7" points="11935.02,492.93 11505.73,666.77 10307.82,176.07 10437.63,-120.45 "/>
   <polygon class="fil1" points="11935.02,492.93 11505.73,666.77 10307.82,176.07 10437.63,-120.45 "/>
   <polygon class="fil5" points="10437.63,-120.45 10307.82,176.07 10307.82,-274.3 10437.63,-683.41 "/>
   <polygon class="fil1" points="10437.63,-120.45 10307.82,176.07 10307.82,-274.3 10437.63,-683.41 "/>
  </g>
  <path class="fil8" d="M8120.07 -120.45l-1497.39 613.38 1497.39 611.46 0 559.77 -2202.04 -911.45 0 -525.3 2202.04 -910.82 0 562.96zm859.11 2110.13l-411.05 0 1018.69 -3140.3 409.77 0 -1017.41 3140.3zm3660.49 -1762.27l0 525.3 -2202.04 911.45 0 -559.77 1497.39 -611.46 -1497.39 -613.38 0 -562.96 2202.04 910.82z"/>
  <g id="javascript.svg">
   <polygon class="fil9" points="-2186.45,969.99 -2186.45,17.49 -1233.95,17.49 -1233.95,969.99 "/>
   <path class="fil10" d="M-1563.67 730.46c18.31,29.74 38.21,58.23 80.35,58.23 35.4,0 53.98,-17.59 53.98,-41.94 0,-29.13 -19.21,-39.48 -58.16,-56.44l-21.35 -9.1c-61.62,-26.14 -102.61,-58.9 -102.61,-128.08 0,-63.76 48.82,-112.29 125.1,-112.29 54.32,0 93.35,18.81 121.5,68.08l-66.52 42.52c-14.63,-26.14 -30.45,-36.43 -54.98,-36.43 -25.03,0 -40.88,15.8 -40.88,36.43 0,25.51 15.88,35.82 52.52,51.62l21.35 9.1c72.63,30.94 113.59,62.53 113.59,133.54 0,76.52 -60.43,118.46 -141.56,118.46 -79.35,0 -124.41,-39.82 -149.49,-89.11l67.16 -44.59zm-306.55 2.17c13.39,23.97 33.73,42.41 63,42.41 27.99,0 44.11,-11.06 44.11,-54.05l-0.01 -280.17 88.19 0 0 293.71c0,89.09 -51.67,129.62 -127.13,129.62 -68.18,0 -117.4,-46.2 -137.45,-89.11l69.29 -42.41z"/>
  </g>
  <g id="bootstrap.svg">
   <path class="fil11" d="M121.68 124.97c-2.12,-61.14 45.53,-117.55 109.96,-117.55l660.03 0c64.43,0 112.08,56.41 109.93,117.55 -2.04,58.76 0.61,134.86 19.76,196.93 19.21,62.26 51.62,101.6 104.7,106.65l0 57.34c-53.08,5.05 -85.46,44.4 -104.7,106.65 -19.16,62.04 -21.8,138.17 -19.76,196.93 2.12,61.12 -45.53,117.53 -109.93,117.53l-660.03 0c-64.4,0 -112.08,-56.41 -109.93,-117.55 2.04,-58.76 -0.61,-134.86 -19.76,-196.93 -19.21,-62.26 -51.7,-101.6 -104.77,-106.65l0 -57.34c53.08,-5.05 85.54,-44.4 104.78,-106.65 19.11,-62.05 21.78,-138.14 19.72,-196.91z"/>
   <path class="fil12" d="M642.91 443.03l0 -0.74c49.03,-8.47 87.29,-54.42 87.29,-105.04 0,-35.77 -13.76,-66.09 -39.79,-87.63 -25.96,-21.48 -62.36,-32.83 -105.33,-32.83l-196.78 -0.01 0 480.67 197.77 0c51.38,0 94.06,-12.54 123.38,-36.3 29.34,-23.79 44.87,-58.39 44.87,-100.09 -0.02,-63 -44.74,-110.31 -111.41,-118.03zm-92.16 -22.65l-84.16 0 0 -140.71 100.12 0c54.93,0 85.17,24.1 85.17,67.87 0.02,46.96 -35.91,72.84 -101.13,72.84zm-84.16 58.9l99.46 0c71.86,0 108.27,25.96 108.27,77.15 0,51.12 -35.9,78.13 -103.85,78.13l-103.88 0 0 -155.28z"/>
  </g>
 </g>
</svg>
