<?xml version="1.0" encoding="UTF-8"?>
<!DOCTYPE svg PUBLIC "-//W3C//DTD SVG 1.1//EN" "http://www.w3.org/Graphics/SVG/1.1/DTD/svg11.dtd">
<!-- Creator: CorelDRAW 2021 (64-Bit) -->
<svg xmlns="http://www.w3.org/2000/svg" xml:space="preserve" width="50mm" height="28.319mm" version="1.1" style="shape-rendering:geometricPrecision; text-rendering:geometricPrecision; image-rendering:optimizeQuality; fill-rule:evenodd; clip-rule:evenodd"
viewBox="0 0 5000 2831.9"
 xmlns:xlink="http://www.w3.org/1999/xlink"
 xmlns:xodm="http://www.corel.com/coreldraw/odm/2003">
 <defs>
  <style type="text/css">
   <![CDATA[
    .fil21 {fill:none}
    .fil105 {fill:#00CCFF;fill-rule:nonzero}
    .fil0 {fill:#ED6B28;fill-rule:nonzero}
    .fil24 {fill:url(#id0)}
    .fil40 {fill:url(#id1)}
    .fil97 {fill:url(#id2)}
    .fil14 {fill:url(#id3)}
    .fil34 {fill:url(#id4)}
    .fil63 {fill:url(#id5)}
    .fil42 {fill:url(#id6)}
    .fil9 {fill:url(#id7)}
    .fil71 {fill:url(#id8)}
    .fil104 {fill:url(#id9)}
    .fil85 {fill:url(#id10)}
    .fil30 {fill:url(#id11)}
    .fil84 {fill:url(#id12)}
    .fil17 {fill:url(#id13)}
    .fil56 {fill:url(#id14)}
    .fil25 {fill:url(#id15)}
    .fil73 {fill:url(#id16)}
    .fil54 {fill:url(#id17)}
    .fil8 {fill:url(#id18)}
    .fil81 {fill:url(#id19)}
    .fil41 {fill:url(#id20)}
    .fil78 {fill:url(#id21)}
    .fil83 {fill:url(#id22)}
    .fil1 {fill:url(#id23)}
    .fil88 {fill:url(#id24)}
    .fil15 {fill:url(#id25)}
    .fil70 {fill:url(#id26)}
    .fil58 {fill:url(#id27)}
    .fil31 {fill:url(#id28)}
    .fil43 {fill:url(#id29)}
    .fil96 {fill:url(#id30)}
    .fil98 {fill:url(#id31)}
    .fil37 {fill:url(#id32)}
    .fil35 {fill:url(#id33)}
    .fil64 {fill:url(#id34)}
    .fil44 {fill:url(#id35)}
    .fil49 {fill:url(#id36)}
    .fil45 {fill:url(#id37)}
    .fil67 {fill:url(#id38)}
    .fil7 {fill:url(#id39)}
    .fil82 {fill:url(#id40)}
    .fil99 {fill:url(#id41)}
    .fil94 {fill:url(#id42)}
    .fil48 {fill:url(#id43)}
    .fil6 {fill:url(#id44)}
    .fil46 {fill:url(#id45)}
    .fil92 {fill:url(#id46)}
    .fil11 {fill:url(#id47)}
    .fil101 {fill:url(#id48)}
    .fil36 {fill:url(#id49)}
    .fil60 {fill:url(#id50)}
    .fil91 {fill:url(#id51)}
    .fil62 {fill:url(#id52)}
    .fil95 {fill:url(#id53)}
    .fil19 {fill:url(#id54)}
    .fil27 {fill:url(#id55)}
    .fil90 {fill:url(#id56)}
    .fil53 {fill:url(#id57)}
    .fil66 {fill:url(#id58)}
    .fil74 {fill:url(#id59)}
    .fil65 {fill:url(#id60)}
    .fil38 {fill:url(#id61)}
    .fil4 {fill:url(#id62)}
    .fil51 {fill:url(#id63)}
    .fil59 {fill:url(#id64)}
    .fil75 {fill:url(#id65)}
    .fil102 {fill:url(#id66)}
    .fil5 {fill:url(#id67)}
    .fil61 {fill:url(#id68)}
    .fil57 {fill:url(#id69)}
    .fil50 {fill:url(#id70)}
    .fil86 {fill:url(#id71)}
    .fil76 {fill:url(#id72)}
    .fil103 {fill:url(#id73)}
    .fil55 {fill:url(#id74)}
    .fil28 {fill:url(#id75)}
    .fil32 {fill:url(#id76)}
    .fil2 {fill:url(#id77)}
    .fil26 {fill:url(#id78)}
    .fil87 {fill:url(#id79)}
    .fil68 {fill:url(#id80)}
    .fil23 {fill:url(#id81)}
    .fil93 {fill:url(#id82)}
    .fil12 {fill:url(#id83)}
    .fil100 {fill:url(#id84)}
    .fil47 {fill:url(#id85)}
    .fil52 {fill:url(#id86)}
    .fil3 {fill:url(#id87)}
    .fil39 {fill:url(#id88)}
    .fil29 {fill:url(#id89)}
    .fil10 {fill:url(#id90)}
    .fil69 {fill:url(#id91)}
    .fil72 {fill:url(#id92)}
    .fil79 {fill:url(#id93)}
    .fil89 {fill:url(#id94)}
    .fil80 {fill:url(#id95)}
    .fil13 {fill:url(#id96)}
    .fil33 {fill:url(#id97)}
    .fil18 {fill:url(#id98)}
    .fil22 {fill:url(#id99)}
    .fil16 {fill:url(#id100)}
    .fil77 {fill:url(#id101)}
    .fil20 {fill:url(#id102)}
   ]]>
  </style>
  <linearGradient id="id0" gradientUnits="userSpaceOnUse" x1="2108.4" y1="2050.32" x2="2229.78" y2="2236.16">
   <stop offset="0" style="stop-opacity:1; stop-color:#049CC2"/>
   <stop offset="1" style="stop-opacity:1; stop-color:#04546E"/>
  </linearGradient>
  <linearGradient id="id1" gradientUnits="userSpaceOnUse" xlink:href="#id0" x1="1035.96" y1="2541.99" x2="943.69" y2="2643.04">
  </linearGradient>
  <linearGradient id="id2" gradientUnits="userSpaceOnUse" xlink:href="#id0" x1="472.47" y1="1484.26" x2="908.94" y2="1515.76">
  </linearGradient>
  <linearGradient id="id3" gradientUnits="userSpaceOnUse" xlink:href="#id0" x1="2723.91" y1="2295.22" x2="2669.24" y2="2440.12">
  </linearGradient>
  <linearGradient id="id4" gradientUnits="userSpaceOnUse" xlink:href="#id0" x1="1427.9" y1="2528.66" x2="1507.52" y2="2643.12">
  </linearGradient>
  <linearGradient id="id5" gradientUnits="userSpaceOnUse" xlink:href="#id0" x1="3539.12" y1="494.58" x2="3569.67" y2="1009.91">
  </linearGradient>
  <linearGradient id="id6" gradientUnits="userSpaceOnUse" xlink:href="#id0" x1="4194.49" y1="2358.22" x2="3936.06" y2="2176.15">
  </linearGradient>
  <linearGradient id="id7" gradientUnits="userSpaceOnUse" xlink:href="#id0" x1="3087.19" y1="2617.38" x2="2996.05" y2="2727.26">
  </linearGradient>
  <linearGradient id="id8" gradientUnits="userSpaceOnUse" xlink:href="#id0" x1="2881.98" y1="1009.85" x2="2980.67" y2="1328.07">
  </linearGradient>
  <linearGradient id="id9" gradientUnits="userSpaceOnUse" xlink:href="#id0" x1="822.03" y1="2192.31" x2="1057.18" y2="1986.62">
  </linearGradient>
  <linearGradient id="id10" gradientUnits="userSpaceOnUse" xlink:href="#id0" x1="1643.74" y1="876.93" x2="1482.35" y2="1292.24">
  </linearGradient>
  <linearGradient id="id11" gradientUnits="userSpaceOnUse" xlink:href="#id0" x1="1690.88" y1="2399.15" x2="1817.96" y2="2542.83">
  </linearGradient>
  <linearGradient id="id12" gradientUnits="userSpaceOnUse" xlink:href="#id0" x1="1734.26" y1="947.17" x2="1554.08" y2="1329.74">
  </linearGradient>
  <linearGradient id="id13" gradientUnits="userSpaceOnUse" xlink:href="#id0" x1="2535.02" y1="2080.72" x2="2479.67" y2="2241.08">
  </linearGradient>
  <linearGradient id="id14" gradientUnits="userSpaceOnUse" xlink:href="#id0" x1="4325.61" y1="853.87" x2="4008.61" y2="1170.93">
  </linearGradient>
  <linearGradient id="id15" gradientUnits="userSpaceOnUse" xlink:href="#id0" x1="2037.76" y1="2121.21" x2="2164.8" y2="2300.45">
  </linearGradient>
  <linearGradient id="id16" gradientUnits="userSpaceOnUse" xlink:href="#id0" x1="2774.53" y1="1180.12" x2="2841.72" y2="1454.67">
  </linearGradient>
  <linearGradient id="id17" gradientUnits="userSpaceOnUse" xlink:href="#id0" x1="4445.54" y1="1087.61" x2="4074.27" y2="1272.58">
  </linearGradient>
  <linearGradient id="id18" gradientUnits="userSpaceOnUse" xlink:href="#id0" x1="3165.62" y1="2669.68" x2="3075.87" y2="2769.09">
  </linearGradient>
  <linearGradient id="id19" gradientUnits="userSpaceOnUse" xlink:href="#id0" x1="1939.34" y1="1176.66" x2="1766.06" y2="1484.08">
  </linearGradient>
  <linearGradient id="id20" gradientUnits="userSpaceOnUse" xlink:href="#id0" x1="4082.19" y1="2418.83" x2="3880.37" y2="2239.58">
  </linearGradient>
  <linearGradient id="id21" gradientUnits="userSpaceOnUse" xlink:href="#id0" x1="2112.64" y1="1418.19" x2="1967.68" y2="1671.62">
  </linearGradient>
  <linearGradient id="id22" gradientUnits="userSpaceOnUse" xlink:href="#id0" x1="1811.73" y1="1025.24" x2="1629.07" y2="1376.71">
  </linearGradient>
  <linearGradient id="id23" gradientUnits="userSpaceOnUse" xlink:href="#id0" x1="3756.92" y1="2821.27" x2="3800.69" y2="2874.25">
  </linearGradient>
  <linearGradient id="id24" gradientUnits="userSpaceOnUse" xlink:href="#id0" x1="1304.92" y1="752.24" x2="1254.05" y2="1216.84">
  </linearGradient>
  <linearGradient id="id25" gradientUnits="userSpaceOnUse" xlink:href="#id0" x1="2657.89" y1="2221.58" x2="2605.37" y2="2377.53">
  </linearGradient>
  <linearGradient id="id26" gradientUnits="userSpaceOnUse" xlink:href="#id0" x1="2940.93" y1="932.71" x2="3045.17" y2="1265.4">
  </linearGradient>
  <linearGradient id="id27" gradientUnits="userSpaceOnUse" xlink:href="#id0" x1="4150.85" y1="661.85" x2="3913.49" y2="1095.96">
  </linearGradient>
  <linearGradient id="id28" gradientUnits="userSpaceOnUse" xlink:href="#id0" x1="1623.65" y1="2439.35" x2="1743.36" y2="2575.61">
  </linearGradient>
  <linearGradient id="id29" gradientUnits="userSpaceOnUse" xlink:href="#id0" x1="4283.03" y1="2282.95" x2="3987.8" y2="2113.73">
  </linearGradient>
  <linearGradient id="id30" gradientUnits="userSpaceOnUse" xlink:href="#id0" x1="483.93" y1="1362.87" x2="921.04" y2="1449.62">
  </linearGradient>
  <linearGradient id="id31" gradientUnits="userSpaceOnUse" xlink:href="#id0" x1="471.89" y1="1606.81" x2="906.31" y2="1591.6">
  </linearGradient>
  <linearGradient id="id32" gradientUnits="userSpaceOnUse" xlink:href="#id0" x1="1229.07" y1="2569.98" x2="1238.54" y2="2665.51">
  </linearGradient>
  <linearGradient id="id33" gradientUnits="userSpaceOnUse" xlink:href="#id0" x1="1364.65" y1="2547.84" x2="1424.87" y2="2655.51">
  </linearGradient>
  <linearGradient id="id34" gradientUnits="userSpaceOnUse" xlink:href="#id0" x1="3413.66" y1="514.24" x2="3488.08" y2="1026.41">
  </linearGradient>
  <linearGradient id="id35" gradientUnits="userSpaceOnUse" xlink:href="#id0" x1="4357.41" y1="2202.03" x2="4025.76" y2="2046.89">
  </linearGradient>
  <linearGradient id="id36" gradientUnits="userSpaceOnUse" xlink:href="#id0" x1="4515.55" y1="1672.29" x2="4134.39" y2="1652.67">
  </linearGradient>
  <linearGradient id="id37" gradientUnits="userSpaceOnUse" xlink:href="#id0" x1="4417.57" y1="2108.86" x2="4058.56" y2="1974.75">
  </linearGradient>
  <linearGradient id="id38" gradientUnits="userSpaceOnUse" xlink:href="#id0" x1="3125.69" y1="699.3" x2="3255.59" y2="1113.04">
  </linearGradient>
  <linearGradient id="id39" gradientUnits="userSpaceOnUse" xlink:href="#id0" x1="3243.48" y1="2715.18" x2="3158.46" y2="2803.99">
  </linearGradient>
  <linearGradient id="id40" gradientUnits="userSpaceOnUse" xlink:href="#id0" x1="1875.88" y1="1103.06" x2="1701.16" y2="1426.27">
  </linearGradient>
  <linearGradient id="id41" gradientUnits="userSpaceOnUse" xlink:href="#id0" x1="478.68" y1="1726.33" x2="916.72" y2="1665.57">
  </linearGradient>
  <linearGradient id="id42" gradientUnits="userSpaceOnUse" xlink:href="#id0" x1="568.16" y1="1104.02" x2="967.04" y2="1346.98">
  </linearGradient>
  <linearGradient id="id43" gradientUnits="userSpaceOnUse" xlink:href="#id0" x1="4509.17" y1="1777.49" x2="4125.89" y2="1732.24">
  </linearGradient>
  <linearGradient id="id44" gradientUnits="userSpaceOnUse" xlink:href="#id0" x1="3320.65" y1="2753.75" x2="3244.02" y2="2832.03">
  </linearGradient>
  <linearGradient id="id45" gradientUnits="userSpaceOnUse" xlink:href="#id0" x1="4463" y1="2004.34" x2="4086.37" y2="1896.71">
  </linearGradient>
  <linearGradient id="id46" gradientUnits="userSpaceOnUse" xlink:href="#id0" x1="750.01" y1="885.32" x2="1036.51" y2="1278.27">
  </linearGradient>
  <linearGradient id="id47" gradientUnits="userSpaceOnUse" xlink:href="#id0" x1="2929.38" y1="2495.47" x2="2848.14" y2="2618.49">
  </linearGradient>
  <linearGradient id="id48" gradientUnits="userSpaceOnUse" xlink:href="#id0" x1="553.17" y1="1963.77" x2="961.35" y2="1804.24">
  </linearGradient>
  <linearGradient id="id49" gradientUnits="userSpaceOnUse" xlink:href="#id0" x1="1302.32" y1="2561.64" x2="1340.32" y2="2662.95">
  </linearGradient>
  <linearGradient id="id50" gradientUnits="userSpaceOnUse" xlink:href="#id0" x1="3907.51" y1="530.77" x2="3790.1" y2="1036.47">
  </linearGradient>
  <linearGradient id="id51" gradientUnits="userSpaceOnUse" xlink:href="#id0" x1="880.15" y1="808.13" x2="1079.53" y2="1249.1">
  </linearGradient>
  <linearGradient id="id52" gradientUnits="userSpaceOnUse" xlink:href="#id0" x1="3667.61" y1="493.51" x2="3651.02" y2="1006.23">
  </linearGradient>
  <linearGradient id="id53" gradientUnits="userSpaceOnUse" xlink:href="#id0" x1="512.77" y1="1233.31" x2="941.95" y2="1394.02">
  </linearGradient>
  <linearGradient id="id54" gradientUnits="userSpaceOnUse" xlink:href="#id0" x1="2449.48" y1="1957.79" x2="2374.8" y2="2134.34">
  </linearGradient>
  <linearGradient id="id55" gradientUnits="userSpaceOnUse" xlink:href="#id0" x1="1897.37" y1="2247.71" x2="2030.81" y2="2413.18">
  </linearGradient>
  <linearGradient id="id56" gradientUnits="userSpaceOnUse" xlink:href="#id0" x1="1022.9" y1="762.89" x2="1128.72" y2="1227.26">
  </linearGradient>
  <linearGradient id="id57" gradientUnits="userSpaceOnUse" xlink:href="#id0" x1="4482.87" y1="1215.93" x2="4099.6" y2="1340.14">
  </linearGradient>
  <linearGradient id="id58" gradientUnits="userSpaceOnUse" xlink:href="#id0" x1="3211.13" y1="621.23" x2="3331.25" y2="1074.75">
  </linearGradient>
  <linearGradient id="id59" gradientUnits="userSpaceOnUse" xlink:href="#id0" x1="2730.47" y1="1244.91" x2="2791.12" y2="1509.48">
  </linearGradient>
  <linearGradient id="id60" gradientUnits="userSpaceOnUse" xlink:href="#id0" x1="3305.04" y1="559.19" x2="3406.66" y2="1046.98">
  </linearGradient>
  <linearGradient id="id61" gradientUnits="userSpaceOnUse" xlink:href="#id0" x1="1152.47" y1="2564.88" x2="1121.37" y2="2665.13">
  </linearGradient>
  <linearGradient id="id62" gradientUnits="userSpaceOnUse" xlink:href="#id0" x1="3503.71" y1="2814.53" x2="3458.89" y2="2872.75">
  </linearGradient>
  <linearGradient id="id63" gradientUnits="userSpaceOnUse" xlink:href="#id0" x1="4513.35" y1="1448.77" x2="4130.49" y2="1485.52">
  </linearGradient>
  <linearGradient id="id64" gradientUnits="userSpaceOnUse" xlink:href="#id0" x1="4033.31" y1="584.94" x2="3854.67" y2="1062.35">
  </linearGradient>
  <linearGradient id="id65" gradientUnits="userSpaceOnUse" xlink:href="#id0" x1="2685.07" y1="1312.95" x2="2738.79" y2="1567.6">
  </linearGradient>
  <linearGradient id="id66" gradientUnits="userSpaceOnUse" xlink:href="#id0" x1="627.95" y1="2064.4" x2="992.14" y2="1869.5">
  </linearGradient>
  <linearGradient id="id67" gradientUnits="userSpaceOnUse" xlink:href="#id0" x1="3410.39" y1="2785.25" x2="3342.48" y2="2857.39">
  </linearGradient>
  <linearGradient id="id68" gradientUnits="userSpaceOnUse" xlink:href="#id0" x1="3784.88" y1="503.34" x2="3724.5" y2="1016.56">
  </linearGradient>
  <linearGradient id="id69" gradientUnits="userSpaceOnUse" xlink:href="#id0" x1="4244.6" y1="755.06" x2="3968.09" y2="1131.11">
  </linearGradient>
  <linearGradient id="id70" gradientUnits="userSpaceOnUse" xlink:href="#id0" x1="4515.97" y1="1561.29" x2="4136.92" y2="1568.07">
  </linearGradient>
  <linearGradient id="id71" gradientUnits="userSpaceOnUse" xlink:href="#id0" x1="1546.57" y1="819.23" x2="1404.19" y2="1260.86">
  </linearGradient>
  <linearGradient id="id72" gradientUnits="userSpaceOnUse" xlink:href="#id0" x1="2638.37" y1="1384.27" x2="2684.71" y2="1628.99">
  </linearGradient>
  <linearGradient id="id73" gradientUnits="userSpaceOnUse" xlink:href="#id0" x1="722.49" y1="2144.29" x2="1028.89" y2="1932.06">
  </linearGradient>
  <linearGradient id="id74" gradientUnits="userSpaceOnUse" xlink:href="#id0" x1="4393.18" y1="966.22" x2="4043.89" y2="1216.89">
  </linearGradient>
  <linearGradient id="id75" gradientUnits="userSpaceOnUse" xlink:href="#id0" x1="1827.87" y1="2303.31" x2="1961.57" y2="2461.64">
  </linearGradient>
  <linearGradient id="id76" gradientUnits="userSpaceOnUse" xlink:href="#id0" x1="1557.37" y1="2474.37" x2="1666.8" y2="2603.22">
  </linearGradient>
  <linearGradient id="id77" gradientUnits="userSpaceOnUse" xlink:href="#id0" x1="3680.07" y1="2834.04" x2="3693.8" y2="2877.91">
  </linearGradient>
  <linearGradient id="id78" gradientUnits="userSpaceOnUse" xlink:href="#id0" x1="1967.37" y1="2187.02" x2="2098.52" y2="2359.46">
  </linearGradient>
  <linearGradient id="id79" gradientUnits="userSpaceOnUse" xlink:href="#id0" x1="1432.8" y1="774.5" x2="1324.7" y2="1235.45">
  </linearGradient>
  <linearGradient id="id80" gradientUnits="userSpaceOnUse" xlink:href="#id0" x1="3053.99" y1="783.39" x2="3177.04" y2="1162.07">
  </linearGradient>
  <linearGradient id="id81" gradientUnits="userSpaceOnUse" xlink:href="#id0" x1="2179.19" y1="1974.32" x2="2293.57" y2="2166.59">
  </linearGradient>
  <linearGradient id="id82" gradientUnits="userSpaceOnUse" xlink:href="#id0" x1="647.77" y1="987.86" x2="996.26" y2="1310.21">
  </linearGradient>
  <linearGradient id="id83" gradientUnits="userSpaceOnUse" xlink:href="#id0" x1="2859.61" y1="2424.97" x2="2781.06" y2="2560.91">
  </linearGradient>
  <linearGradient id="id84" gradientUnits="userSpaceOnUse" xlink:href="#id0" x1="502.79" y1="1847.11" x2="936.37" y2="1734.42">
  </linearGradient>
  <linearGradient id="id85" gradientUnits="userSpaceOnUse" xlink:href="#id0" x1="4494.02" y1="1889.27" x2="4108.96" y2="1811.92">
  </linearGradient>
  <linearGradient id="id86" gradientUnits="userSpaceOnUse" xlink:href="#id0" x1="4502.74" y1="1338.88" x2="4119.54" y2="1411.28">
  </linearGradient>
  <linearGradient id="id87" gradientUnits="userSpaceOnUse" xlink:href="#id0" x1="3595.99" y1="2832.33" x2="3579.85" y2="2877.9">
  </linearGradient>
  <linearGradient id="id88" gradientUnits="userSpaceOnUse" xlink:href="#id0" x1="1081.9" y1="2547.49" x2="1004.65" y2="2658.19">
  </linearGradient>
  <linearGradient id="id89" gradientUnits="userSpaceOnUse" xlink:href="#id0" x1="1759" y1="2353.79" x2="1890.66" y2="2504.86">
  </linearGradient>
  <linearGradient id="id90" gradientUnits="userSpaceOnUse" xlink:href="#id0" x1="3008.87" y1="2555.21" x2="2916.11" y2="2677.29">
  </linearGradient>
  <linearGradient id="id91" gradientUnits="userSpaceOnUse" xlink:href="#id0" x1="2997.14" y1="862.64" x2="3105.47" y2="1210.43">
  </linearGradient>
  <linearGradient id="id92" gradientUnits="userSpaceOnUse" xlink:href="#id0" x1="2820.19" y1="1094.16" x2="2912.09" y2="1398.34">
  </linearGradient>
  <linearGradient id="id93" gradientUnits="userSpaceOnUse" xlink:href="#id0" x1="2059.55" y1="1345.01" x2="1908.74" y2="1610.27">
  </linearGradient>
  <linearGradient id="id94" gradientUnits="userSpaceOnUse" xlink:href="#id0" x1="1167.67" y1="750.11" x2="1188.74" y2="1211.8">
  </linearGradient>
  <linearGradient id="id95" gradientUnits="userSpaceOnUse" xlink:href="#id0" x1="2005.49" y1="1258.61" x2="1835.92" y2="1550.85">
  </linearGradient>
  <linearGradient id="id96" gradientUnits="userSpaceOnUse" xlink:href="#id0" x1="2785.51" y1="2362.46" x2="2724.86" y2="2497.02">
  </linearGradient>
  <linearGradient id="id97" gradientUnits="userSpaceOnUse" xlink:href="#id0" x1="1492.13" y1="2504.15" x2="1588.18" y2="2625.71">
  </linearGradient>
  <linearGradient id="id98" gradientUnits="userSpaceOnUse" xlink:href="#id0" x1="2492.87" y1="2020.66" x2="2428.02" y2="2188.99">
  </linearGradient>
  <linearGradient id="id99" gradientUnits="userSpaceOnUse" xlink:href="#id0" x1="2250.02" y1="1893.23" x2="2356.26" y2="2091.71">
  </linearGradient>
  <linearGradient id="id100" gradientUnits="userSpaceOnUse" xlink:href="#id0" x1="2592.96" y1="2141.53" x2="2532.19" y2="2309.24">
  </linearGradient>
  <linearGradient id="id101" gradientUnits="userSpaceOnUse" xlink:href="#id0" x1="2607.35" y1="1452.09" x2="2630.72" y2="1668.28">
  </linearGradient>
  <linearGradient id="id102" gradientUnits="userSpaceOnUse" xlink:href="#id0" x1="2404.85" y1="1892.06" x2="2320.02" y2="2077.19">
  </linearGradient>
 </defs>
 <g id="Layer_x0020_1">
  <metadata id="CorelCorpID_0Corel-Layer"/>
  <g id="_1671416638368">
   <path class="fil0" d="M-4056.2 -4028.23c12.17,0 16.73,0 22.82,0 86.7,0 177.97,0 263.16,0 114.08,0 223.6,91.27 223.6,223.61 0,126.25 0,252.51 0,372.68 0,126.25 -97.35,223.61 -223.6,223.61 -86.71,0 -171.89,0 -258.6,0 -6.08,0 -16.73,0 -22.81,0 -6.09,-6.09 0,-12.17 6.08,-16.74 16.73,-22.81 34.99,-45.63 51.72,-68.45 6.08,-12.17 12.17,-16.73 22.82,-16.73 62.36,-16.73 126.25,-39.55 184.05,-57.8 51.72,-16.74 74.54,-45.64 74.54,-97.36 0,-97.35 0,-200.79 0,-298.14 0,-51.72 -22.82,-80.62 -74.54,-97.35 -62.36,-16.74 -120.17,-39.55 -184.05,-57.81 -12.17,-6.08 -22.82,-12.17 -28.91,-22.81 -16.73,-30.43 -39.55,-57.81 -56.28,-86.71z"/>
   <path class="fil0" d="M-4354.34 -4028.23c-22.82,34.99 -45.64,62.37 -62.37,91.27 -6.08,6.08 -16.73,12.17 -22.82,12.17 -62.36,16.73 -126.25,39.55 -188.62,57.8 -45.63,12.17 -68.45,45.64 -68.45,91.27 0,103.44 0,206.87 0,310.31 0,45.64 22.82,80.62 68.45,91.27 62.37,16.73 126.26,39.55 188.62,57.8 6.09,0 12.17,6.09 16.74,12.17 22.81,28.91 45.63,62.37 68.45,97.36 -12.17,0 -16.73,0 -22.82,0 -86.7,0 -177.97,0 -263.16,0 -109.52,0 -194.7,-68.45 -217.52,-171.89 -6.09,-16.73 -6.09,-34.99 -6.09,-51.72 0,-126.26 0,-252.51 0,-372.68 0,-109.52 74.54,-194.71 184.06,-217.52 12.17,0 22.82,0 34.99,0 97.35,0 188.62,0 285.97,0 -1.52,-7.61 -1.52,-7.61 4.57,-7.61z"/>
   <path class="fil0" d="M-6142.06 -2177.65c-28.9,0 -57.8,0 -86.7,0 -12.17,0 -16.74,-6.08 -22.82,-16.73 -12.17,-51.72 -28.9,-97.35 -39.55,-142.99 -12.17,-39.55 -12.17,-39.55 -45.64,-39.55 -51.71,0 -103.43,0 -161.24,0 -22.81,0 -22.81,0 -28.9,16.74 -16.73,57.8 -28.9,109.52 -45.63,165.8 -6.09,12.17 -6.09,16.73 -22.82,16.73 -28.9,0 -51.72,0 -80.62,0 6.08,-28.9 12.17,-51.72 16.73,-74.53 57.81,-217.53 114.09,-441.13 177.98,-658.66 6.08,-12.17 12.17,-16.73 22.81,-16.73 28.91,0 57.81,0 86.71,0 22.82,0 22.82,0 28.9,16.73 34.99,126.26 68.45,252.51 103.44,378.77 28.9,109.52 57.8,223.6 86.7,333.13 4.57,4.56 10.65,10.64 10.65,21.29zm-177.97 -304.23c-28.9,-103.43 -51.72,-200.79 -86.71,-298.14 -28.9,103.44 -51.72,200.79 -80.62,298.14 59.33,0 111.05,0 167.33,0z"/>
   <path class="fil0" d="M-4674.16 -2687.23c6.09,0 12.17,-6.08 12.17,-6.08 103.44,-86.71 258.6,-28.91 281.41,103.43 0,12.17 0,16.74 0,28.9 0,74.54 0,149.08 0,223.61 0,68.45 -34.98,126.26 -97.35,155.16 -62.37,28.9 -120.17,22.82 -177.97,-16.73 -6.09,-6.09 -12.17,-12.17 -16.73,-12.17 -6.09,0 -6.09,6.08 -6.09,6.08 0,28.9 0,28.9 -28.9,28.9 -16.73,0 -39.55,0 -57.8,0 -12.17,0 -16.74,-6.08 -12.17,-16.73 0,-6.08 0,-6.08 0,-12.17 0,-235.78 0,-470.03 0,-705.81 0,-6.08 0,-12.17 0,-12.17 0,-12.17 6.08,-12.17 12.17,-12.17 22.81,0 45.63,0 74.53,0 12.17,0 16.73,6.09 16.73,16.74 0,62.36 0,126.25 0,194.7 0,13.69 0,24.34 0,36.51zm194.71 240.34c0,-28.9 0,-62.37 0,-91.27 0,-12.17 0,-16.73 0,-28.9 -12.17,-45.63 -57.8,-74.54 -103.44,-74.54 -45.63,6.09 -86.7,45.64 -86.7,97.36 0,62.36 0,126.25 0,188.62 0,57.8 45.63,97.35 97.35,97.35 57.8,0 97.35,-45.63 97.35,-103.44 -4.56,-27.38 -4.56,-56.28 -4.56,-85.18z"/>
   <path class="fil0" d="M-1777.9 -2212.63c-16.73,12.17 -34.99,28.9 -51.72,34.98 -114.08,45.64 -235.78,-34.98 -235.78,-155.15 0,-74.54 0,-149.08 0,-223.61 0,-80.62 62.37,-165.81 171.89,-171.89 39.55,0 74.54,12.17 103.44,34.99 6.09,6.08 6.09,12.16 16.73,12.16 6.09,-6.08 0,-12.16 0,-16.73 0,-68.45 0,-142.99 0,-211.44 0,-16.73 0,-16.73 16.74,-16.73 22.81,0 45.63,0 68.45,0 6.08,0 12.17,0 12.17,12.17 0,6.08 0,12.17 0,12.17 0,235.78 0,470.03 0,705.81l0 6.08c0,16.74 0,16.74 -16.74,16.74 -22.81,0 -45.63,0 -68.45,0 -12.17,0 -16.73,-6.09 -16.73,-12.17 6.08,-15.21 10.65,-21.3 0,-27.38zm6.08 -240.34c0,-28.91 0,-57.81 0,-86.71 0,-12.17 0,-22.82 -6.08,-34.99 -12.17,-45.63 -57.8,-74.53 -103.44,-68.45 -45.63,6.09 -80.62,45.64 -86.7,86.71 0,68.45 0,136.9 0,206.87 0,57.81 62.36,97.36 114.08,86.71 45.64,-12.17 74.54,-45.64 74.54,-97.35 7.6,-28.91 7.6,-57.81 7.6,-92.79z"/>
   <path class="fil0" d="M-5591.41 -2682.67c6.09,-6.08 12.17,-12.17 22.82,-16.73 57.81,-34.99 114.09,-39.55 177.98,-12.17 62.36,28.9 91.26,80.62 91.26,149.07 0,74.54 0,155.16 0,229.7 0,68.45 -34.98,120.17 -97.35,149.07 -62.37,28.9 -120.17,22.81 -177.97,-16.73 -6.09,-6.09 -12.17,-12.17 -16.74,-12.17 -6.08,0 -6.08,0 -6.08,0 0,28.9 0,28.9 -34.99,28.9 -16.73,0 -34.98,0 -51.71,0 -12.17,0 -16.74,-6.09 -16.74,-16.73 0,-6.09 0,-6.09 0,-12.17 0,-235.78 0,-470.04 0,-705.81 0,-6.09 0,-6.09 0,-12.17 0,-12.17 6.09,-16.74 16.74,-16.74 22.81,0 45.63,0 68.45,0 12.17,0 16.73,6.09 16.73,16.74 0,68.45 0,142.98 0,211.44 1.52,19.77 1.52,25.86 7.6,36.5zm-6.08 235.78c0,28.9 0,62.37 0,91.27 0,57.8 39.55,97.35 97.35,97.35 51.72,0 97.36,-39.55 97.36,-97.35 0,-62.37 0,-126.26 0,-184.06 0,-28.9 -12.17,-57.8 -34.99,-74.54 -28.9,-22.81 -68.45,-28.9 -103.44,-12.16 -34.98,16.73 -57.8,45.63 -57.8,86.7 1.52,28.9 1.52,57.8 1.52,92.79z"/>
   <path class="fil0" d="M-3572.85 -2550.33c0,51.72 0,103.44 0,149.07 0,62.37 34.99,109.53 97.35,126.26 74.54,22.82 155.16,-28.9 161.25,-109.52 0,-16.74 0,-16.74 22.81,-16.74 22.82,0 45.64,0 62.37,0 12.17,0 16.73,6.09 16.73,16.74 -6.08,91.27 -51.72,155.15 -132.34,194.7 -120.17,57.81 -258.59,0 -310.31,-120.17 -16.73,-28.9 -22.82,-51.72 -22.82,-80.62 0,-103.44 0,-211.44 0,-314.87 0,-91.27 57.81,-171.89 136.91,-206.88 86.7,-34.99 184.05,-16.73 252.51,45.63 45.63,39.55 68.45,91.27 68.45,155.16 0,12.17 0,12.17 -12.17,12.17 -22.82,0 -51.72,0 -74.54,0 -12.17,0 -16.73,-6.08 -16.73,-16.73 -6.09,-51.72 -39.55,-97.36 -91.27,-109.52 -86.7,-22.82 -165.8,34.98 -165.8,126.25 7.6,45.63 7.6,97.35 7.6,149.07z"/>
   <path class="fil0" d="M-4312.12 -2567.06c16.73,-91.27 86.7,-155.16 177.97,-161.24 103.44,-6.09 188.62,62.37 206.88,155.16 6.08,16.73 6.08,34.98 6.08,51.71 0,109.53 0,217.53 0,320.97 0,6.08 0,12.16 0,12.16 0,6.09 -6.08,12.17 -12.17,12.17 -28.9,0 -51.72,0 -80.62,0 -12.17,0 -12.17,-6.08 -12.17,-12.17 0,-6.08 0,-12.16 0,-22.81 -12.17,0 -16.73,12.17 -22.82,16.73 -86.7,62.37 -252.51,39.55 -281.41,-103.44 -28.9,-120.17 68.45,-206.87 161.24,-206.87 45.64,0 86.71,0 132.34,0 12.17,0 16.74,-6.09 16.74,-16.74 0,-16.73 0,-34.98 0,-51.71 -12.17,-39.55 -45.64,-68.46 -91.27,-74.54 -39.55,0 -80.62,22.82 -91.27,62.37 -6.09,12.17 -12.17,16.73 -22.82,16.73 -30.42,1.52 -57.8,1.52 -86.7,1.52zm217.52 136.9l0 0c-22.82,0 -39.55,0 -62.37,0 -34.98,6.09 -57.8,22.82 -68.45,57.81 -12.17,34.98 -6.08,62.36 16.73,86.7 57.81,62.37 155.16,34.99 177.98,-39.55 12.17,-28.9 6.08,-62.37 6.08,-91.27 0,-6.08 -6.08,-6.08 -12.17,-6.08 -18.25,-7.61 -34.98,-7.61 -57.8,-7.61z"/>
   <path class="fil0" d="M-4949.48 -2217.2c-28.9,22.82 -57.81,39.55 -86.71,45.64 -103.44,16.73 -184.06,-28.9 -211.44,-114.09 -39.55,-120.17 57.81,-223.61 161.24,-223.61 39.55,0 86.71,0 126.26,0 12.17,0 16.73,-6.08 16.73,-16.73 0,-10.65 0,-16.73 0,-28.9 0,-45.64 -34.98,-86.71 -80.62,-97.35 -39.55,-6.09 -91.27,16.73 -103.44,62.36 -6.08,16.74 -12.17,16.74 -28.9,16.74 -16.73,0 -39.55,0 -57.8,0 -16.73,0 -16.73,0 -12.17,-16.74 16.73,-62.36 57.8,-109.52 120.17,-132.34 126.25,-45.63 263.16,45.64 263.16,184.06 0,114.09 0,223.61 0,337.7 0,16.73 0,16.73 -16.74,16.73 -22.81,0 -39.55,0 -62.36,0 -16.73,0 -16.73,0 -22.82,-16.73 1.52,-6.09 -4.56,-6.09 -4.56,-16.74zm0 -167.32c0,-12.17 0,-22.82 0,-34.99 0,-12.17 -6.09,-12.17 -16.74,-12.17 -34.98,0 -74.53,0 -109.52,0 -39.55,0 -68.45,28.9 -80.62,62.37 -12.17,34.98 6.09,74.53 34.99,97.35 62.36,45.64 142.99,6.09 161.24,-57.8 16.73,-19.78 10.65,-36.51 10.65,-54.76z"/>
   <path class="fil0" d="M-2237.29 -2212.63c-6.08,0 -12.16,6.08 -12.16,6.08 -57.81,39.55 -114.09,51.72 -177.98,22.82 -62.36,-28.9 -97.35,-80.62 -103.44,-149.07 0,-6.09 0,-12.17 0,-16.74 0,-120.17 0,-240.34 0,-360.51 0,-22.81 0,-22.81 22.82,-22.81 22.82,0 39.55,0 62.37,0 16.73,0 16.73,0 16.73,16.73 0,16.73 0,39.55 0,57.8 0,97.35 0,200.79 0,298.15 0,45.63 22.82,80.62 62.37,91.26 62.36,22.82 132.34,-22.81 132.34,-91.26 0,-114.09 0,-229.7 0,-337.7 0,-6.08 0,-12.17 0,-16.73 0,-22.82 0,-22.82 22.81,-22.82 22.82,0 39.55,0 62.37,0 16.73,0 16.73,0 16.73,16.73 0,12.17 0,16.74 0,28.91 0,161.24 0,320.96 0,482.2 0,6.08 0,12.17 0,12.17 0,12.17 0,16.73 -16.73,16.73 -22.82,0 -45.63,0 -74.53,0 -12.17,0 -16.74,0 -16.74,-12.17 3.04,-7.6 3.04,-13.69 3.04,-19.77z"/>
   <path class="fil0" d="M-2993.29 -2452.97c0,-28.91 0,-62.37 0,-91.27 0,-97.36 80.62,-177.98 177.97,-188.62 109.52,-12.17 188.62,62.36 211.44,142.98 6.08,16.74 6.08,34.99 6.08,51.72 0,57.81 0,114.09 0,171.89 0,97.35 -74.53,184.06 -171.89,194.71 -114.08,12.17 -200.79,-62.37 -217.52,-161.24 0,-12.17 0,-16.74 0,-28.91 -6.08,-27.38 -6.08,-56.28 -6.08,-91.26zm292.06 6.08c0,-28.9 0,-57.8 0,-86.7 0,-51.72 -39.55,-91.27 -97.36,-97.36 -51.72,0 -97.35,39.55 -97.35,97.36 0,57.8 0,114.08 0,171.88 0,51.72 39.55,97.36 97.35,97.36 57.81,0 97.36,-51.72 97.36,-97.36 0,-27.38 0,-56.28 0,-85.18z"/>
   <path class="fil0" d="M-6096.42 -2556.41c0,-114.09 0,-235.78 0,-349.86 0,-6.09 0,-12.17 0,-16.74 0,-6.08 6.08,-12.17 12.16,-12.17 28.91,0 57.81,0 86.71,0 6.08,0 12.17,6.09 12.17,12.17 0,6.09 0,12.17 0,16.74 0,235.77 0,470.03 0,699.72 0,6.09 0,6.09 0,12.17 0,12.17 -6.09,16.73 -16.73,16.73 -22.82,0 -45.64,0 -68.46,0 -16.73,0 -16.73,0 -16.73,-16.73 0,-22.82 0,-39.55 0,-62.37 -9.12,-98.87 -9.12,-202.31 -9.12,-299.66z"/>
   <path class="fil0" d="M-3067.83 -2556.41c0,114.08 0,229.69 0,349.86 0,6.09 0,12.17 0,16.73 0,6.09 0,12.17 -12.17,12.17 -22.82,0 -51.72,0 -74.53,0 -12.17,0 -12.17,-6.08 -12.17,-12.17 0,-6.08 0,-12.17 0,-12.17 0,-235.77 0,-470.03 0,-705.81 0,-6.08 0,-6.08 0,-12.16 0,-12.17 0,-16.74 12.17,-12.17 22.81,0 51.71,0 74.53,0 6.09,0 12.17,0 12.17,12.17 0,6.08 0,12.16 0,16.73 0,112.56 0,232.73 0,346.82z"/>
   <path class="fil0" d="M-5798.28 -2452.97c0,86.7 0,171.88 0,258.59 0,22.82 0,22.82 -22.82,22.82 -22.81,0 -39.55,0 -62.36,0 -12.17,0 -16.74,-6.09 -16.74,-16.74 0,-51.71 0,-109.52 0,-161.24 0,-114.08 0,-235.77 0,-349.86 0,-22.82 0,-22.82 22.82,-22.82 22.82,0 39.55,0 62.37,0 16.73,-12.17 16.73,-12.17 16.73,12.17 0,85.19 0,171.89 0,257.08z"/>
   <path class="fil0" d="M-4205.27 -3673.8c62.37,0 132.34,0 194.71,0 22.81,0 22.81,0 22.81,22.81 0,22.82 0,39.55 0,62.37 0,12.17 -6.08,16.73 -16.73,16.73 -34.99,0 -62.37,0 -97.35,0 -103.44,0 -200.79,0 -304.23,0 -6.09,0 -12.17,0 -16.73,0 -4.57,0 -12.17,-6.08 -12.17,-12.17 0,-28.9 0,-51.72 0,-80.62 0,-12.17 6.08,-12.17 12.17,-12.17 22.81,0 45.63,0 68.45,0 56.28,3.05 101.91,3.05 149.07,3.05z"/>
   <path class="fil0" d="M-5843.91 -2933.66c12.16,0 22.81,0 34.98,0 12.17,0 12.17,6.09 12.17,12.17 0,22.82 0,51.72 0,74.54 0,12.17 -6.08,12.17 -12.17,12.17 -22.82,0 -51.72,0 -74.53,0 -12.17,0 -12.17,-6.09 -12.17,-12.17 0,-22.82 0,-51.72 0,-74.54 0,-12.17 6.08,-12.17 12.17,-12.17 16.73,0 28.9,0 39.55,0z"/>
  </g>
  <g id="_1671422806032">
   <polygon class="fil1" points="3951.82,2821.06 3687.13,2864.1 3670.93,2866.72 3654.69,2869.08 3638.42,2871.14 3622.12,2872.95 3605.8,2874.47 3850.14,2834.02 3870.55,2832.12 3890.92,2829.87 3911.25,2827.28 3931.56,2824.34 "/>
   <polygon class="fil2" points="3850.14,2834.02 3605.8,2874.47 3589.45,2875.71 3573.05,2876.68 3556.64,2877.36 3540.2,2877.79 3523.73,2877.93 3747.56,2838.34 3768.14,2838.17 3788.7,2837.65 3809.21,2836.79 3829.7,2835.58 "/>
   <polygon class="fil3" points="3747.56,2838.34 3523.73,2877.93 3504.51,2877.73 3485.35,2877.15 3466.27,2876.18 3447.24,2874.83 3428.27,2873.09 3628.23,2832.3 3651.95,2834.47 3675.73,2836.16 3699.59,2837.37 3723.54,2838.1 "/>
   <polygon class="fil4" points="3628.23,2832.3 3428.27,2873.09 3409.36,2870.95 3390.53,2868.45 3371.74,2865.55 3353.02,2862.27 3334.37,2858.6 3510.85,2814.18 3534.17,2818.77 3557.58,2822.88 3581.05,2826.5 3604.6,2829.63 "/>
   <polygon class="fil5" points="3510.85,2814.18 3334.37,2858.6 3315.77,2854.54 3297.25,2850.11 3278.77,2845.29 3260.36,2840.07 3242.02,2834.49 3395.42,2784.04 3418.35,2791.03 3441.36,2797.55 3464.45,2803.57 3487.61,2809.12 "/>
   <polygon class="fil6" points="3395.42,2784.04 3242.02,2834.49 3223.73,2828.51 3205.51,2822.16 3187.35,2815.41 3169.24,2808.29 3304.46,2751.29 3327.08,2760.2 3349.78,2768.63 3372.55,2776.57 "/>
   <polygon class="fil7" points="3304.46,2751.29 3169.24,2808.29 3151.21,2800.78 3133.25,2792.88 3115.33,2784.61 3097.49,2775.95 3214.76,2710.88 3237.07,2721.7 3259.45,2732.05 3281.91,2741.9 "/>
   <polygon class="fil8" points="3214.76,2710.88 3097.49,2775.95 3079.7,2766.91 3061.98,2757.49 3044.32,2747.69 3026.72,2737.51 3126.3,2662.82 3148.29,2675.55 3170.37,2687.81 3192.53,2699.58 "/>
   <polygon class="fil9" points="3126.3,2662.82 3026.72,2737.51 3009.18,2726.94 2991.71,2716 2974.29,2704.67 2956.94,2692.95 3039.08,2607.13 3060.76,2621.77 3082.53,2635.93 3104.38,2649.61 "/>
   <polygon class="fil10" points="3039.08,2607.13 2956.94,2692.95 2939.66,2680.87 2926.67,2671.28 2913.39,2661.09 2899.79,2650.28 2885.9,2638.89 2950.27,2539.55 2967.63,2553.79 2984.63,2567.29 3001.24,2580.03 3017.47,2592.02 "/>
   <polygon class="fil11" points="2950.27,2539.55 2885.9,2638.89 2871.7,2626.89 2857.19,2614.31 2842.37,2601.1 2827.25,2587.3 2876.96,2475.06 2895.85,2492.31 2914.38,2508.81 2932.51,2524.55 "/>
   <polygon class="fil12" points="2876.96,2475.06 2827.25,2587.3 2811.83,2572.9 2796.1,2557.9 2780.05,2542.31 2763.71,2526.12 2797.54,2398.58 2817.96,2418.83 2838.02,2438.32 2857.68,2457.06 "/>
   <polygon class="fil13" points="2797.54,2398.58 2763.71,2526.12 2747.07,2509.33 2730.1,2491.94 2712.84,2473.94 2733.95,2333.36 2755.52,2355.85 2776.73,2377.59 "/>
   <polygon class="fil14" points="2733.95,2333.36 2712.84,2473.94 2695.27,2455.34 2677.38,2436.16 2659.2,2416.38 2666.89,2261.41 2689.63,2286.14 2711.98,2310.12 "/>
   <polygon class="fil15" points="2666.89,2261.41 2659.2,2416.38 2640.7,2396 2621.89,2375.02 2602.78,2353.44 2596.37,2182.73 2620.26,2209.71 2643.77,2235.93 "/>
   <polygon class="fil16" points="2596.37,2182.73 2602.78,2353.44 2583.36,2331.26 2563.62,2308.49 2543.58,2285.12 2522.38,2097.34 2547.43,2126.55 2572.09,2155.02 "/>
   <polygon class="fil17" points="2522.38,2097.34 2543.58,2285.12 2523.24,2261.17 2502.58,2236.59 2471.12,2036.68 2496.94,2067.39 "/>
   <polygon class="fil18" points="2471.12,2036.68 2502.58,2236.59 2481.61,2211.44 2460.33,2185.69 2418.3,1973.06 2444.9,2005.24 "/>
   <polygon class="fil19" points="2418.3,1973.06 2460.33,2185.69 2438.74,2159.35 2416.85,2132.4 2363.95,1906.44 2391.32,1940.12 "/>
   <polygon class="fil20" points="2363.95,1906.44 2416.85,2132.4 2394.63,2104.86 2372.11,2076.73 2308.03,1836.85 2336.18,1872.01 "/>
   <polygon class="fil21" points="3951.82,2821.06 3687.13,2864.1 3670.93,2866.72 3654.69,2869.08 3638.42,2871.14 3622.12,2872.95 3605.8,2874.47 3589.45,2875.71 3573.05,2876.68 3556.64,2877.36 3540.2,2877.79 3523.73,2877.93 3504.51,2877.73 3485.35,2877.15 3466.27,2876.18 3447.24,2874.83 3428.27,2873.09 3409.36,2870.95 3390.53,2868.45 3371.74,2865.55 3353.02,2862.27 3334.37,2858.6 3315.77,2854.54 3297.25,2850.11 3278.77,2845.29 3260.36,2840.07 3242.02,2834.49 3223.73,2828.51 3205.51,2822.16 3187.35,2815.41 3169.24,2808.29 3151.21,2800.78 3133.25,2792.88 3115.33,2784.61 3097.49,2775.95 3079.7,2766.91 3061.98,2757.49 3044.32,2747.69 3026.72,2737.51 3009.18,2726.94 2991.71,2716 2974.29,2704.67 2956.94,2692.95 2939.66,2680.87 2926.67,2671.28 2913.39,2661.09 2899.79,2650.28 2885.9,2638.89 2871.7,2626.89 2857.19,2614.31 2842.37,2601.1 2827.25,2587.3 2811.83,2572.9 2796.1,2557.9 2780.05,2542.31 2763.71,2526.12 2747.07,2509.33 2730.1,2491.94 2712.84,2473.94 2695.27,2455.34 2677.38,2436.16 2659.2,2416.38 2640.7,2396 2621.89,2375.02 2602.78,2353.44 2583.36,2331.26 2563.62,2308.49 2543.58,2285.12 2523.24,2261.17 2502.58,2236.59 2481.61,2211.44 2460.33,2185.69 2438.74,2159.35 2416.85,2132.4 2394.63,2104.86 2372.11,2076.73 2308.03,1836.85 2336.18,1872.01 2363.95,1906.44 2391.32,1940.12 2418.3,1973.06 2444.9,2005.24 2471.12,2036.68 2496.94,2067.39 2522.38,2097.34 2547.43,2126.55 2572.09,2155.02 2596.37,2182.73 2620.26,2209.71 2643.77,2235.93 2666.89,2261.41 2689.63,2286.14 2711.98,2310.12 2733.95,2333.36 2755.52,2355.85 2776.73,2377.59 2797.54,2398.58 2817.96,2418.83 2838.02,2438.32 2857.68,2457.06 2876.96,2475.06 2895.85,2492.31 2914.38,2508.81 2932.51,2524.55 2950.27,2539.55 2967.63,2553.79 2984.63,2567.29 3001.24,2580.03 3017.47,2592.02 3039.08,2607.13 3060.76,2621.77 3082.53,2635.93 3104.38,2649.61 3126.3,2662.82 3148.29,2675.55 3170.37,2687.81 3192.53,2699.58 3214.76,2710.88 3237.07,2721.7 3259.45,2732.05 3281.91,2741.9 3304.46,2751.29 3327.08,2760.2 3349.78,2768.63 3372.55,2776.57 3395.42,2784.04 3418.35,2791.03 3441.36,2797.55 3464.45,2803.57 3487.61,2809.12 3510.85,2814.18 3534.17,2818.77 3557.58,2822.88 3581.05,2826.5 3604.6,2829.63 3628.23,2832.3 3651.95,2834.47 3675.73,2836.16 3699.59,2837.37 3723.54,2838.1 3747.56,2838.34 3768.14,2838.17 3788.7,2837.65 3809.21,2836.79 3829.7,2835.58 3850.14,2834.02 3870.55,2832.12 3890.92,2829.87 3911.25,2827.28 3931.56,2824.34 "/>
   <polygon class="fil22" points="2308.03,1836.85 2372.11,2076.73 2342.61,2112.99 2313.03,2148.09 2234.18,1926.06 2271.17,1882.18 "/>
   <polygon class="fil23" points="2234.18,1926.06 2313.03,2148.09 2283.3,2182.05 2253.47,2214.85 2159.73,2009.5 2197.02,1968.5 "/>
   <polygon class="fil24" points="2159.73,2009.5 2253.47,2214.85 2223.52,2246.48 2193.46,2276.98 2084.71,2087.16 2122.3,2049.05 "/>
   <polygon class="fil25" points="2084.71,2087.16 2193.46,2276.98 2163.27,2306.32 2132.97,2334.5 2009.1,2159.06 2046.98,2123.83 "/>
   <polygon class="fil26" points="2009.1,2159.06 2132.97,2334.5 2102.55,2361.53 2072.02,2387.41 1932.92,2225.2 1971.09,2192.85 "/>
   <polygon class="fil27" points="1932.92,2225.2 2072.02,2387.41 2041.38,2412.13 2010.61,2435.7 1856.16,2285.57 1894.62,2256.1 "/>
   <polygon class="fil28" points="1856.16,2285.57 2010.61,2435.7 1979.73,2458.12 1948.74,2479.39 1778.83,2340.17 1817.56,2313.59 "/>
   <polygon class="fil29" points="1778.83,2340.17 1948.74,2479.39 1917.63,2499.51 1886.41,2518.47 1700.91,2389.03 1739.93,2365.32 "/>
   <polygon class="fil30" points="1700.91,2389.03 1886.41,2518.47 1855.08,2536.28 1823.63,2552.95 1622.43,2432.13 1661.74,2411.29 "/>
   <polygon class="fil31" points="1622.43,2432.13 1823.63,2552.95 1792.07,2568.48 1760.39,2582.83 1543.38,2469.48 1582.98,2451.53 "/>
   <polygon class="fil32" points="1543.38,2469.48 1760.39,2582.83 1728.61,2596.04 1696.71,2608.11 1463.78,2501.07 1503.65,2485.99 "/>
   <polygon class="fil33" points="1463.78,2501.07 1696.71,2608.11 1664.69,2619.02 1632.56,2628.79 1383.59,2526.92 1423.75,2514.71 "/>
   <polygon class="fil34" points="1383.59,2526.92 1632.56,2628.79 1600.32,2637.4 1567.97,2644.86 1302.86,2547.01 1343.3,2537.68 "/>
   <polygon class="fil35" points="1302.86,2547.01 1567.97,2644.86 1535.5,2651.18 1502.92,2656.34 1221.56,2561.36 1262.28,2554.9 "/>
   <polygon class="fil36" points="1221.56,2561.36 1502.92,2656.34 1470.25,2660.36 1437.45,2663.23 1139.71,2569.97 1180.7,2566.38 "/>
   <polygon class="fil37" points="1139.71,2569.97 1437.45,2663.23 1404.53,2664.95 1371.52,2665.53 1349.82,2665.26 1030.17,2572.52 1057.3,2572.84 1098.57,2572.12 "/>
   <polygon class="fil38" points="1030.17,2572.52 1349.82,2665.26 1328.32,2664.49 1306.98,2663.2 1285.85,2661.38 1264.9,2659.05 924.02,2564.75 950.21,2567.66 976.63,2569.92 1003.29,2571.55 "/>
   <polygon class="fil39" points="924.02,2564.75 1264.9,2659.05 1244.14,2656.2 1223.57,2652.84 1203.19,2648.95 1183,2644.55 821.65,2546.63 846.88,2552.13 872.36,2556.98 898.07,2561.18 "/>
   <polygon class="fil40" points="821.65,2546.63 1183,2644.55 1163,2639.64 796.65,2540.48 "/>
   <polygon class="fil21" points="2308.03,1836.85 2372.11,2076.73 2342.61,2112.99 2313.03,2148.09 2283.3,2182.05 2253.47,2214.85 2223.52,2246.48 2193.46,2276.98 2163.27,2306.32 2132.97,2334.5 2102.55,2361.53 2072.02,2387.41 2041.38,2412.13 2010.61,2435.7 1979.73,2458.12 1948.74,2479.39 1917.63,2499.51 1886.41,2518.47 1855.08,2536.28 1823.63,2552.95 1792.07,2568.48 1760.39,2582.83 1728.61,2596.04 1696.71,2608.11 1664.69,2619.02 1632.56,2628.79 1600.32,2637.4 1567.97,2644.86 1535.5,2651.18 1502.92,2656.34 1470.25,2660.36 1437.45,2663.23 1404.53,2664.95 1371.52,2665.53 1349.82,2665.26 1328.32,2664.49 1306.98,2663.2 1285.85,2661.38 1264.9,2659.05 1244.14,2656.2 1223.57,2652.84 1203.19,2648.95 1183,2644.55 1163,2639.64 796.65,2540.48 821.65,2546.63 846.88,2552.13 872.36,2556.98 898.07,2561.18 924.02,2564.75 950.21,2567.66 976.63,2569.92 1003.29,2571.55 1030.17,2572.52 1057.3,2572.84 1098.57,2572.12 1139.71,2569.97 1180.7,2566.38 1221.56,2561.36 1262.28,2554.9 1302.86,2547.01 1343.3,2537.68 1383.59,2526.92 1423.75,2514.71 1463.78,2501.07 1503.65,2485.99 1543.38,2469.48 1582.98,2451.53 1622.43,2432.13 1661.74,2411.29 1700.91,2389.03 1739.93,2365.32 1778.83,2340.17 1817.56,2313.59 1856.16,2285.57 1894.62,2256.1 1932.92,2225.2 1971.09,2192.85 2009.1,2159.06 2046.98,2123.83 2084.71,2087.16 2122.3,2049.05 2159.73,2009.5 2197.02,1968.5 2234.18,1926.06 2271.17,1882.18 "/>
   <polygon class="fil41" points="4077.44,2283.71 3787.64,2434.22 3801.04,2427.22 3814.28,2419.85 3827.37,2412.1 3840.28,2403.98 3853.03,2395.47 3865.61,2386.6 4174.92,2224.19 4159.19,2235.28 4143.25,2245.91 4127.1,2256.06 4110.76,2265.75 4094.2,2274.97 "/>
   <polygon class="fil42" points="4174.92,2224.19 3865.61,2386.6 3878.04,2377.35 3890.29,2367.72 3902.36,2357.72 3914.29,2347.35 3926.04,2336.6 3937.63,2325.46 4264.94,2147.77 4250.45,2161.68 4235.75,2175.12 4220.85,2188.09 4205.75,2200.58 4190.44,2212.63 "/>
   <polygon class="fil43" points="4264.94,2147.77 3937.63,2325.46 3949.05,2313.98 3960.31,2302.11 3971.3,2289.78 3981.95,2277.16 3992.24,2264.23 4333.2,2071.22 4320.33,2087.39 4307.02,2103.16 4293.28,2118.57 4279.22,2133.41 "/>
   <polygon class="fil44" points="4333.2,2071.22 3992.24,2264.23 4002.19,2250.99 4011.77,2237.45 4021,2223.62 4029.89,2209.46 4038.43,2195.01 4390.93,1984.69 4380.26,2002.76 4369.15,2020.45 4357.61,2037.76 4345.63,2054.68 "/>
   <polygon class="fil45" points="4390.93,1984.69 4038.43,2195.01 4046.61,2180.24 4054.44,2165.17 4061.93,2149.8 4069.07,2134.11 4075.85,2118.14 4437.7,1888.6 4429.22,1908.58 4420.3,1928.18 4410.95,1947.4 4401.15,1966.24 "/>
   <polygon class="fil46" points="4437.7,1888.6 4075.85,2118.14 4082.27,2101.83 4088.36,2085.23 4094.08,2068.32 4099.48,2051.11 4104.51,2033.58 4473.53,1782.91 4467.24,1804.82 4460.51,1826.34 4453.34,1847.48 4445.74,1868.23 "/>
   <polygon class="fil47" points="4473.53,1782.91 4104.51,2033.58 4109.2,2015.75 4113.53,1997.61 4117.52,1979.17 4121.16,1960.4 4124.46,1941.33 4498.47,1667.6 4494.35,1691.44 4489.8,1714.89 4484.81,1737.95 4479.39,1760.62 "/>
   <polygon class="fil48" points="4498.47,1667.6 4124.46,1941.33 4127.4,1921.95 4130.01,1902.27 4132.26,1882.27 4134.16,1861.97 4510.59,1568.4 4508.21,1593.78 4505.4,1618.77 4502.15,1643.38 "/>
   <polygon class="fil49" points="4510.59,1568.4 4134.16,1861.97 4135.72,1841.35 4136.92,1820.43 4137.8,1799.2 4138.31,1777.65 4515.78,1463 4515.14,1489.93 4514.05,1516.47 4512.54,1542.63 "/>
   <polygon class="fil50" points="4515.78,1463 4138.31,1777.65 4138.48,1755.79 4138.31,1733.06 4137.77,1710.67 4136.9,1688.61 4514.01,1351.71 4515.11,1379.27 4515.78,1407.26 4516,1435.67 "/>
   <polygon class="fil51" points="4514.01,1351.71 4136.9,1688.61 4135.66,1666.91 4134.08,1645.52 4132.13,1624.49 4129.83,1603.79 4505.19,1245.68 4508.06,1271.54 4510.49,1297.84 4512.47,1324.57 "/>
   <polygon class="fil52" points="4505.19,1245.68 4129.83,1603.79 4127.19,1583.42 4124.17,1563.4 4120.81,1543.7 4117.09,1524.35 4489.27,1146.38 4493.91,1170.57 4498.12,1195.18 4501.87,1220.21 "/>
   <polygon class="fil53" points="4489.27,1146.38 4117.09,1524.35 4113.03,1505.34 4108.6,1486.66 4103.83,1468.31 4098.69,1450.31 4093.2,1432.62 4459.39,1031.72 4466.26,1053.82 4472.68,1076.33 4478.65,1099.26 4484.19,1122.61 "/>
   <polygon class="fil54" points="4459.39,1031.72 4093.2,1432.62 4087.35,1415.3 4081.16,1398.29 4074.59,1381.63 4067.68,1365.29 4060.41,1349.29 4418.4,927.56 4427.49,947.55 4436.13,967.97 4444.34,988.8 4452.09,1010.05 "/>
   <polygon class="fil55" points="4418.4,927.56 4060.41,1349.29 4052.77,1333.62 4044.78,1318.29 4036.44,1303.3 4027.73,1288.63 4018.67,1274.31 4366.23,833.82 4377.56,851.73 4388.44,870.06 4398.87,888.81 4408.85,907.97 "/>
   <polygon class="fil56" points="4366.23,833.82 4018.67,1274.31 4009.24,1260.31 3999.46,1246.64 3989.33,1233.32 3978.84,1220.32 3967.99,1207.64 4302.87,750.5 4316.44,766.33 4329.56,782.58 4342.23,799.24 4354.45,816.32 "/>
   <polygon class="fil57" points="4302.87,750.5 3967.99,1207.64 3956.77,1195.31 3945.29,1183.44 3933.64,1171.96 3921.81,1160.82 3909.81,1150.07 4230.16,678.53 4245.16,691.97 4259.94,705.88 4274.5,720.24 4288.85,735.08 "/>
   <polygon class="fil58" points="4230.16,678.53 3909.81,1150.07 3897.64,1139.7 3885.3,1129.71 3872.79,1120.07 3860.09,1110.82 3847.23,1101.95 3834.18,1093.44 4135.63,607.74 4151.93,618.37 4168.01,629.46 4183.88,641.02 4199.52,653.07 4214.95,665.56 "/>
   <polygon class="fil59" points="4135.63,607.74 3834.18,1093.44 3820.98,1085.32 3807.6,1077.57 3794.05,1070.2 3780.32,1063.2 3766.42,1056.57 3752.35,1050.33 4033.33,553.85 4050.92,561.66 4068.3,569.94 4085.45,578.68 4102.4,587.9 4119.13,597.59 "/>
   <polygon class="fil60" points="4033.33,553.85 3752.35,1050.33 3738.1,1044.47 3723.68,1038.97 3709.09,1033.85 3694.33,1029.12 3679.38,1024.76 3664.28,1020.78 3923.25,516.91 3942.13,521.89 3960.81,527.34 3979.26,533.26 3997.5,539.65 4015.52,546.52 "/>
   <polygon class="fil61" points="3923.25,516.91 3664.28,1020.78 3649.01,1017.18 3633.54,1013.95 3617.91,1011.1 3602.11,1008.64 3586.14,1006.55 3825.56,499.12 3845.53,501.74 3865.29,504.82 3884.82,508.38 3904.15,512.41 "/>
   <polygon class="fil62" points="3825.56,499.12 3586.14,1006.55 3569.99,1004.85 3553.67,1003.52 3537.17,1002.57 3520.51,1001.99 3503.68,1001.8 3493.07,1001.9 3709.23,493.31 3722.48,493.19 3743.53,493.43 3764.37,494.14 3784.98,495.33 3805.39,497 "/>
   <polygon class="fil63" points="3709.23,493.31 3493.07,1001.9 3482.52,1002.18 3472.01,1002.65 3461.53,1003.3 3451.1,1004.14 3440.71,1005.17 3430.35,1006.39 3420.04,1007.79 3409.77,1009.39 3399.56,1011.18 3592.34,504.9 3605.11,502.68 3617.95,500.68 3630.84,498.92 3643.78,497.4 3656.77,496.11 3669.8,495.06 3682.9,494.24 3696.04,493.66 "/>
   <polygon class="fil64" points="3592.34,504.9 3399.56,1011.18 3389.37,1013.14 3379.23,1015.3 3369.12,1017.66 3359.06,1020.19 3349.05,1022.93 3339.07,1025.85 3329.14,1028.96 3319.25,1032.26 3309.4,1035.75 3479.64,535.62 3491.96,531.26 3504.32,527.13 3516.74,523.25 3529.21,519.6 3541.73,516.18 3554.3,513.01 3566.93,510.07 3579.61,507.36 "/>
   <polygon class="fil65" points="3479.64,535.62 3309.4,1035.75 3299.58,1039.42 3289.81,1043.3 3280.08,1047.37 3270.4,1051.62 3260.76,1056.06 3251.14,1060.7 3241.59,1065.53 3232.07,1070.55 3382.98,579.13 3394.88,572.85 3406.83,566.81 3418.84,561.01 3430.89,555.46 3443.01,550.14 3455.16,545.06 3467.37,540.22 "/>
   <polygon class="fil66" points="3382.98,579.13 3232.07,1070.55 3222.58,1075.77 3213.16,1081.17 3203.76,1086.78 3194.41,1092.57 3185.09,1098.56 3172.41,1107.33 3159.4,1116.85 3292.15,636.99 3308.42,625.1 3324.26,614.14 3335.9,606.65 3347.59,599.42 3359.34,592.41 3371.13,585.65 "/>
   <polygon class="fil67" points="3292.15,636.99 3159.4,1116.85 3146.04,1127.09 3132.33,1138.04 3118.27,1149.76 3103.87,1162.19 3089.13,1175.35 3204.31,710.12 3222.74,693.67 3240.74,678.13 3258.31,663.49 3275.44,649.79 "/>
   <polygon class="fil68" points="3204.31,710.12 3089.13,1175.35 3074.05,1189.25 3058.61,1203.88 3042.85,1219.23 3026.72,1235.33 3126.3,785.1 3146.45,764.98 3166.16,745.79 3185.45,727.5 "/>
   <polygon class="fil69" points="3126.3,785.1 3026.72,1235.33 3010.26,1252.15 2993.45,1269.7 2976.32,1287.98 3063.28,850.91 3084.72,828.07 3105.72,806.12 "/>
   <polygon class="fil70" points="3063.28,850.91 2976.32,1287.98 2958.82,1306.99 2940.99,1326.74 2922.81,1347.2 2996.41,924.94 3019.13,899.36 3041.42,874.67 "/>
   <polygon class="fil71" points="2996.41,924.94 2922.81,1347.2 2904.3,1368.4 2885.44,1390.34 2866.24,1412.99 2925.69,1007.17 2949.69,978.85 2973.27,951.44 "/>
   <polygon class="fil72" points="2925.69,1007.17 2866.24,1412.99 2846.7,1436.37 2826.81,1460.49 2806.59,1485.33 2851.14,1097.59 2876.41,1066.55 2901.27,1036.4 "/>
   <polygon class="fil73" points="2851.14,1097.59 2806.59,1485.33 2786.02,1510.9 2765.11,1537.2 2799.29,1162.43 2825.42,1129.56 "/>
   <polygon class="fil74" points="2799.29,1162.43 2765.11,1537.2 2743.87,1564.23 2722.3,1591.97 2745.76,1230.89 2772.74,1196.21 "/>
   <polygon class="fil75" points="2745.76,1230.89 2722.3,1591.97 2700.37,1620.45 2678.1,1649.66 2690.52,1303.01 2718.35,1266.5 "/>
   <polygon class="fil76" points="2690.52,1303.01 2678.1,1649.66 2655.51,1679.59 2632.56,1710.25 2633.59,1378.75 2662.28,1340.42 "/>
   <polygon class="fil77" points="2633.59,1378.75 2632.56,1710.25 2609.27,1741.63 2604.49,1417.97 "/>
   <polygon class="fil21" points="4077.44,2283.71 3787.64,2434.22 3801.04,2427.22 3814.28,2419.85 3827.37,2412.1 3840.28,2403.98 3853.03,2395.47 3865.61,2386.6 3878.04,2377.35 3890.29,2367.72 3902.36,2357.72 3914.29,2347.35 3926.04,2336.6 3937.63,2325.46 3949.05,2313.98 3960.31,2302.11 3971.3,2289.78 3981.95,2277.16 3992.24,2264.23 4002.19,2250.99 4011.77,2237.45 4021,2223.62 4029.89,2209.46 4038.43,2195.01 4046.61,2180.24 4054.44,2165.17 4061.93,2149.8 4069.07,2134.11 4075.85,2118.14 4082.27,2101.83 4088.36,2085.23 4094.08,2068.32 4099.48,2051.11 4104.51,2033.58 4109.2,2015.75 4113.53,1997.61 4117.52,1979.17 4121.16,1960.4 4124.46,1941.33 4127.4,1921.95 4130.01,1902.27 4132.26,1882.27 4134.16,1861.97 4135.72,1841.35 4136.92,1820.43 4137.8,1799.2 4138.31,1777.65 4138.48,1755.79 4138.31,1733.06 4137.77,1710.67 4136.9,1688.61 4135.66,1666.91 4134.08,1645.52 4132.13,1624.49 4129.83,1603.79 4127.19,1583.42 4124.17,1563.4 4120.81,1543.7 4117.09,1524.35 4113.03,1505.34 4108.6,1486.66 4103.83,1468.31 4098.69,1450.31 4093.2,1432.62 4087.35,1415.3 4081.16,1398.29 4074.59,1381.63 4067.68,1365.29 4060.41,1349.29 4052.77,1333.62 4044.78,1318.29 4036.44,1303.3 4027.73,1288.63 4018.67,1274.31 4009.24,1260.31 3999.46,1246.64 3989.33,1233.32 3978.84,1220.32 3967.99,1207.64 3956.77,1195.31 3945.29,1183.44 3933.64,1171.96 3921.81,1160.82 3909.81,1150.07 3897.64,1139.7 3885.3,1129.71 3872.79,1120.07 3860.09,1110.82 3847.23,1101.95 3834.18,1093.44 3820.98,1085.32 3807.6,1077.57 3794.05,1070.2 3780.32,1063.2 3766.42,1056.57 3752.35,1050.33 3738.1,1044.47 3723.68,1038.97 3709.09,1033.85 3694.33,1029.12 3679.38,1024.76 3664.28,1020.78 3649.01,1017.18 3633.54,1013.95 3617.91,1011.1 3602.11,1008.64 3586.14,1006.55 3569.99,1004.85 3553.67,1003.52 3537.17,1002.57 3520.51,1001.99 3503.68,1001.8 3493.07,1001.9 3482.52,1002.18 3472.01,1002.65 3461.53,1003.3 3451.1,1004.14 3440.71,1005.17 3430.35,1006.39 3420.04,1007.79 3409.77,1009.39 3399.56,1011.18 3389.37,1013.14 3379.23,1015.3 3369.12,1017.66 3359.06,1020.19 3349.05,1022.93 3339.07,1025.85 3329.14,1028.96 3319.25,1032.26 3309.4,1035.75 3299.58,1039.42 3289.81,1043.3 3280.08,1047.37 3270.4,1051.62 3260.76,1056.06 3251.14,1060.7 3241.59,1065.53 3232.07,1070.55 3222.58,1075.77 3213.16,1081.17 3203.76,1086.78 3194.41,1092.57 3185.09,1098.56 3172.41,1107.33 3159.4,1116.85 3146.04,1127.09 3132.33,1138.04 3118.27,1149.76 3103.87,1162.19 3089.13,1175.35 3074.05,1189.25 3058.61,1203.88 3042.85,1219.23 3026.72,1235.33 3010.26,1252.15 2993.45,1269.7 2976.32,1287.98 2958.82,1306.99 2940.99,1326.74 2922.81,1347.2 2904.3,1368.4 2885.44,1390.34 2866.24,1412.99 2846.7,1436.37 2826.81,1460.49 2806.59,1485.33 2786.02,1510.9 2765.11,1537.2 2743.87,1564.23 2722.3,1591.97 2700.37,1620.45 2678.1,1649.66 2655.51,1679.59 2632.56,1710.25 2609.27,1741.63 2604.49,1417.97 2633.59,1378.75 2662.28,1340.42 2690.52,1303.01 2718.35,1266.5 2745.76,1230.89 2772.74,1196.21 2799.29,1162.43 2825.42,1129.56 2851.14,1097.59 2876.41,1066.55 2901.27,1036.4 2925.69,1007.17 2949.69,978.85 2973.27,951.44 2996.41,924.94 3019.13,899.36 3041.42,874.67 3063.28,850.91 3084.72,828.07 3105.72,806.12 3126.3,785.1 3146.45,764.98 3166.16,745.79 3185.45,727.5 3204.31,710.12 3222.74,693.67 3240.74,678.13 3258.31,663.49 3275.44,649.79 3292.15,636.99 3308.42,625.1 3324.26,614.14 3335.9,606.65 3347.59,599.42 3359.34,592.41 3371.13,585.65 3382.98,579.13 3394.88,572.85 3406.83,566.81 3418.84,561.01 3430.89,555.46 3443.01,550.14 3455.16,545.06 3467.37,540.22 3479.64,535.62 3491.96,531.26 3504.32,527.13 3516.74,523.25 3529.21,519.6 3541.73,516.18 3554.3,513.01 3566.93,510.07 3579.61,507.36 3592.34,504.9 3605.11,502.68 3617.95,500.68 3630.84,498.92 3643.78,497.4 3656.77,496.11 3669.8,495.06 3682.9,494.24 3696.04,493.66 3709.23,493.31 3722.48,493.19 3743.53,493.43 3764.37,494.14 3784.98,495.33 3805.39,497 3825.56,499.12 3845.53,501.74 3865.29,504.82 3884.82,508.38 3904.15,512.41 3923.25,516.91 3942.13,521.89 3960.81,527.34 3979.26,533.26 3997.5,539.65 4015.52,546.52 4033.33,553.85 4050.92,561.66 4068.3,569.94 4085.45,578.68 4102.4,587.9 4119.13,597.59 4135.63,607.74 4151.93,618.37 4168.01,629.46 4183.88,641.02 4199.52,653.07 4214.95,665.56 4230.16,678.53 4245.16,691.97 4259.94,705.88 4274.5,720.24 4288.85,735.08 4302.87,750.5 4316.44,766.33 4329.56,782.58 4342.23,799.24 4354.45,816.32 4366.23,833.82 4377.56,851.73 4388.44,870.06 4398.87,888.81 4408.85,907.97 4418.4,927.56 4427.49,947.55 4436.13,967.97 4444.34,988.8 4452.09,1010.05 4459.39,1031.72 4466.26,1053.82 4472.68,1076.33 4478.65,1099.26 4484.19,1122.61 4489.27,1146.38 4493.91,1170.57 4498.12,1195.18 4501.87,1220.21 4505.19,1245.68 4508.06,1271.54 4510.49,1297.84 4512.47,1324.57 4514.01,1351.71 4515.11,1379.27 4515.78,1407.26 4516,1435.67 4515.78,1463 4515.14,1489.93 4514.05,1516.47 4512.54,1542.63 4510.59,1568.4 4508.21,1593.78 4505.4,1618.77 4502.15,1643.38 4498.47,1667.6 4494.35,1691.44 4489.8,1714.89 4484.81,1737.95 4479.39,1760.62 4473.53,1782.91 4467.24,1804.82 4460.51,1826.34 4453.34,1847.48 4445.74,1868.23 4437.7,1888.6 4429.22,1908.58 4420.3,1928.18 4410.95,1947.4 4401.15,1966.24 4390.93,1984.69 4380.26,2002.76 4369.15,2020.45 4357.61,2037.76 4345.63,2054.68 4333.2,2071.22 4320.33,2087.39 4307.02,2103.16 4293.28,2118.57 4279.22,2133.41 4264.94,2147.77 4250.45,2161.68 4235.75,2175.12 4220.85,2188.09 4205.75,2200.58 4190.44,2212.63 4174.92,2224.19 4159.19,2235.28 4143.25,2245.91 4127.1,2256.06 4110.76,2265.75 4094.2,2274.97 "/>
   <polygon class="fil78" points="2010.1,1422.4 2133.76,1745.17 2116.61,1723.95 2099.66,1703.22 2082.93,1682.96 1946.56,1344.64 1967.47,1369.96 1988.65,1395.87 "/>
   <polygon class="fil79" points="1946.56,1344.64 2082.93,1682.96 2066.4,1663.2 2050.09,1643.92 2033.97,1625.11 1885.36,1272.32 1905.5,1295.83 1925.89,1319.93 "/>
   <polygon class="fil80" points="1885.36,1272.32 2033.97,1625.11 2018.07,1606.8 2002.38,1588.96 1986.9,1571.6 1971.64,1554.73 1807.45,1184.35 1826.52,1205.44 1845.87,1227.13 1865.48,1249.43 "/>
   <polygon class="fil81" points="1807.45,1184.35 1971.64,1554.73 1956.58,1538.35 1941.74,1522.43 1927.11,1507.01 1912.7,1492.05 1733.76,1106 1751.79,1124.69 1770.07,1143.97 1788.62,1163.86 "/>
   <polygon class="fil82" points="1733.76,1106 1912.7,1492.05 1898.49,1477.59 1884.5,1463.61 1870.72,1450.1 1857.16,1437.07 1664.34,1037.28 1681.3,1053.56 1698.52,1070.45 1716,1087.93 "/>
   <polygon class="fil83" points="1664.34,1037.28 1857.16,1437.07 1843.81,1424.54 1830.68,1412.47 1817.77,1400.88 1805.07,1389.79 1792.59,1379.15 1583.64,964.88 1599.23,978.17 1615.1,992.04 1631.25,1006.52 1647.67,1021.6 "/>
   <polygon class="fil84" points="1583.64,964.88 1792.59,1379.15 1780.33,1369.01 1768.28,1359.34 1756.46,1350.15 1744.84,1341.45 1733.45,1333.22 1722.28,1325.46 1495.75,897.75 1509.72,907.45 1523.95,917.74 1538.47,928.63 1553.25,940.11 1568.31,952.2 "/>
   <polygon class="fil85" points="1495.75,897.75 1722.28,1325.46 1711.34,1318.19 1700.6,1311.38 1690.1,1305.05 1679.72,1299.06 1669.35,1293.26 1659.02,1287.64 1648.73,1282.22 1403.81,843.71 1416.67,850.49 1429.59,857.51 1442.54,864.77 1455.52,872.26 1468.65,880.16 1482.07,888.66 "/>
   <polygon class="fil86" points="1403.81,843.71 1648.73,1282.22 1638.45,1276.97 1628.21,1271.91 1617.99,1267.06 1607.8,1262.37 1597.64,1257.89 1587.5,1253.58 1577.4,1249.47 1567.31,1245.54 1302.03,797.87 1314.64,802.77 1327.27,807.91 1339.94,813.3 1352.64,818.91 1365.38,824.75 1378.15,830.83 1390.96,837.16 "/>
   <polygon class="fil87" points="1302.03,797.87 1567.31,1245.54 1557.27,1241.81 1547.23,1238.26 1537.24,1234.91 1527.27,1231.75 1517.32,1228.78 1507.42,1225.99 1497.52,1223.4 1487.66,1220.99 1477.83,1218.78 1190.19,764.41 1202.48,767.18 1214.8,770.18 1227.17,773.42 1239.56,776.9 1251.98,780.62 1264.44,784.58 1276.94,788.77 1289.47,793.2 "/>
   <polygon class="fil88" points="1190.19,764.41 1477.83,1218.78 1468.04,1216.76 1458.26,1214.93 1448.51,1213.29 1438.79,1211.85 1429.1,1210.59 1419.44,1209.53 1409.79,1208.66 1400.18,1207.98 1390.6,1207.5 1081.14,750.31 1093.13,750.92 1105.13,751.77 1117.19,752.85 1129.27,754.17 1141.38,755.75 1153.53,757.55 1165.72,759.6 1177.94,761.88 "/>
   <polygon class="fil89" points="1081.14,750.31 1390.6,1207.5 1381.05,1207.21 1371.52,1207.12 1358.98,1207.25 1346.58,1207.67 1334.3,1208.36 1322.18,1209.32 1310.19,1210.56 1298.32,1212.08 965.81,756.04 980.62,754.15 995.62,752.59 1010.77,751.38 1026.12,750.52 1041.62,750 1057.3,749.83 1069.21,749.95 "/>
   <polygon class="fil90" points="965.81,756.04 1298.32,1212.08 1286.6,1213.88 1275.03,1215.94 1263.57,1218.29 1252.26,1220.9 1241.06,1223.8 1230.01,1226.97 1219.11,1230.4 1208.32,1234.11 853.29,783.58 866.77,778.94 880.42,774.64 894.23,770.69 908.21,767.06 922.36,763.8 936.67,760.87 951.16,758.28 "/>
   <polygon class="fil91" points="853.29,783.58 1208.32,1234.11 1197.67,1238.11 1187.15,1242.36 1176.77,1246.9 1166.51,1251.7 1156.38,1256.77 1146.38,1262.13 1136.51,1267.76 1126.78,1273.66 751.36,833.01 763.54,825.64 775.87,818.61 788.37,811.91 801.03,805.57 813.85,799.56 826.83,793.89 839.98,788.56 "/>
   <polygon class="fil92" points="751.36,833.01 1126.78,1273.66 1117.16,1279.83 1107.69,1286.27 1098.33,1292.97 1089.11,1299.96 1080.01,1307.21 1071.04,1314.73 1062.2,1322.53 1053.48,1330.59 659.74,904.18 670.64,894.09 681.69,884.35 692.91,874.95 704.28,865.88 715.81,857.15 727.5,848.77 739.36,840.72 "/>
   <polygon class="fil93" points="659.74,904.18 1053.48,1330.59 1044.88,1338.92 1036.41,1347.52 1028.23,1356.37 1020.33,1365.44 1012.67,1374.71 1005.27,1384.19 998.13,1393.89 590.56,983.3 599.49,971.17 608.74,959.32 618.3,947.73 628.19,936.41 638.41,925.34 648.99,914.59 "/>
   <polygon class="fil94" points="590.56,983.3 998.13,1393.89 991.24,1403.8 984.62,1413.92 978.24,1424.25 972.13,1434.81 966.27,1445.56 960.68,1456.53 955.33,1467.7 537.06,1075.57 543.74,1061.6 550.73,1047.89 558.06,1034.45 565.71,1021.26 573.67,1008.34 581.95,995.69 "/>
   <polygon class="fil95" points="537.06,1075.57 955.33,1467.7 950.26,1479.09 945.43,1490.69 940.87,1502.48 936.57,1514.49 932.51,1526.71 928.73,1539.13 925.19,1551.76 499.39,1180.64 503.8,1164.85 508.54,1149.32 513.6,1134.05 518.98,1119.04 524.69,1104.29 530.71,1089.8 "/>
   <polygon class="fil96" points="499.39,1180.64 925.19,1551.76 921.94,1564.61 918.93,1577.64 916.17,1590.88 913.69,1604.34 911.46,1617.99 909.5,1631.86 479.78,1280.75 482.23,1263.44 485,1246.36 488.11,1229.54 491.55,1212.99 495.31,1196.69 "/>
   <polygon class="fil97" points="479.78,1280.75 909.5,1631.86 907.8,1645.92 906.36,1660.19 905.17,1674.66 904.25,1689.32 903.61,1704.2 903.21,1719.27 471.91,1390.03 472.4,1371.19 473.21,1352.59 474.36,1334.26 475.84,1316.16 477.65,1298.33 "/>
   <polygon class="fil98" points="471.91,1390.03 903.21,1719.27 903.08,1734.55 903.21,1749.71 903.62,1764.68 904.29,1779.45 905.24,1794.02 906.45,1808.39 475.96,1501.41 474.44,1483.46 473.26,1465.25 472.41,1446.78 471.91,1428.08 471.74,1409.12 "/>
   <polygon class="fil99" points="475.96,1501.41 906.45,1808.39 907.93,1822.56 909.69,1836.54 911.73,1850.32 914.02,1863.9 916.59,1877.29 919.44,1890.49 492.19,1604.05 488.64,1587.55 485.42,1570.81 482.55,1553.83 480.02,1536.61 477.82,1519.14 "/>
   <polygon class="fil100" points="492.19,1604.05 919.44,1890.49 922.56,1903.49 925.95,1916.31 929.59,1928.91 933.53,1941.34 937.74,1953.57 942.22,1965.63 946.97,1977.48 526.61,1712.78 520.67,1697.97 515.07,1682.91 509.81,1667.61 504.89,1652.08 500.32,1636.32 496.09,1620.3 "/>
   <polygon class="fil101" points="526.61,1712.78 946.97,1977.48 951.99,1989.15 957.29,2000.63 962.86,2011.92 968.71,2023.02 974.84,2033.94 981.23,2044.67 987.91,2055.23 577.77,1809.97 569.44,1796.77 561.44,1783.37 553.78,1769.71 546.48,1755.84 539.52,1741.73 532.89,1727.37 "/>
   <polygon class="fil102" points="577.77,1809.97 987.91,2055.23 994.84,2065.59 1002.07,2075.76 1009.57,2085.76 1017.34,2095.58 1025.39,2105.22 1033.71,2114.67 1042.31,2123.94 645.79,1895.86 635.03,1884.27 624.63,1872.45 614.57,1860.41 604.85,1848.14 595.48,1835.64 586.46,1822.92 "/>
   <polygon class="fil103" points="645.79,1895.86 1042.31,2123.94 1051,2132.87 1059.81,2141.52 1068.73,2149.88 1077.77,2157.95 1086.93,2165.75 1096.2,2173.26 1105.59,2180.49 724.89,1966.55 713.14,1957.51 701.55,1948.12 690.11,1938.37 678.81,1928.28 667.65,1917.83 656.65,1907.02 "/>
   <polygon class="fil104" points="724.89,1966.55 1105.59,2180.49 1115.11,2187.44 1124.72,2194.1 1134.48,2200.46 1144.34,2206.56 1154.32,2212.37 785.79,2006.41 773.32,1999.14 760.99,1991.52 748.8,1983.56 736.77,1975.23 "/>
   <polygon class="fil21" points="2010.1,1422.4 2133.76,1745.17 2116.61,1723.95 2099.66,1703.22 2082.93,1682.96 2066.4,1663.2 2050.09,1643.92 2033.97,1625.11 2018.07,1606.8 2002.38,1588.96 1986.9,1571.6 1971.64,1554.73 1956.58,1538.35 1941.74,1522.43 1927.11,1507.01 1912.7,1492.05 1898.49,1477.59 1884.5,1463.61 1870.72,1450.1 1857.16,1437.07 1843.81,1424.54 1830.68,1412.47 1817.77,1400.88 1805.07,1389.79 1792.59,1379.15 1780.33,1369.01 1768.28,1359.34 1756.46,1350.15 1744.84,1341.45 1733.45,1333.22 1722.28,1325.46 1711.34,1318.19 1700.6,1311.38 1690.1,1305.05 1679.72,1299.06 1669.35,1293.26 1659.02,1287.64 1648.73,1282.22 1638.45,1276.97 1628.21,1271.91 1617.99,1267.06 1607.8,1262.37 1597.64,1257.89 1587.5,1253.58 1577.4,1249.47 1567.31,1245.54 1557.27,1241.81 1547.23,1238.26 1537.24,1234.91 1527.27,1231.75 1517.32,1228.78 1507.42,1225.99 1497.52,1223.4 1487.66,1220.99 1477.83,1218.78 1468.04,1216.76 1458.26,1214.93 1448.51,1213.29 1438.79,1211.85 1429.1,1210.59 1419.44,1209.53 1409.79,1208.66 1400.18,1207.98 1390.6,1207.5 1381.05,1207.21 1371.52,1207.12 1358.98,1207.25 1346.58,1207.67 1334.3,1208.36 1322.18,1209.32 1310.19,1210.56 1298.32,1212.08 1286.6,1213.88 1275.03,1215.94 1263.57,1218.29 1252.26,1220.9 1241.06,1223.8 1230.01,1226.97 1219.11,1230.4 1208.32,1234.11 1197.67,1238.11 1187.15,1242.36 1176.77,1246.9 1166.51,1251.7 1156.38,1256.77 1146.38,1262.13 1136.51,1267.76 1126.78,1273.66 1117.16,1279.83 1107.69,1286.27 1098.33,1292.97 1089.11,1299.96 1080.01,1307.21 1071.04,1314.73 1062.2,1322.53 1053.48,1330.59 1044.88,1338.92 1036.41,1347.52 1028.23,1356.37 1020.33,1365.44 1012.67,1374.71 1005.27,1384.19 998.13,1393.89 991.24,1403.8 984.62,1413.92 978.24,1424.25 972.13,1434.81 966.27,1445.56 960.68,1456.53 955.33,1467.7 950.26,1479.09 945.43,1490.69 940.87,1502.48 936.57,1514.49 932.51,1526.71 928.73,1539.13 925.19,1551.76 921.94,1564.61 918.93,1577.64 916.17,1590.88 913.69,1604.34 911.46,1617.99 909.5,1631.86 907.8,1645.92 906.36,1660.19 905.17,1674.66 904.25,1689.32 903.61,1704.2 903.21,1719.27 903.08,1734.55 903.21,1749.71 903.62,1764.68 904.29,1779.45 905.24,1794.02 906.45,1808.39 907.93,1822.56 909.69,1836.54 911.73,1850.32 914.02,1863.9 916.59,1877.29 919.44,1890.49 922.56,1903.49 925.95,1916.31 929.59,1928.91 933.53,1941.34 937.74,1953.57 942.22,1965.63 946.97,1977.48 951.99,1989.15 957.29,2000.63 962.86,2011.92 968.71,2023.02 974.84,2033.94 981.23,2044.67 987.91,2055.23 994.84,2065.59 1002.07,2075.76 1009.57,2085.76 1017.34,2095.58 1025.39,2105.22 1033.71,2114.67 1042.31,2123.94 1051,2132.87 1059.81,2141.52 1068.73,2149.88 1077.77,2157.95 1086.93,2165.75 1096.2,2173.26 1105.59,2180.49 1115.11,2187.44 1124.72,2194.1 1134.48,2200.46 1144.34,2206.56 1154.32,2212.37 785.79,2006.41 773.32,1999.14 760.99,1991.52 748.8,1983.56 736.77,1975.23 724.89,1966.55 713.14,1957.51 701.55,1948.12 690.11,1938.37 678.81,1928.28 667.65,1917.83 656.65,1907.02 645.79,1895.86 635.03,1884.27 624.63,1872.45 614.57,1860.41 604.85,1848.14 595.48,1835.64 586.46,1822.92 577.77,1809.97 569.44,1796.77 561.44,1783.37 553.78,1769.71 546.48,1755.84 539.52,1741.73 532.89,1727.37 526.61,1712.78 520.67,1697.97 515.07,1682.91 509.81,1667.61 504.89,1652.08 500.32,1636.32 496.09,1620.3 492.19,1604.05 488.64,1587.55 485.42,1570.81 482.55,1553.83 480.02,1536.61 477.82,1519.14 475.96,1501.41 474.44,1483.46 473.26,1465.25 472.41,1446.78 471.91,1428.08 471.74,1409.12 471.91,1390.03 472.4,1371.19 473.21,1352.59 474.36,1334.26 475.84,1316.16 477.65,1298.33 479.78,1280.75 482.23,1263.44 485,1246.36 488.11,1229.54 491.55,1212.99 495.31,1196.69 499.39,1180.64 503.8,1164.85 508.54,1149.32 513.6,1134.05 518.98,1119.04 524.69,1104.29 530.71,1089.8 537.06,1075.57 543.74,1061.6 550.73,1047.89 558.06,1034.45 565.71,1021.26 573.67,1008.34 581.95,995.69 590.56,983.3 599.49,971.17 608.74,959.32 618.3,947.73 628.19,936.41 638.41,925.34 648.99,914.59 659.74,904.18 670.64,894.09 681.69,884.35 692.91,874.95 704.28,865.88 715.81,857.15 727.5,848.77 739.36,840.72 751.36,833.01 763.54,825.64 775.87,818.61 788.37,811.91 801.03,805.57 813.85,799.56 826.83,793.89 839.98,788.56 853.29,783.58 866.77,778.94 880.42,774.64 894.23,770.69 908.21,767.06 922.36,763.8 936.67,760.87 951.16,758.28 965.81,756.04 980.62,754.15 995.62,752.59 1010.77,751.38 1026.12,750.52 1041.62,750 1057.3,749.83 1069.21,749.95 1081.14,750.31 1093.13,750.92 1105.13,751.77 1117.19,752.85 1129.27,754.17 1141.38,755.75 1153.53,757.55 1165.72,759.6 1177.94,761.88 1190.19,764.41 1202.48,767.18 1214.8,770.18 1227.17,773.42 1239.56,776.9 1251.98,780.62 1264.44,784.58 1276.94,788.77 1289.47,793.2 1302.03,797.87 1314.64,802.77 1327.27,807.91 1339.94,813.3 1352.64,818.91 1365.38,824.75 1378.15,830.83 1390.96,837.16 1403.81,843.71 1416.67,850.49 1429.59,857.51 1442.54,864.77 1455.52,872.26 1468.65,880.16 1482.07,888.66 1495.75,897.75 1509.72,907.45 1523.95,917.74 1538.47,928.63 1553.25,940.11 1568.31,952.2 1583.64,964.88 1599.23,978.17 1615.1,992.04 1631.25,1006.52 1647.67,1021.6 1664.34,1037.28 1681.3,1053.56 1698.52,1070.45 1716,1087.93 1733.76,1106 1751.79,1124.69 1770.07,1143.97 1788.62,1163.86 1807.45,1184.35 1826.52,1205.44 1845.87,1227.13 1865.48,1249.43 1885.36,1272.32 1905.5,1295.83 1925.89,1319.93 1946.56,1344.64 1967.47,1369.96 1988.65,1395.87 "/>
  </g>
  <path class="fil105" d="M2308.03 1007.95c302.37,-379.07 538.35,-629.79 709.44,-750.74 230.08,-166.67 473.46,-250.74 730.09,-250.74 303.84,0 587.03,109.14 851.03,327.44 264.01,219.76 395.28,572.26 395.28,1057.51 0,340.71 -48.66,607.68 -147.48,800.9 -97.35,194.69 -250.74,351.03 -458.72,469.02 -206.49,117.99 -420.34,177 -640.11,177 -256.63,0 -500.01,-82.6 -730.09,-246.32 -171.09,-123.89 -407.07,-376.11 -709.44,-755.17 -392.33,491.16 -809.73,735.99 -1250.73,735.99 -290.57,0 -541.31,-110.61 -749.27,-330.38 -209.44,-219.76 -314.16,-492.63 -314.16,-820.06 0,-324.48 104.72,-597.35 314.16,-818.58 207.96,-221.24 458.7,-331.86 749.27,-331.86 441,0 858.4,244.83 1250.73,735.99zm296.46 410.02c252.21,389.39 482.31,656.35 690.27,799.42 132.75,95.87 281.71,143.07 445.42,143.07 219.77,0 404.13,-81.12 553.1,-241.89 148.98,-162.25 222.72,-389.39 222.72,-682.9 0,-305.31 -75.23,-538.35 -227.15,-700.59 -151.9,-160.77 -340.69,-241.89 -566.37,-241.89 -141.58,0 -274.33,39.83 -398.22,120.95 -166.68,112.09 -407.08,380.53 -719.77,803.83zm-594.39 4.43c-230.09,-286.14 -415.94,-469.02 -554.58,-550.14 -138.65,-81.12 -271.38,-122.43 -398.22,-122.43 -168.15,0 -306.8,58.99 -418.89,175.51 -110.61,116.52 -166.67,278.78 -166.67,483.78 0,203.55 57.53,364.31 174.05,486.74 115.04,120.94 255.16,181.41 420.36,181.41 290.55,0 606.19,-218.29 943.95,-654.87z"/>
 </g>
</svg>
