<?xml version="1.0" encoding="UTF-8"?>
<!DOCTYPE svg PUBLIC "-//W3C//DTD SVG 1.1//EN" "http://www.w3.org/Graphics/SVG/1.1/DTD/svg11.dtd">
<!-- Creator: CorelDRAW 2021 (64-Bit) -->
<svg xmlns="http://www.w3.org/2000/svg" xml:space="preserve" width="10.054mm" height="10.054mm" version="1.1" style="shape-rendering:geometricPrecision; text-rendering:geometricPrecision; image-rendering:optimizeQuality; fill-rule:evenodd; clip-rule:evenodd"
viewBox="0 0 1005.4 1005.4"
 xmlns:xlink="http://www.w3.org/1999/xlink"
 xmlns:xodm="http://www.corel.com/coreldraw/odm/2003">
 <defs>
  <style type="text/css">
   <![CDATA[
    .fil21 {fill:none}
    .fil105 {fill:#00CCFF;fill-rule:nonzero}
    .fil0 {fill:#ED6B28;fill-rule:nonzero}
    .fil106 {fill:#F4511E;fill-rule:nonzero}
    .fil24 {fill:url(#id0)}
    .fil71 {fill:url(#id1)}
    .fil16 {fill:url(#id2)}
    .fil60 {fill:url(#id3)}
    .fil97 {fill:url(#id4)}
    .fil79 {fill:url(#id5)}
    .fil14 {fill:url(#id6)}
    .fil31 {fill:url(#id7)}
    .fil34 {fill:url(#id8)}
    .fil2 {fill:url(#id9)}
    .fil26 {fill:url(#id10)}
    .fil4 {fill:url(#id11)}
    .fil91 {fill:url(#id12)}
    .fil63 {fill:url(#id13)}
    .fil76 {fill:url(#id14)}
    .fil29 {fill:url(#id15)}
    .fil12 {fill:url(#id16)}
    .fil96 {fill:url(#id17)}
    .fil74 {fill:url(#id18)}
    .fil67 {fill:url(#id19)}
    .fil25 {fill:url(#id20)}
    .fil100 {fill:url(#id21)}
    .fil92 {fill:url(#id22)}
    .fil19 {fill:url(#id23)}
    .fil9 {fill:url(#id24)}
    .fil64 {fill:url(#id25)}
    .fil95 {fill:url(#id26)}
    .fil69 {fill:url(#id27)}
    .fil33 {fill:url(#id28)}
    .fil30 {fill:url(#id29)}
    .fil8 {fill:url(#id30)}
    .fil41 {fill:url(#id31)}
    .fil17 {fill:url(#id32)}
    .fil13 {fill:url(#id33)}
    .fil43 {fill:url(#id34)}
    .fil98 {fill:url(#id35)}
    .fil104 {fill:url(#id36)}
    .fil49 {fill:url(#id37)}
    .fil78 {fill:url(#id38)}
    .fil70 {fill:url(#id39)}
    .fil1 {fill:url(#id40)}
    .fil7 {fill:url(#id41)}
    .fil20 {fill:url(#id42)}
    .fil58 {fill:url(#id43)}
    .fil73 {fill:url(#id44)}
    .fil101 {fill:url(#id45)}
    .fil37 {fill:url(#id46)}
    .fil35 {fill:url(#id47)}
    .fil42 {fill:url(#id48)}
    .fil83 {fill:url(#id49)}
    .fil6 {fill:url(#id50)}
    .fil45 {fill:url(#id51)}
    .fil44 {fill:url(#id52)}
    .fil88 {fill:url(#id53)}
    .fil90 {fill:url(#id54)}
    .fil55 {fill:url(#id55)}
    .fil77 {fill:url(#id56)}
    .fil48 {fill:url(#id57)}
    .fil38 {fill:url(#id58)}
    .fil89 {fill:url(#id59)}
    .fil82 {fill:url(#id60)}
    .fil59 {fill:url(#id61)}
    .fil102 {fill:url(#id62)}
    .fil53 {fill:url(#id63)}
    .fil5 {fill:url(#id64)}
    .fil87 {fill:url(#id65)}
    .fil15 {fill:url(#id66)}
    .fil99 {fill:url(#id67)}
    .fil36 {fill:url(#id68)}
    .fil47 {fill:url(#id69)}
    .fil52 {fill:url(#id70)}
    .fil84 {fill:url(#id71)}
    .fil18 {fill:url(#id72)}
    .fil50 {fill:url(#id73)}
    .fil86 {fill:url(#id74)}
    .fil66 {fill:url(#id75)}
    .fil46 {fill:url(#id76)}
    .fil27 {fill:url(#id77)}
    .fil51 {fill:url(#id78)}
    .fil65 {fill:url(#id79)}
    .fil11 {fill:url(#id80)}
    .fil94 {fill:url(#id81)}
    .fil61 {fill:url(#id82)}
    .fil57 {fill:url(#id83)}
    .fil93 {fill:url(#id84)}
    .fil81 {fill:url(#id85)}
    .fil85 {fill:url(#id86)}
    .fil72 {fill:url(#id87)}
    .fil3 {fill:url(#id88)}
    .fil28 {fill:url(#id89)}
    .fil62 {fill:url(#id90)}
    .fil23 {fill:url(#id91)}
    .fil75 {fill:url(#id92)}
    .fil39 {fill:url(#id93)}
    .fil10 {fill:url(#id94)}
    .fil68 {fill:url(#id95)}
    .fil40 {fill:url(#id96)}
    .fil32 {fill:url(#id97)}
    .fil103 {fill:url(#id98)}
    .fil54 {fill:url(#id99)}
    .fil22 {fill:url(#id100)}
    .fil56 {fill:url(#id101)}
    .fil80 {fill:url(#id102)}
   ]]>
  </style>
  <linearGradient id="id0" gradientUnits="userSpaceOnUse" x1="-6199.19" y1="133.16" x2="-6077.81" y2="319">
   <stop offset="0" style="stop-opacity:1; stop-color:#049CC2"/>
   <stop offset="1" style="stop-opacity:1; stop-color:#04546E"/>
  </linearGradient>
  <linearGradient id="id1" gradientUnits="userSpaceOnUse" xlink:href="#id0" x1="-5425.61" y1="-907.31" x2="-5326.92" y2="-589.09">
  </linearGradient>
  <linearGradient id="id2" gradientUnits="userSpaceOnUse" xlink:href="#id0" x1="-5714.63" y1="224.37" x2="-5775.4" y2="392.08">
  </linearGradient>
  <linearGradient id="id3" gradientUnits="userSpaceOnUse" xlink:href="#id0" x1="-4400.08" y1="-1386.39" x2="-4517.49" y2="-880.69">
  </linearGradient>
  <linearGradient id="id4" gradientUnits="userSpaceOnUse" xlink:href="#id0" x1="-7835.12" y1="-432.9" x2="-7398.65" y2="-401.4">
  </linearGradient>
  <linearGradient id="id5" gradientUnits="userSpaceOnUse" xlink:href="#id0" x1="-6248.04" y1="-572.15" x2="-6398.85" y2="-306.89">
  </linearGradient>
  <linearGradient id="id6" gradientUnits="userSpaceOnUse" xlink:href="#id0" x1="-5583.68" y1="378.06" x2="-5638.35" y2="522.96">
  </linearGradient>
  <linearGradient id="id7" gradientUnits="userSpaceOnUse" xlink:href="#id0" x1="-6683.94" y1="522.19" x2="-6564.23" y2="658.45">
  </linearGradient>
  <linearGradient id="id8" gradientUnits="userSpaceOnUse" xlink:href="#id0" x1="-6879.69" y1="611.5" x2="-6800.07" y2="725.96">
  </linearGradient>
  <linearGradient id="id9" gradientUnits="userSpaceOnUse" xlink:href="#id0" x1="-4627.52" y1="916.88" x2="-4613.79" y2="960.75">
  </linearGradient>
  <linearGradient id="id10" gradientUnits="userSpaceOnUse" xlink:href="#id0" x1="-6340.22" y1="269.86" x2="-6209.07" y2="442.3">
  </linearGradient>
  <linearGradient id="id11" gradientUnits="userSpaceOnUse" xlink:href="#id0" x1="-4803.88" y1="897.37" x2="-4848.7" y2="955.59">
  </linearGradient>
  <linearGradient id="id12" gradientUnits="userSpaceOnUse" xlink:href="#id0" x1="-7427.44" y1="-1109.03" x2="-7228.06" y2="-668.06">
  </linearGradient>
  <linearGradient id="id13" gradientUnits="userSpaceOnUse" xlink:href="#id0" x1="-4768.47" y1="-1422.58" x2="-4737.92" y2="-907.25">
  </linearGradient>
  <linearGradient id="id14" gradientUnits="userSpaceOnUse" xlink:href="#id0" x1="-5669.22" y1="-532.89" x2="-5622.88" y2="-288.17">
  </linearGradient>
  <linearGradient id="id15" gradientUnits="userSpaceOnUse" xlink:href="#id0" x1="-6548.59" y1="436.63" x2="-6416.93" y2="587.7">
  </linearGradient>
  <linearGradient id="id16" gradientUnits="userSpaceOnUse" xlink:href="#id0" x1="-5447.98" y1="507.81" x2="-5526.53" y2="643.75">
  </linearGradient>
  <linearGradient id="id17" gradientUnits="userSpaceOnUse" xlink:href="#id0" x1="-7823.66" y1="-554.29" x2="-7386.55" y2="-467.54">
  </linearGradient>
  <linearGradient id="id18" gradientUnits="userSpaceOnUse" xlink:href="#id0" x1="-5577.12" y1="-672.25" x2="-5516.47" y2="-407.68">
  </linearGradient>
  <linearGradient id="id19" gradientUnits="userSpaceOnUse" xlink:href="#id0" x1="-5181.9" y1="-1217.86" x2="-5052" y2="-804.12">
  </linearGradient>
  <linearGradient id="id20" gradientUnits="userSpaceOnUse" xlink:href="#id0" x1="-6269.83" y1="204.05" x2="-6142.79" y2="383.29">
  </linearGradient>
  <linearGradient id="id21" gradientUnits="userSpaceOnUse" xlink:href="#id0" x1="-7804.8" y1="-70.05" x2="-7371.22" y2="-182.74">
  </linearGradient>
  <linearGradient id="id22" gradientUnits="userSpaceOnUse" xlink:href="#id0" x1="-7557.58" y1="-1031.84" x2="-7271.08" y2="-638.89">
  </linearGradient>
  <linearGradient id="id23" gradientUnits="userSpaceOnUse" xlink:href="#id0" x1="-5858.11" y1="40.63" x2="-5932.79" y2="217.18">
  </linearGradient>
  <linearGradient id="id24" gradientUnits="userSpaceOnUse" xlink:href="#id0" x1="-5220.4" y1="700.22" x2="-5311.54" y2="810.1">
  </linearGradient>
  <linearGradient id="id25" gradientUnits="userSpaceOnUse" xlink:href="#id0" x1="-4893.93" y1="-1402.92" x2="-4819.51" y2="-890.75">
  </linearGradient>
  <linearGradient id="id26" gradientUnits="userSpaceOnUse" xlink:href="#id0" x1="-7794.82" y1="-683.85" x2="-7365.64" y2="-523.14">
  </linearGradient>
  <linearGradient id="id27" gradientUnits="userSpaceOnUse" xlink:href="#id0" x1="-5310.45" y1="-1054.52" x2="-5202.12" y2="-706.73">
  </linearGradient>
  <linearGradient id="id28" gradientUnits="userSpaceOnUse" xlink:href="#id0" x1="-6815.46" y1="586.99" x2="-6719.41" y2="708.55">
  </linearGradient>
  <linearGradient id="id29" gradientUnits="userSpaceOnUse" xlink:href="#id0" x1="-6616.71" y1="481.99" x2="-6489.63" y2="625.67">
  </linearGradient>
  <linearGradient id="id30" gradientUnits="userSpaceOnUse" xlink:href="#id0" x1="-5141.97" y1="752.52" x2="-5231.72" y2="851.93">
  </linearGradient>
  <linearGradient id="id31" gradientUnits="userSpaceOnUse" xlink:href="#id0" x1="-4225.4" y1="501.67" x2="-4427.22" y2="322.42">
  </linearGradient>
  <linearGradient id="id32" gradientUnits="userSpaceOnUse" xlink:href="#id0" x1="-5772.57" y1="163.56" x2="-5827.92" y2="323.92">
  </linearGradient>
  <linearGradient id="id33" gradientUnits="userSpaceOnUse" xlink:href="#id0" x1="-5522.08" y1="445.3" x2="-5582.73" y2="579.86">
  </linearGradient>
  <linearGradient id="id34" gradientUnits="userSpaceOnUse" xlink:href="#id0" x1="-4024.56" y1="365.79" x2="-4319.79" y2="196.57">
  </linearGradient>
  <linearGradient id="id35" gradientUnits="userSpaceOnUse" xlink:href="#id0" x1="-7835.7" y1="-310.35" x2="-7401.28" y2="-325.56">
  </linearGradient>
  <linearGradient id="id36" gradientUnits="userSpaceOnUse" xlink:href="#id0" x1="-7485.56" y1="275.15" x2="-7250.41" y2="69.46">
  </linearGradient>
  <linearGradient id="id37" gradientUnits="userSpaceOnUse" xlink:href="#id0" x1="-3792.04" y1="-244.87" x2="-4173.2" y2="-264.49">
  </linearGradient>
  <linearGradient id="id38" gradientUnits="userSpaceOnUse" xlink:href="#id0" x1="-6194.95" y1="-498.97" x2="-6339.91" y2="-245.54">
  </linearGradient>
  <linearGradient id="id39" gradientUnits="userSpaceOnUse" xlink:href="#id0" x1="-5366.66" y1="-984.45" x2="-5262.42" y2="-651.76">
  </linearGradient>
  <linearGradient id="id40" gradientUnits="userSpaceOnUse" xlink:href="#id0" x1="-4550.67" y1="904.11" x2="-4506.9" y2="957.09">
  </linearGradient>
  <linearGradient id="id41" gradientUnits="userSpaceOnUse" xlink:href="#id0" x1="-5064.11" y1="798.02" x2="-5149.13" y2="886.83">
  </linearGradient>
  <linearGradient id="id42" gradientUnits="userSpaceOnUse" xlink:href="#id0" x1="-5902.74" y1="-25.1" x2="-5987.57" y2="160.03">
  </linearGradient>
  <linearGradient id="id43" gradientUnits="userSpaceOnUse" xlink:href="#id0" x1="-4156.74" y1="-1255.31" x2="-4394.1" y2="-821.2">
  </linearGradient>
  <linearGradient id="id44" gradientUnits="userSpaceOnUse" xlink:href="#id0" x1="-5533.06" y1="-737.04" x2="-5465.87" y2="-462.49">
  </linearGradient>
  <linearGradient id="id45" gradientUnits="userSpaceOnUse" xlink:href="#id0" x1="-7754.42" y1="46.61" x2="-7346.24" y2="-112.92">
  </linearGradient>
  <linearGradient id="id46" gradientUnits="userSpaceOnUse" xlink:href="#id0" x1="-7078.52" y1="652.82" x2="-7069.05" y2="748.35">
  </linearGradient>
  <linearGradient id="id47" gradientUnits="userSpaceOnUse" xlink:href="#id0" x1="-6942.94" y1="630.68" x2="-6882.72" y2="738.35">
  </linearGradient>
  <linearGradient id="id48" gradientUnits="userSpaceOnUse" xlink:href="#id0" x1="-4113.1" y1="441.06" x2="-4371.53" y2="258.99">
  </linearGradient>
  <linearGradient id="id49" gradientUnits="userSpaceOnUse" xlink:href="#id0" x1="-6495.86" y1="-891.92" x2="-6678.52" y2="-540.45">
  </linearGradient>
  <linearGradient id="id50" gradientUnits="userSpaceOnUse" xlink:href="#id0" x1="-4986.94" y1="836.59" x2="-5063.57" y2="914.87">
  </linearGradient>
  <linearGradient id="id51" gradientUnits="userSpaceOnUse" xlink:href="#id0" x1="-3890.02" y1="191.7" x2="-4249.03" y2="57.59">
  </linearGradient>
  <linearGradient id="id52" gradientUnits="userSpaceOnUse" xlink:href="#id0" x1="-3950.18" y1="284.87" x2="-4281.83" y2="129.73">
  </linearGradient>
  <linearGradient id="id53" gradientUnits="userSpaceOnUse" xlink:href="#id0" x1="-7002.67" y1="-1164.92" x2="-7053.54" y2="-700.32">
  </linearGradient>
  <linearGradient id="id54" gradientUnits="userSpaceOnUse" xlink:href="#id0" x1="-7284.69" y1="-1154.27" x2="-7178.87" y2="-689.9">
  </linearGradient>
  <linearGradient id="id55" gradientUnits="userSpaceOnUse" xlink:href="#id0" x1="-3914.41" y1="-950.94" x2="-4263.7" y2="-700.27">
  </linearGradient>
  <linearGradient id="id56" gradientUnits="userSpaceOnUse" xlink:href="#id0" x1="-5700.24" y1="-465.07" x2="-5676.87" y2="-248.88">
  </linearGradient>
  <linearGradient id="id57" gradientUnits="userSpaceOnUse" xlink:href="#id0" x1="-3798.42" y1="-139.67" x2="-4181.7" y2="-184.92">
  </linearGradient>
  <linearGradient id="id58" gradientUnits="userSpaceOnUse" xlink:href="#id0" x1="-7155.12" y1="647.72" x2="-7186.22" y2="747.97">
  </linearGradient>
  <linearGradient id="id59" gradientUnits="userSpaceOnUse" xlink:href="#id0" x1="-7139.92" y1="-1167.05" x2="-7118.85" y2="-705.36">
  </linearGradient>
  <linearGradient id="id60" gradientUnits="userSpaceOnUse" xlink:href="#id0" x1="-6431.71" y1="-814.1" x2="-6606.43" y2="-490.89">
  </linearGradient>
  <linearGradient id="id61" gradientUnits="userSpaceOnUse" xlink:href="#id0" x1="-4274.28" y1="-1332.22" x2="-4452.92" y2="-854.81">
  </linearGradient>
  <linearGradient id="id62" gradientUnits="userSpaceOnUse" xlink:href="#id0" x1="-7679.64" y1="147.24" x2="-7315.45" y2="-47.66">
  </linearGradient>
  <linearGradient id="id63" gradientUnits="userSpaceOnUse" xlink:href="#id0" x1="-3824.72" y1="-701.23" x2="-4207.99" y2="-577.02">
  </linearGradient>
  <linearGradient id="id64" gradientUnits="userSpaceOnUse" xlink:href="#id0" x1="-4897.2" y1="868.09" x2="-4965.11" y2="940.23">
  </linearGradient>
  <linearGradient id="id65" gradientUnits="userSpaceOnUse" xlink:href="#id0" x1="-6874.79" y1="-1142.66" x2="-6982.89" y2="-681.71">
  </linearGradient>
  <linearGradient id="id66" gradientUnits="userSpaceOnUse" xlink:href="#id0" x1="-5649.7" y1="304.42" x2="-5702.22" y2="460.37">
  </linearGradient>
  <linearGradient id="id67" gradientUnits="userSpaceOnUse" xlink:href="#id0" x1="-7828.91" y1="-190.83" x2="-7390.87" y2="-251.59">
  </linearGradient>
  <linearGradient id="id68" gradientUnits="userSpaceOnUse" xlink:href="#id0" x1="-7005.27" y1="644.48" x2="-6967.27" y2="745.79">
  </linearGradient>
  <linearGradient id="id69" gradientUnits="userSpaceOnUse" xlink:href="#id0" x1="-3813.57" y1="-27.89" x2="-4198.63" y2="-105.24">
  </linearGradient>
  <linearGradient id="id70" gradientUnits="userSpaceOnUse" xlink:href="#id0" x1="-3804.85" y1="-578.28" x2="-4188.05" y2="-505.88">
  </linearGradient>
  <linearGradient id="id71" gradientUnits="userSpaceOnUse" xlink:href="#id0" x1="-6573.33" y1="-969.99" x2="-6753.51" y2="-587.42">
  </linearGradient>
  <linearGradient id="id72" gradientUnits="userSpaceOnUse" xlink:href="#id0" x1="-5814.72" y1="103.5" x2="-5879.57" y2="271.83">
  </linearGradient>
  <linearGradient id="id73" gradientUnits="userSpaceOnUse" xlink:href="#id0" x1="-3791.62" y1="-355.87" x2="-4170.67" y2="-349.09">
  </linearGradient>
  <linearGradient id="id74" gradientUnits="userSpaceOnUse" xlink:href="#id0" x1="-6761.02" y1="-1097.93" x2="-6903.4" y2="-656.3">
  </linearGradient>
  <linearGradient id="id75" gradientUnits="userSpaceOnUse" xlink:href="#id0" x1="-5096.46" y1="-1295.93" x2="-4976.34" y2="-842.41">
  </linearGradient>
  <linearGradient id="id76" gradientUnits="userSpaceOnUse" xlink:href="#id0" x1="-3844.59" y1="87.18" x2="-4221.22" y2="-20.45">
  </linearGradient>
  <linearGradient id="id77" gradientUnits="userSpaceOnUse" xlink:href="#id0" x1="-6410.22" y1="330.55" x2="-6276.78" y2="496.02">
  </linearGradient>
  <linearGradient id="id78" gradientUnits="userSpaceOnUse" xlink:href="#id0" x1="-3794.24" y1="-468.39" x2="-4177.1" y2="-431.64">
  </linearGradient>
  <linearGradient id="id79" gradientUnits="userSpaceOnUse" xlink:href="#id0" x1="-5002.55" y1="-1357.97" x2="-4900.93" y2="-870.18">
  </linearGradient>
  <linearGradient id="id80" gradientUnits="userSpaceOnUse" xlink:href="#id0" x1="-5378.21" y1="578.31" x2="-5459.45" y2="701.33">
  </linearGradient>
  <linearGradient id="id81" gradientUnits="userSpaceOnUse" xlink:href="#id0" x1="-7739.43" y1="-813.14" x2="-7340.55" y2="-570.18">
  </linearGradient>
  <linearGradient id="id82" gradientUnits="userSpaceOnUse" xlink:href="#id0" x1="-4522.71" y1="-1413.82" x2="-4583.09" y2="-900.6">
  </linearGradient>
  <linearGradient id="id83" gradientUnits="userSpaceOnUse" xlink:href="#id0" x1="-4062.99" y1="-1162.1" x2="-4339.5" y2="-786.05">
  </linearGradient>
  <linearGradient id="id84" gradientUnits="userSpaceOnUse" xlink:href="#id0" x1="-7659.82" y1="-929.3" x2="-7311.33" y2="-606.95">
  </linearGradient>
  <linearGradient id="id85" gradientUnits="userSpaceOnUse" xlink:href="#id0" x1="-6368.25" y1="-740.5" x2="-6541.53" y2="-433.08">
  </linearGradient>
  <linearGradient id="id86" gradientUnits="userSpaceOnUse" xlink:href="#id0" x1="-6663.85" y1="-1040.23" x2="-6825.24" y2="-624.92">
  </linearGradient>
  <linearGradient id="id87" gradientUnits="userSpaceOnUse" xlink:href="#id0" x1="-5487.4" y1="-823" x2="-5395.5" y2="-518.82">
  </linearGradient>
  <linearGradient id="id88" gradientUnits="userSpaceOnUse" xlink:href="#id0" x1="-4711.6" y1="915.17" x2="-4727.74" y2="960.74">
  </linearGradient>
  <linearGradient id="id89" gradientUnits="userSpaceOnUse" xlink:href="#id0" x1="-6479.72" y1="386.15" x2="-6346.02" y2="544.48">
  </linearGradient>
  <linearGradient id="id90" gradientUnits="userSpaceOnUse" xlink:href="#id0" x1="-4639.98" y1="-1423.65" x2="-4656.57" y2="-910.93">
  </linearGradient>
  <linearGradient id="id91" gradientUnits="userSpaceOnUse" xlink:href="#id0" x1="-6128.4" y1="57.16" x2="-6014.02" y2="249.43">
  </linearGradient>
  <linearGradient id="id92" gradientUnits="userSpaceOnUse" xlink:href="#id0" x1="-5622.52" y1="-604.21" x2="-5568.8" y2="-349.56">
  </linearGradient>
  <linearGradient id="id93" gradientUnits="userSpaceOnUse" xlink:href="#id0" x1="-7225.69" y1="630.33" x2="-7302.94" y2="741.03">
  </linearGradient>
  <linearGradient id="id94" gradientUnits="userSpaceOnUse" xlink:href="#id0" x1="-5298.72" y1="638.05" x2="-5391.48" y2="760.13">
  </linearGradient>
  <linearGradient id="id95" gradientUnits="userSpaceOnUse" xlink:href="#id0" x1="-5253.6" y1="-1133.77" x2="-5130.55" y2="-755.09">
  </linearGradient>
  <linearGradient id="id96" gradientUnits="userSpaceOnUse" xlink:href="#id0" x1="-7271.63" y1="624.83" x2="-7363.9" y2="725.88">
  </linearGradient>
  <linearGradient id="id97" gradientUnits="userSpaceOnUse" xlink:href="#id0" x1="-6750.22" y1="557.21" x2="-6640.79" y2="686.06">
  </linearGradient>
  <linearGradient id="id98" gradientUnits="userSpaceOnUse" xlink:href="#id0" x1="-7585.1" y1="227.13" x2="-7278.7" y2="14.9">
  </linearGradient>
  <linearGradient id="id99" gradientUnits="userSpaceOnUse" xlink:href="#id0" x1="-3862.05" y1="-829.55" x2="-4233.32" y2="-644.58">
  </linearGradient>
  <linearGradient id="id100" gradientUnits="userSpaceOnUse" xlink:href="#id0" x1="-6057.57" y1="-23.93" x2="-5951.33" y2="174.55">
  </linearGradient>
  <linearGradient id="id101" gradientUnits="userSpaceOnUse" xlink:href="#id0" x1="-3981.98" y1="-1063.29" x2="-4298.98" y2="-746.23">
  </linearGradient>
  <linearGradient id="id102" gradientUnits="userSpaceOnUse" xlink:href="#id0" x1="-6302.1" y1="-658.55" x2="-6471.67" y2="-366.31">
  </linearGradient>
 </defs>
 <g id="Layer_x0020_1">
  <metadata id="CorelCorpID_0Corel-Layer"/>
  <g id="_1671234167616">
   <path class="fil0" d="M-6053.5 -4941.48c12.17,0 16.73,0 22.82,0 86.7,0 177.97,0 263.16,0 114.08,0 223.6,91.27 223.6,223.61 0,126.25 0,252.51 0,372.68 0,126.25 -97.35,223.61 -223.6,223.61 -86.71,0 -171.89,0 -258.6,0 -6.08,0 -16.73,0 -22.81,0 -6.09,-6.09 0,-12.17 6.08,-16.74 16.73,-22.81 34.99,-45.63 51.72,-68.45 6.08,-12.17 12.17,-16.73 22.82,-16.73 62.36,-16.73 126.25,-39.55 184.05,-57.8 51.72,-16.74 74.54,-45.64 74.54,-97.36 0,-97.35 0,-200.79 0,-298.14 0,-51.72 -22.82,-80.62 -74.54,-97.35 -62.36,-16.74 -120.17,-39.55 -184.05,-57.81 -12.17,-6.08 -22.82,-12.17 -28.91,-22.81 -16.73,-30.43 -39.55,-57.81 -56.28,-86.71z"/>
   <path class="fil0" d="M-6351.64 -4941.48c-22.82,34.99 -45.64,62.37 -62.37,91.27 -6.08,6.08 -16.73,12.17 -22.82,12.17 -62.36,16.73 -126.25,39.55 -188.62,57.8 -45.63,12.17 -68.45,45.64 -68.45,91.27 0,103.44 0,206.87 0,310.31 0,45.64 22.82,80.62 68.45,91.27 62.37,16.73 126.26,39.55 188.62,57.8 6.09,0 12.17,6.09 16.74,12.17 22.81,28.91 45.63,62.37 68.45,97.36 -12.17,0 -16.73,0 -22.82,0 -86.7,0 -177.97,0 -263.16,0 -109.52,0 -194.7,-68.45 -217.52,-171.89 -6.09,-16.73 -6.09,-34.99 -6.09,-51.72 0,-126.26 0,-252.51 0,-372.68 0,-109.52 74.54,-194.71 184.06,-217.52 12.17,0 22.82,0 34.99,0 97.35,0 188.62,0 285.97,0 -1.52,-7.61 -1.52,-7.61 4.57,-7.61z"/>
   <path class="fil0" d="M-8139.36 -3090.9c-28.9,0 -57.8,0 -86.7,0 -12.17,0 -16.74,-6.08 -22.82,-16.73 -12.17,-51.72 -28.9,-97.35 -39.55,-142.99 -12.17,-39.55 -12.17,-39.55 -45.64,-39.55 -51.71,0 -103.43,0 -161.24,0 -22.81,0 -22.81,0 -28.9,16.74 -16.73,57.8 -28.9,109.52 -45.63,165.8 -6.09,12.17 -6.09,16.73 -22.82,16.73 -28.9,0 -51.72,0 -80.62,0 6.08,-28.9 12.17,-51.72 16.73,-74.53 57.81,-217.53 114.09,-441.13 177.98,-658.66 6.08,-12.17 12.17,-16.73 22.81,-16.73 28.91,0 57.81,0 86.71,0 22.82,0 22.82,0 28.9,16.73 34.99,126.26 68.45,252.51 103.44,378.77 28.9,109.52 57.8,223.6 86.7,333.13 4.57,4.56 10.65,10.64 10.65,21.29zm-177.97 -304.23c-28.9,-103.43 -51.72,-200.79 -86.71,-298.14 -28.9,103.44 -51.72,200.79 -80.62,298.14 59.33,0 111.05,0 167.33,0z"/>
   <path class="fil0" d="M-6671.46 -3600.48c6.09,0 12.17,-6.08 12.17,-6.08 103.44,-86.71 258.6,-28.91 281.41,103.43 0,12.17 0,16.74 0,28.9 0,74.54 0,149.08 0,223.61 0,68.45 -34.98,126.26 -97.35,155.16 -62.37,28.9 -120.17,22.82 -177.97,-16.73 -6.09,-6.09 -12.17,-12.17 -16.73,-12.17 -6.09,0 -6.09,6.08 -6.09,6.08 0,28.9 0,28.9 -28.9,28.9 -16.73,0 -39.55,0 -57.8,0 -12.17,0 -16.74,-6.08 -12.17,-16.73 0,-6.08 0,-6.08 0,-12.17 0,-235.78 0,-470.03 0,-705.81 0,-6.08 0,-12.17 0,-12.17 0,-12.17 6.08,-12.17 12.17,-12.17 22.81,0 45.63,0 74.53,0 12.17,0 16.73,6.09 16.73,16.74 0,62.36 0,126.25 0,194.7 0,13.69 0,24.34 0,36.51zm194.71 240.34c0,-28.9 0,-62.37 0,-91.27 0,-12.17 0,-16.73 0,-28.9 -12.17,-45.63 -57.8,-74.54 -103.44,-74.54 -45.63,6.09 -86.7,45.64 -86.7,97.36 0,62.36 0,126.25 0,188.62 0,57.8 45.63,97.35 97.35,97.35 57.8,0 97.35,-45.63 97.35,-103.44 -4.56,-27.38 -4.56,-56.28 -4.56,-85.18z"/>
   <path class="fil0" d="M-3775.2 -3125.88c-16.73,12.17 -34.99,28.9 -51.72,34.98 -114.08,45.64 -235.78,-34.98 -235.78,-155.15 0,-74.54 0,-149.08 0,-223.61 0,-80.62 62.37,-165.81 171.89,-171.89 39.55,0 74.54,12.17 103.44,34.99 6.09,6.08 6.09,12.16 16.73,12.16 6.09,-6.08 0,-12.16 0,-16.73 0,-68.45 0,-142.99 0,-211.44 0,-16.73 0,-16.73 16.74,-16.73 22.81,0 45.63,0 68.45,0 6.08,0 12.17,0 12.17,12.17 0,6.08 0,12.17 0,12.17 0,235.78 0,470.03 0,705.81l0 6.08c0,16.74 0,16.74 -16.74,16.74 -22.81,0 -45.63,0 -68.45,0 -12.17,0 -16.73,-6.09 -16.73,-12.17 6.08,-15.21 10.65,-21.3 0,-27.38zm6.08 -240.34c0,-28.91 0,-57.81 0,-86.71 0,-12.17 0,-22.82 -6.08,-34.99 -12.17,-45.63 -57.8,-74.53 -103.44,-68.45 -45.63,6.09 -80.62,45.64 -86.7,86.71 0,68.45 0,136.9 0,206.87 0,57.81 62.36,97.36 114.08,86.71 45.64,-12.17 74.54,-45.64 74.54,-97.35 7.6,-28.91 7.6,-57.81 7.6,-92.79z"/>
   <path class="fil0" d="M-7588.71 -3595.92c6.09,-6.08 12.17,-12.17 22.82,-16.73 57.81,-34.99 114.09,-39.55 177.98,-12.17 62.36,28.9 91.26,80.62 91.26,149.07 0,74.54 0,155.16 0,229.7 0,68.45 -34.98,120.17 -97.35,149.07 -62.37,28.9 -120.17,22.81 -177.97,-16.73 -6.09,-6.09 -12.17,-12.17 -16.74,-12.17 -6.08,0 -6.08,0 -6.08,0 0,28.9 0,28.9 -34.99,28.9 -16.73,0 -34.98,0 -51.71,0 -12.17,0 -16.74,-6.09 -16.74,-16.73 0,-6.09 0,-6.09 0,-12.17 0,-235.78 0,-470.04 0,-705.81 0,-6.09 0,-6.09 0,-12.17 0,-12.17 6.09,-16.74 16.74,-16.74 22.81,0 45.63,0 68.45,0 12.17,0 16.73,6.09 16.73,16.74 0,68.45 0,142.98 0,211.44 1.52,19.77 1.52,25.86 7.6,36.5zm-6.08 235.78c0,28.9 0,62.37 0,91.27 0,57.8 39.55,97.35 97.35,97.35 51.72,0 97.36,-39.55 97.36,-97.35 0,-62.37 0,-126.26 0,-184.06 0,-28.9 -12.17,-57.8 -34.99,-74.54 -28.9,-22.81 -68.45,-28.9 -103.44,-12.16 -34.98,16.73 -57.8,45.63 -57.8,86.7 1.52,28.9 1.52,57.8 1.52,92.79z"/>
   <path class="fil0" d="M-5570.15 -3463.58c0,51.72 0,103.44 0,149.07 0,62.37 34.99,109.53 97.35,126.26 74.54,22.82 155.16,-28.9 161.25,-109.52 0,-16.74 0,-16.74 22.81,-16.74 22.82,0 45.64,0 62.37,0 12.17,0 16.73,6.09 16.73,16.74 -6.08,91.27 -51.72,155.15 -132.34,194.7 -120.17,57.81 -258.59,0 -310.31,-120.17 -16.73,-28.9 -22.82,-51.72 -22.82,-80.62 0,-103.44 0,-211.44 0,-314.87 0,-91.27 57.81,-171.89 136.91,-206.88 86.7,-34.99 184.05,-16.73 252.51,45.63 45.63,39.55 68.45,91.27 68.45,155.16 0,12.17 0,12.17 -12.17,12.17 -22.82,0 -51.72,0 -74.54,0 -12.17,0 -16.73,-6.08 -16.73,-16.73 -6.09,-51.72 -39.55,-97.36 -91.27,-109.52 -86.7,-22.82 -165.8,34.98 -165.8,126.25 7.6,45.63 7.6,97.35 7.6,149.07z"/>
   <path class="fil0" d="M-6309.42 -3480.31c16.73,-91.27 86.7,-155.16 177.97,-161.24 103.44,-6.09 188.62,62.37 206.88,155.16 6.08,16.73 6.08,34.98 6.08,51.71 0,109.53 0,217.53 0,320.97 0,6.08 0,12.16 0,12.16 0,6.09 -6.08,12.17 -12.17,12.17 -28.9,0 -51.72,0 -80.62,0 -12.17,0 -12.17,-6.08 -12.17,-12.17 0,-6.08 0,-12.16 0,-22.81 -12.17,0 -16.73,12.17 -22.82,16.73 -86.7,62.37 -252.51,39.55 -281.41,-103.44 -28.9,-120.17 68.45,-206.87 161.24,-206.87 45.64,0 86.71,0 132.34,0 12.17,0 16.74,-6.09 16.74,-16.74 0,-16.73 0,-34.98 0,-51.71 -12.17,-39.55 -45.64,-68.46 -91.27,-74.54 -39.55,0 -80.62,22.82 -91.27,62.37 -6.09,12.17 -12.17,16.73 -22.82,16.73 -30.42,1.52 -57.8,1.52 -86.7,1.52zm217.52 136.9l0 0c-22.82,0 -39.55,0 -62.37,0 -34.98,6.09 -57.8,22.82 -68.45,57.81 -12.17,34.98 -6.08,62.36 16.73,86.7 57.81,62.37 155.16,34.99 177.98,-39.55 12.17,-28.9 6.08,-62.37 6.08,-91.27 0,-6.08 -6.08,-6.08 -12.17,-6.08 -18.25,-7.61 -34.98,-7.61 -57.8,-7.61z"/>
   <path class="fil0" d="M-6946.78 -3130.45c-28.9,22.82 -57.81,39.55 -86.71,45.64 -103.44,16.73 -184.06,-28.9 -211.44,-114.09 -39.55,-120.17 57.81,-223.61 161.24,-223.61 39.55,0 86.71,0 126.26,0 12.17,0 16.73,-6.08 16.73,-16.73 0,-10.65 0,-16.73 0,-28.9 0,-45.64 -34.98,-86.71 -80.62,-97.35 -39.55,-6.09 -91.27,16.73 -103.44,62.36 -6.08,16.74 -12.17,16.74 -28.9,16.74 -16.73,0 -39.55,0 -57.8,0 -16.73,0 -16.73,0 -12.17,-16.74 16.73,-62.36 57.8,-109.52 120.17,-132.34 126.25,-45.63 263.16,45.64 263.16,184.06 0,114.09 0,223.61 0,337.7 0,16.73 0,16.73 -16.74,16.73 -22.81,0 -39.55,0 -62.36,0 -16.73,0 -16.73,0 -22.82,-16.73 1.52,-6.09 -4.56,-6.09 -4.56,-16.74zm0 -167.32c0,-12.17 0,-22.82 0,-34.99 0,-12.17 -6.09,-12.17 -16.74,-12.17 -34.98,0 -74.53,0 -109.52,0 -39.55,0 -68.45,28.9 -80.62,62.37 -12.17,34.98 6.09,74.53 34.99,97.35 62.36,45.64 142.99,6.09 161.24,-57.8 16.73,-19.78 10.65,-36.51 10.65,-54.76z"/>
   <path class="fil0" d="M-4234.59 -3125.88c-6.08,0 -12.16,6.08 -12.16,6.08 -57.81,39.55 -114.09,51.72 -177.98,22.82 -62.36,-28.9 -97.35,-80.62 -103.44,-149.07 0,-6.09 0,-12.17 0,-16.74 0,-120.17 0,-240.34 0,-360.51 0,-22.81 0,-22.81 22.82,-22.81 22.82,0 39.55,0 62.37,0 16.73,0 16.73,0 16.73,16.73 0,16.73 0,39.55 0,57.8 0,97.35 0,200.79 0,298.15 0,45.63 22.82,80.62 62.37,91.26 62.36,22.82 132.34,-22.81 132.34,-91.26 0,-114.09 0,-229.7 0,-337.7 0,-6.08 0,-12.17 0,-16.73 0,-22.82 0,-22.82 22.81,-22.82 22.82,0 39.55,0 62.37,0 16.73,0 16.73,0 16.73,16.73 0,12.17 0,16.74 0,28.91 0,161.24 0,320.96 0,482.2 0,6.08 0,12.17 0,12.17 0,12.17 0,16.73 -16.73,16.73 -22.82,0 -45.63,0 -74.53,0 -12.17,0 -16.74,0 -16.74,-12.17 3.04,-7.6 3.04,-13.69 3.04,-19.77z"/>
   <path class="fil0" d="M-4990.59 -3366.22c0,-28.91 0,-62.37 0,-91.27 0,-97.36 80.62,-177.98 177.97,-188.62 109.52,-12.17 188.62,62.36 211.44,142.98 6.08,16.74 6.08,34.99 6.08,51.72 0,57.81 0,114.09 0,171.89 0,97.35 -74.53,184.06 -171.89,194.71 -114.08,12.17 -200.79,-62.37 -217.52,-161.24 0,-12.17 0,-16.74 0,-28.91 -6.08,-27.38 -6.08,-56.28 -6.08,-91.26zm292.06 6.08c0,-28.9 0,-57.8 0,-86.7 0,-51.72 -39.55,-91.27 -97.36,-97.36 -51.72,0 -97.35,39.55 -97.35,97.36 0,57.8 0,114.08 0,171.88 0,51.72 39.55,97.36 97.35,97.36 57.81,0 97.36,-51.72 97.36,-97.36 0,-27.38 0,-56.28 0,-85.18z"/>
   <path class="fil0" d="M-8093.72 -3469.66c0,-114.09 0,-235.78 0,-349.86 0,-6.09 0,-12.17 0,-16.74 0,-6.08 6.08,-12.17 12.16,-12.17 28.91,0 57.81,0 86.71,0 6.08,0 12.17,6.09 12.17,12.17 0,6.09 0,12.17 0,16.74 0,235.77 0,470.03 0,699.72 0,6.09 0,6.09 0,12.17 0,12.17 -6.09,16.73 -16.73,16.73 -22.82,0 -45.64,0 -68.46,0 -16.73,0 -16.73,0 -16.73,-16.73 0,-22.82 0,-39.55 0,-62.37 -9.12,-98.87 -9.12,-202.31 -9.12,-299.66z"/>
   <path class="fil0" d="M-5065.13 -3469.66c0,114.08 0,229.69 0,349.86 0,6.09 0,12.17 0,16.73 0,6.09 0,12.17 -12.17,12.17 -22.82,0 -51.72,0 -74.53,0 -12.17,0 -12.17,-6.08 -12.17,-12.17 0,-6.08 0,-12.17 0,-12.17 0,-235.77 0,-470.03 0,-705.81 0,-6.08 0,-6.08 0,-12.16 0,-12.17 0,-16.74 12.17,-12.17 22.81,0 51.71,0 74.53,0 6.09,0 12.17,0 12.17,12.17 0,6.08 0,12.16 0,16.73 0,112.56 0,232.73 0,346.82z"/>
   <path class="fil0" d="M-7795.58 -3366.22c0,86.7 0,171.88 0,258.59 0,22.82 0,22.82 -22.82,22.82 -22.81,0 -39.55,0 -62.36,0 -12.17,0 -16.74,-6.09 -16.74,-16.74 0,-51.71 0,-109.52 0,-161.24 0,-114.08 0,-235.77 0,-349.86 0,-22.82 0,-22.82 22.82,-22.82 22.82,0 39.55,0 62.37,0 16.73,-12.17 16.73,-12.17 16.73,12.17 0,85.19 0,171.89 0,257.08z"/>
   <path class="fil0" d="M-6202.57 -4587.05c62.37,0 132.34,0 194.71,0 22.81,0 22.81,0 22.81,22.81 0,22.82 0,39.55 0,62.37 0,12.17 -6.08,16.73 -16.73,16.73 -34.99,0 -62.37,0 -97.35,0 -103.44,0 -200.79,0 -304.23,0 -6.09,0 -12.17,0 -16.73,0 -4.57,0 -12.17,-6.08 -12.17,-12.17 0,-28.9 0,-51.72 0,-80.62 0,-12.17 6.08,-12.17 12.17,-12.17 22.81,0 45.63,0 68.45,0 56.28,3.05 101.91,3.05 149.07,3.05z"/>
   <path class="fil0" d="M-7841.21 -3846.91c12.16,0 22.81,0 34.98,0 12.17,0 12.17,6.09 12.17,12.17 0,22.82 0,51.72 0,74.54 0,12.17 -6.08,12.17 -12.17,12.17 -22.82,0 -51.72,0 -74.53,0 -12.17,0 -12.17,-6.09 -12.17,-12.17 0,-22.82 0,-51.72 0,-74.54 0,-12.17 6.08,-12.17 12.17,-12.17 16.73,0 28.9,0 39.55,0z"/>
  </g>
  <g id="_1671234169728">
   <polygon class="fil1" points="-4355.77,903.9 -4620.46,946.94 -4636.66,949.56 -4652.9,951.92 -4669.17,953.98 -4685.47,955.79 -4701.79,957.31 -4457.45,916.86 -4437.04,914.96 -4416.67,912.71 -4396.34,910.12 -4376.03,907.18 "/>
   <polygon class="fil2" points="-4457.45,916.86 -4701.79,957.31 -4718.14,958.55 -4734.54,959.52 -4750.95,960.2 -4767.39,960.63 -4783.86,960.77 -4560.03,921.18 -4539.45,921.01 -4518.89,920.49 -4498.38,919.63 -4477.89,918.42 "/>
   <polygon class="fil3" points="-4560.03,921.18 -4783.86,960.77 -4803.08,960.57 -4822.24,959.99 -4841.32,959.02 -4860.35,957.67 -4879.32,955.93 -4679.36,915.14 -4655.64,917.31 -4631.86,919 -4608,920.21 -4584.05,920.94 "/>
   <polygon class="fil4" points="-4679.36,915.14 -4879.32,955.93 -4898.23,953.79 -4917.06,951.29 -4935.85,948.39 -4954.57,945.11 -4973.22,941.44 -4796.74,897.02 -4773.42,901.61 -4750.01,905.72 -4726.54,909.34 -4702.99,912.47 "/>
   <polygon class="fil5" points="-4796.74,897.02 -4973.22,941.44 -4991.82,937.38 -5010.34,932.95 -5028.82,928.13 -5047.23,922.91 -5065.57,917.33 -4912.17,866.88 -4889.24,873.87 -4866.23,880.39 -4843.14,886.41 -4819.98,891.96 "/>
   <polygon class="fil6" points="-4912.17,866.88 -5065.57,917.33 -5083.86,911.35 -5102.08,905 -5120.24,898.25 -5138.35,891.13 -5003.13,834.13 -4980.51,843.04 -4957.81,851.47 -4935.04,859.41 "/>
   <polygon class="fil7" points="-5003.13,834.13 -5138.35,891.13 -5156.38,883.62 -5174.34,875.72 -5192.26,867.45 -5210.1,858.79 -5092.83,793.72 -5070.52,804.54 -5048.14,814.89 -5025.68,824.74 "/>
   <polygon class="fil8" points="-5092.83,793.72 -5210.1,858.79 -5227.89,849.75 -5245.61,840.33 -5263.27,830.53 -5280.87,820.35 -5181.29,745.66 -5159.3,758.39 -5137.22,770.65 -5115.06,782.42 "/>
   <polygon class="fil9" points="-5181.29,745.66 -5280.87,820.35 -5298.41,809.78 -5315.88,798.84 -5333.3,787.51 -5350.65,775.79 -5268.51,689.97 -5246.83,704.61 -5225.06,718.77 -5203.21,732.45 "/>
   <polygon class="fil10" points="-5268.51,689.97 -5350.65,775.79 -5367.93,763.71 -5380.92,754.12 -5394.2,743.93 -5407.8,733.12 -5421.69,721.73 -5357.32,622.39 -5339.96,636.63 -5322.96,650.13 -5306.35,662.87 -5290.12,674.86 "/>
   <polygon class="fil11" points="-5357.32,622.39 -5421.69,721.73 -5435.89,709.73 -5450.4,697.15 -5465.22,683.94 -5480.34,670.14 -5430.63,557.9 -5411.74,575.15 -5393.21,591.65 -5375.08,607.39 "/>
   <polygon class="fil12" points="-5430.63,557.9 -5480.34,670.14 -5495.76,655.74 -5511.49,640.74 -5527.54,625.15 -5543.88,608.96 -5510.05,481.42 -5489.63,501.67 -5469.57,521.16 -5449.91,539.9 "/>
   <polygon class="fil13" points="-5510.05,481.42 -5543.88,608.96 -5560.52,592.17 -5577.49,574.78 -5594.75,556.78 -5573.64,416.2 -5552.07,438.69 -5530.86,460.43 "/>
   <polygon class="fil14" points="-5573.64,416.2 -5594.75,556.78 -5612.32,538.18 -5630.21,519 -5648.39,499.22 -5640.7,344.25 -5617.96,368.98 -5595.61,392.96 "/>
   <polygon class="fil15" points="-5640.7,344.25 -5648.39,499.22 -5666.89,478.84 -5685.7,457.86 -5704.81,436.28 -5711.22,265.57 -5687.33,292.55 -5663.82,318.77 "/>
   <polygon class="fil16" points="-5711.22,265.57 -5704.81,436.28 -5724.23,414.1 -5743.97,391.33 -5764.01,367.96 -5785.21,180.18 -5760.16,209.39 -5735.5,237.86 "/>
   <polygon class="fil17" points="-5785.21,180.18 -5764.01,367.96 -5784.35,344.01 -5805.01,319.43 -5836.47,119.52 -5810.65,150.23 "/>
   <polygon class="fil18" points="-5836.47,119.52 -5805.01,319.43 -5825.98,294.28 -5847.26,268.53 -5889.29,55.9 -5862.69,88.08 "/>
   <polygon class="fil19" points="-5889.29,55.9 -5847.26,268.53 -5868.85,242.19 -5890.74,215.24 -5943.64,-10.72 -5916.27,22.96 "/>
   <polygon class="fil20" points="-5943.64,-10.72 -5890.74,215.24 -5912.96,187.7 -5935.48,159.57 -5999.56,-80.31 -5971.41,-45.15 "/>
   <polygon class="fil21" points="-4355.77,903.9 -4620.46,946.94 -4636.66,949.56 -4652.9,951.92 -4669.17,953.98 -4685.47,955.79 -4701.79,957.31 -4718.14,958.55 -4734.54,959.52 -4750.95,960.2 -4767.39,960.63 -4783.86,960.77 -4803.08,960.57 -4822.24,959.99 -4841.32,959.02 -4860.35,957.67 -4879.32,955.93 -4898.23,953.79 -4917.06,951.29 -4935.85,948.39 -4954.57,945.11 -4973.22,941.44 -4991.82,937.38 -5010.34,932.95 -5028.82,928.13 -5047.23,922.91 -5065.57,917.33 -5083.86,911.35 -5102.08,905 -5120.24,898.25 -5138.35,891.13 -5156.38,883.62 -5174.34,875.72 -5192.26,867.45 -5210.1,858.79 -5227.89,849.75 -5245.61,840.33 -5263.27,830.53 -5280.87,820.35 -5298.41,809.78 -5315.88,798.84 -5333.3,787.51 -5350.65,775.79 -5367.93,763.71 -5380.92,754.12 -5394.2,743.93 -5407.8,733.12 -5421.69,721.73 -5435.89,709.73 -5450.4,697.15 -5465.22,683.94 -5480.34,670.14 -5495.76,655.74 -5511.49,640.74 -5527.54,625.15 -5543.88,608.96 -5560.52,592.17 -5577.49,574.78 -5594.75,556.78 -5612.32,538.18 -5630.21,519 -5648.39,499.22 -5666.89,478.84 -5685.7,457.86 -5704.81,436.28 -5724.23,414.1 -5743.97,391.33 -5764.01,367.96 -5784.35,344.01 -5805.01,319.43 -5825.98,294.28 -5847.26,268.53 -5868.85,242.19 -5890.74,215.24 -5912.96,187.7 -5935.48,159.57 -5999.56,-80.31 -5971.41,-45.15 -5943.64,-10.72 -5916.27,22.96 -5889.29,55.9 -5862.69,88.08 -5836.47,119.52 -5810.65,150.23 -5785.21,180.18 -5760.16,209.39 -5735.5,237.86 -5711.22,265.57 -5687.33,292.55 -5663.82,318.77 -5640.7,344.25 -5617.96,368.98 -5595.61,392.96 -5573.64,416.2 -5552.07,438.69 -5530.86,460.43 -5510.05,481.42 -5489.63,501.67 -5469.57,521.16 -5449.91,539.9 -5430.63,557.9 -5411.74,575.15 -5393.21,591.65 -5375.08,607.39 -5357.32,622.39 -5339.96,636.63 -5322.96,650.13 -5306.35,662.87 -5290.12,674.86 -5268.51,689.97 -5246.83,704.61 -5225.06,718.77 -5203.21,732.45 -5181.29,745.66 -5159.3,758.39 -5137.22,770.65 -5115.06,782.42 -5092.83,793.72 -5070.52,804.54 -5048.14,814.89 -5025.68,824.74 -5003.13,834.13 -4980.51,843.04 -4957.81,851.47 -4935.04,859.41 -4912.17,866.88 -4889.24,873.87 -4866.23,880.39 -4843.14,886.41 -4819.98,891.96 -4796.74,897.02 -4773.42,901.61 -4750.01,905.72 -4726.54,909.34 -4702.99,912.47 -4679.36,915.14 -4655.64,917.31 -4631.86,919 -4608,920.21 -4584.05,920.94 -4560.03,921.18 -4539.45,921.01 -4518.89,920.49 -4498.38,919.63 -4477.89,918.42 -4457.45,916.86 -4437.04,914.96 -4416.67,912.71 -4396.34,910.12 -4376.03,907.18 "/>
   <polygon class="fil22" points="-5999.56,-80.31 -5935.48,159.57 -5964.98,195.83 -5994.56,230.93 -6073.41,8.9 -6036.42,-34.98 "/>
   <polygon class="fil23" points="-6073.41,8.9 -5994.56,230.93 -6024.29,264.89 -6054.12,297.69 -6147.86,92.34 -6110.57,51.34 "/>
   <polygon class="fil24" points="-6147.86,92.34 -6054.12,297.69 -6084.07,329.32 -6114.13,359.82 -6222.88,170 -6185.29,131.89 "/>
   <polygon class="fil25" points="-6222.88,170 -6114.13,359.82 -6144.32,389.16 -6174.62,417.34 -6298.49,241.9 -6260.61,206.67 "/>
   <polygon class="fil26" points="-6298.49,241.9 -6174.62,417.34 -6205.04,444.37 -6235.57,470.25 -6374.67,308.04 -6336.5,275.69 "/>
   <polygon class="fil27" points="-6374.67,308.04 -6235.57,470.25 -6266.21,494.97 -6296.98,518.54 -6451.43,368.41 -6412.97,338.94 "/>
   <polygon class="fil28" points="-6451.43,368.41 -6296.98,518.54 -6327.86,540.96 -6358.85,562.23 -6528.76,423.01 -6490.03,396.43 "/>
   <polygon class="fil29" points="-6528.76,423.01 -6358.85,562.23 -6389.96,582.35 -6421.18,601.31 -6606.68,471.87 -6567.66,448.16 "/>
   <polygon class="fil30" points="-6606.68,471.87 -6421.18,601.31 -6452.51,619.12 -6483.96,635.79 -6685.16,514.97 -6645.85,494.13 "/>
   <polygon class="fil31" points="-6685.16,514.97 -6483.96,635.79 -6515.52,651.32 -6547.2,665.67 -6764.21,552.32 -6724.61,534.37 "/>
   <polygon class="fil32" points="-6764.21,552.32 -6547.2,665.67 -6578.98,678.88 -6610.88,690.95 -6843.81,583.91 -6803.94,568.83 "/>
   <polygon class="fil33" points="-6843.81,583.91 -6610.88,690.95 -6642.9,701.86 -6675.03,711.63 -6924,609.76 -6883.84,597.55 "/>
   <polygon class="fil34" points="-6924,609.76 -6675.03,711.63 -6707.27,720.24 -6739.62,727.7 -7004.73,629.85 -6964.29,620.52 "/>
   <polygon class="fil35" points="-7004.73,629.85 -6739.62,727.7 -6772.09,734.02 -6804.67,739.18 -7086.03,644.2 -7045.31,637.74 "/>
   <polygon class="fil36" points="-7086.03,644.2 -6804.67,739.18 -6837.34,743.2 -6870.14,746.07 -7167.88,652.81 -7126.89,649.22 "/>
   <polygon class="fil37" points="-7167.88,652.81 -6870.14,746.07 -6903.06,747.79 -6936.07,748.37 -6957.77,748.1 -7277.42,655.36 -7250.29,655.68 -7209.02,654.96 "/>
   <polygon class="fil38" points="-7277.42,655.36 -6957.77,748.1 -6979.27,747.33 -7000.61,746.04 -7021.74,744.22 -7042.69,741.89 -7383.57,647.59 -7357.38,650.5 -7330.96,652.76 -7304.3,654.39 "/>
   <polygon class="fil39" points="-7383.57,647.59 -7042.69,741.89 -7063.45,739.04 -7084.02,735.68 -7104.4,731.79 -7124.59,727.39 -7485.94,629.47 -7460.71,634.97 -7435.23,639.82 -7409.52,644.02 "/>
   <polygon class="fil40" points="-7485.94,629.47 -7124.59,727.39 -7144.59,722.48 -7510.94,623.32 "/>
   <polygon class="fil21" points="-5999.56,-80.31 -5935.48,159.57 -5964.98,195.83 -5994.56,230.93 -6024.29,264.89 -6054.12,297.69 -6084.07,329.32 -6114.13,359.82 -6144.32,389.16 -6174.62,417.34 -6205.04,444.37 -6235.57,470.25 -6266.21,494.97 -6296.98,518.54 -6327.86,540.96 -6358.85,562.23 -6389.96,582.35 -6421.18,601.31 -6452.51,619.12 -6483.96,635.79 -6515.52,651.32 -6547.2,665.67 -6578.98,678.88 -6610.88,690.95 -6642.9,701.86 -6675.03,711.63 -6707.27,720.24 -6739.62,727.7 -6772.09,734.02 -6804.67,739.18 -6837.34,743.2 -6870.14,746.07 -6903.06,747.79 -6936.07,748.37 -6957.77,748.1 -6979.27,747.33 -7000.61,746.04 -7021.74,744.22 -7042.69,741.89 -7063.45,739.04 -7084.02,735.68 -7104.4,731.79 -7124.59,727.39 -7144.59,722.48 -7510.94,623.32 -7485.94,629.47 -7460.71,634.97 -7435.23,639.82 -7409.52,644.02 -7383.57,647.59 -7357.38,650.5 -7330.96,652.76 -7304.3,654.39 -7277.42,655.36 -7250.29,655.68 -7209.02,654.96 -7167.88,652.81 -7126.89,649.22 -7086.03,644.2 -7045.31,637.74 -7004.73,629.85 -6964.29,620.52 -6924,609.76 -6883.84,597.55 -6843.81,583.91 -6803.94,568.83 -6764.21,552.32 -6724.61,534.37 -6685.16,514.97 -6645.85,494.13 -6606.68,471.87 -6567.66,448.16 -6528.76,423.01 -6490.03,396.43 -6451.43,368.41 -6412.97,338.94 -6374.67,308.04 -6336.5,275.69 -6298.49,241.9 -6260.61,206.67 -6222.88,170 -6185.29,131.89 -6147.86,92.34 -6110.57,51.34 -6073.41,8.9 -6036.42,-34.98 "/>
   <polygon class="fil41" points="-4230.15,366.55 -4519.95,517.06 -4506.55,510.06 -4493.31,502.69 -4480.22,494.94 -4467.31,486.82 -4454.56,478.31 -4441.98,469.44 -4132.67,307.03 -4148.4,318.12 -4164.34,328.75 -4180.49,338.9 -4196.83,348.59 -4213.39,357.81 "/>
   <polygon class="fil42" points="-4132.67,307.03 -4441.98,469.44 -4429.55,460.19 -4417.3,450.56 -4405.23,440.56 -4393.3,430.19 -4381.55,419.44 -4369.96,408.3 -4042.65,230.61 -4057.14,244.52 -4071.84,257.96 -4086.74,270.93 -4101.84,283.42 -4117.15,295.47 "/>
   <polygon class="fil43" points="-4042.65,230.61 -4369.96,408.3 -4358.54,396.82 -4347.28,384.95 -4336.29,372.62 -4325.64,360 -4315.35,347.07 -3974.39,154.06 -3987.26,170.23 -4000.57,186 -4014.31,201.41 -4028.37,216.25 "/>
   <polygon class="fil44" points="-3974.39,154.06 -4315.35,347.07 -4305.4,333.83 -4295.82,320.29 -4286.59,306.46 -4277.7,292.3 -4269.16,277.85 -3916.66,67.53 -3927.33,85.6 -3938.44,103.29 -3949.98,120.6 -3961.96,137.52 "/>
   <polygon class="fil45" points="-3916.66,67.53 -4269.16,277.85 -4260.98,263.08 -4253.15,248.01 -4245.66,232.64 -4238.52,216.95 -4231.74,200.98 -3869.89,-28.56 -3878.37,-8.58 -3887.29,11.02 -3896.64,30.24 -3906.44,49.08 "/>
   <polygon class="fil46" points="-3869.89,-28.56 -4231.74,200.98 -4225.32,184.67 -4219.23,168.07 -4213.51,151.16 -4208.11,133.95 -4203.08,116.42 -3834.06,-134.25 -3840.35,-112.34 -3847.08,-90.82 -3854.25,-69.68 -3861.85,-48.93 "/>
   <polygon class="fil47" points="-3834.06,-134.25 -4203.08,116.42 -4198.39,98.59 -4194.06,80.45 -4190.07,62.01 -4186.43,43.24 -4183.13,24.17 -3809.12,-249.56 -3813.24,-225.72 -3817.79,-202.27 -3822.78,-179.21 -3828.2,-156.54 "/>
   <polygon class="fil48" points="-3809.12,-249.56 -4183.13,24.17 -4180.19,4.79 -4177.58,-14.89 -4175.33,-34.89 -4173.43,-55.19 -3797,-348.76 -3799.38,-323.38 -3802.19,-298.39 -3805.44,-273.78 "/>
   <polygon class="fil49" points="-3797,-348.76 -4173.43,-55.19 -4171.87,-75.81 -4170.67,-96.73 -4169.79,-117.96 -4169.28,-139.51 -3791.81,-454.16 -3792.45,-427.23 -3793.54,-400.69 -3795.05,-374.53 "/>
   <polygon class="fil50" points="-3791.81,-454.16 -4169.28,-139.51 -4169.11,-161.37 -4169.28,-184.1 -4169.82,-206.49 -4170.69,-228.55 -3793.58,-565.45 -3792.48,-537.89 -3791.81,-509.9 -3791.59,-481.49 "/>
   <polygon class="fil51" points="-3793.58,-565.45 -4170.69,-228.55 -4171.93,-250.25 -4173.51,-271.64 -4175.46,-292.67 -4177.76,-313.37 -3802.4,-671.48 -3799.53,-645.62 -3797.1,-619.32 -3795.12,-592.59 "/>
   <polygon class="fil52" points="-3802.4,-671.48 -4177.76,-313.37 -4180.4,-333.74 -4183.42,-353.76 -4186.78,-373.46 -4190.5,-392.81 -3818.32,-770.78 -3813.68,-746.59 -3809.47,-721.98 -3805.72,-696.95 "/>
   <polygon class="fil53" points="-3818.32,-770.78 -4190.5,-392.81 -4194.56,-411.82 -4198.99,-430.5 -4203.76,-448.85 -4208.9,-466.85 -4214.39,-484.54 -3848.2,-885.44 -3841.33,-863.34 -3834.91,-840.83 -3828.94,-817.9 -3823.4,-794.55 "/>
   <polygon class="fil54" points="-3848.2,-885.44 -4214.39,-484.54 -4220.24,-501.86 -4226.43,-518.87 -4233,-535.53 -4239.91,-551.87 -4247.18,-567.87 -3889.19,-989.6 -3880.1,-969.61 -3871.46,-949.19 -3863.25,-928.36 -3855.5,-907.11 "/>
   <polygon class="fil55" points="-3889.19,-989.6 -4247.18,-567.87 -4254.82,-583.54 -4262.81,-598.87 -4271.15,-613.86 -4279.86,-628.53 -4288.92,-642.85 -3941.36,-1083.34 -3930.03,-1065.43 -3919.15,-1047.1 -3908.72,-1028.35 -3898.74,-1009.19 "/>
   <polygon class="fil56" points="-3941.36,-1083.34 -4288.92,-642.85 -4298.35,-656.85 -4308.13,-670.52 -4318.26,-683.84 -4328.75,-696.84 -4339.6,-709.52 -4004.72,-1166.66 -3991.15,-1150.83 -3978.03,-1134.58 -3965.36,-1117.92 -3953.14,-1100.84 "/>
   <polygon class="fil57" points="-4004.72,-1166.66 -4339.6,-709.52 -4350.82,-721.85 -4362.3,-733.72 -4373.95,-745.2 -4385.78,-756.34 -4397.78,-767.09 -4077.43,-1238.63 -4062.43,-1225.19 -4047.65,-1211.28 -4033.09,-1196.92 -4018.74,-1182.08 "/>
   <polygon class="fil58" points="-4077.43,-1238.63 -4397.78,-767.09 -4409.95,-777.46 -4422.29,-787.45 -4434.8,-797.09 -4447.5,-806.34 -4460.36,-815.21 -4473.41,-823.72 -4171.96,-1309.42 -4155.66,-1298.79 -4139.58,-1287.7 -4123.71,-1276.14 -4108.07,-1264.09 -4092.64,-1251.6 "/>
   <polygon class="fil59" points="-4171.96,-1309.42 -4473.41,-823.72 -4486.61,-831.84 -4499.99,-839.59 -4513.54,-846.96 -4527.27,-853.96 -4541.17,-860.59 -4555.24,-866.83 -4274.26,-1363.31 -4256.67,-1355.5 -4239.29,-1347.22 -4222.14,-1338.48 -4205.19,-1329.26 -4188.46,-1319.57 "/>
   <polygon class="fil60" points="-4274.26,-1363.31 -4555.24,-866.83 -4569.49,-872.69 -4583.91,-878.19 -4598.5,-883.31 -4613.26,-888.04 -4628.21,-892.4 -4643.31,-896.38 -4384.34,-1400.25 -4365.46,-1395.27 -4346.78,-1389.82 -4328.33,-1383.9 -4310.09,-1377.51 -4292.07,-1370.64 "/>
   <polygon class="fil61" points="-4384.34,-1400.25 -4643.31,-896.38 -4658.58,-899.98 -4674.05,-903.21 -4689.68,-906.06 -4705.48,-908.52 -4721.45,-910.61 -4482.03,-1418.04 -4462.06,-1415.42 -4442.3,-1412.34 -4422.77,-1408.78 -4403.44,-1404.75 "/>
   <polygon class="fil62" points="-4482.03,-1418.04 -4721.45,-910.61 -4737.6,-912.31 -4753.92,-913.64 -4770.42,-914.59 -4787.08,-915.17 -4803.91,-915.36 -4814.52,-915.26 -4598.36,-1423.85 -4585.11,-1423.97 -4564.06,-1423.73 -4543.22,-1423.02 -4522.61,-1421.83 -4502.2,-1420.16 "/>
   <polygon class="fil63" points="-4598.36,-1423.85 -4814.52,-915.26 -4825.07,-914.98 -4835.58,-914.51 -4846.06,-913.86 -4856.49,-913.02 -4866.88,-911.99 -4877.24,-910.77 -4887.55,-909.37 -4897.82,-907.77 -4908.03,-905.98 -4715.25,-1412.26 -4702.48,-1414.48 -4689.64,-1416.48 -4676.75,-1418.24 -4663.81,-1419.76 -4650.82,-1421.05 -4637.79,-1422.1 -4624.69,-1422.92 -4611.55,-1423.5 "/>
   <polygon class="fil64" points="-4715.25,-1412.26 -4908.03,-905.98 -4918.22,-904.02 -4928.36,-901.86 -4938.47,-899.5 -4948.53,-896.97 -4958.54,-894.23 -4968.52,-891.31 -4978.45,-888.2 -4988.34,-884.9 -4998.19,-881.41 -4827.95,-1381.54 -4815.63,-1385.9 -4803.27,-1390.03 -4790.85,-1393.91 -4778.38,-1397.56 -4765.86,-1400.98 -4753.29,-1404.15 -4740.66,-1407.09 -4727.98,-1409.8 "/>
   <polygon class="fil65" points="-4827.95,-1381.54 -4998.19,-881.41 -5008.01,-877.74 -5017.78,-873.86 -5027.51,-869.79 -5037.19,-865.54 -5046.83,-861.1 -5056.45,-856.46 -5066,-851.63 -5075.52,-846.61 -4924.61,-1338.03 -4912.71,-1344.31 -4900.76,-1350.35 -4888.75,-1356.15 -4876.7,-1361.7 -4864.58,-1367.02 -4852.43,-1372.1 -4840.22,-1376.94 "/>
   <polygon class="fil66" points="-4924.61,-1338.03 -5075.52,-846.61 -5085.01,-841.39 -5094.43,-835.99 -5103.83,-830.38 -5113.18,-824.59 -5122.5,-818.6 -5135.18,-809.83 -5148.19,-800.31 -5015.44,-1280.17 -4999.17,-1292.06 -4983.33,-1303.02 -4971.69,-1310.51 -4960,-1317.74 -4948.25,-1324.75 -4936.46,-1331.51 "/>
   <polygon class="fil67" points="-5015.44,-1280.17 -5148.19,-800.31 -5161.55,-790.07 -5175.26,-779.12 -5189.32,-767.4 -5203.72,-754.97 -5218.46,-741.81 -5103.28,-1207.04 -5084.85,-1223.49 -5066.85,-1239.03 -5049.28,-1253.67 -5032.15,-1267.37 "/>
   <polygon class="fil68" points="-5103.28,-1207.04 -5218.46,-741.81 -5233.54,-727.91 -5248.98,-713.28 -5264.74,-697.93 -5280.87,-681.83 -5181.29,-1132.06 -5161.14,-1152.18 -5141.43,-1171.37 -5122.14,-1189.66 "/>
   <polygon class="fil69" points="-5181.29,-1132.06 -5280.87,-681.83 -5297.33,-665.01 -5314.14,-647.46 -5331.27,-629.18 -5244.31,-1066.25 -5222.87,-1089.09 -5201.87,-1111.04 "/>
   <polygon class="fil70" points="-5244.31,-1066.25 -5331.27,-629.18 -5348.77,-610.17 -5366.6,-590.42 -5384.78,-569.96 -5311.18,-992.22 -5288.46,-1017.8 -5266.17,-1042.49 "/>
   <polygon class="fil71" points="-5311.18,-992.22 -5384.78,-569.96 -5403.29,-548.76 -5422.15,-526.82 -5441.35,-504.17 -5381.9,-909.99 -5357.9,-938.31 -5334.32,-965.72 "/>
   <polygon class="fil72" points="-5381.9,-909.99 -5441.35,-504.17 -5460.89,-480.79 -5480.78,-456.67 -5501,-431.83 -5456.45,-819.57 -5431.18,-850.61 -5406.32,-880.76 "/>
   <polygon class="fil73" points="-5456.45,-819.57 -5501,-431.83 -5521.57,-406.26 -5542.48,-379.96 -5508.3,-754.73 -5482.17,-787.6 "/>
   <polygon class="fil74" points="-5508.3,-754.73 -5542.48,-379.96 -5563.72,-352.93 -5585.29,-325.19 -5561.83,-686.27 -5534.85,-720.95 "/>
   <polygon class="fil75" points="-5561.83,-686.27 -5585.29,-325.19 -5607.22,-296.71 -5629.49,-267.5 -5617.07,-614.15 -5589.24,-650.66 "/>
   <polygon class="fil76" points="-5617.07,-614.15 -5629.49,-267.5 -5652.08,-237.57 -5675.03,-206.91 -5674,-538.41 -5645.31,-576.74 "/>
   <polygon class="fil77" points="-5674,-538.41 -5675.03,-206.91 -5698.32,-175.53 -5703.1,-499.19 "/>
   <polygon class="fil21" points="-4230.15,366.55 -4519.95,517.06 -4506.55,510.06 -4493.31,502.69 -4480.22,494.94 -4467.31,486.82 -4454.56,478.31 -4441.98,469.44 -4429.55,460.19 -4417.3,450.56 -4405.23,440.56 -4393.3,430.19 -4381.55,419.44 -4369.96,408.3 -4358.54,396.82 -4347.28,384.95 -4336.29,372.62 -4325.64,360 -4315.35,347.07 -4305.4,333.83 -4295.82,320.29 -4286.59,306.46 -4277.7,292.3 -4269.16,277.85 -4260.98,263.08 -4253.15,248.01 -4245.66,232.64 -4238.52,216.95 -4231.74,200.98 -4225.32,184.67 -4219.23,168.07 -4213.51,151.16 -4208.11,133.95 -4203.08,116.42 -4198.39,98.59 -4194.06,80.45 -4190.07,62.01 -4186.43,43.24 -4183.13,24.17 -4180.19,4.79 -4177.58,-14.89 -4175.33,-34.89 -4173.43,-55.19 -4171.87,-75.81 -4170.67,-96.73 -4169.79,-117.96 -4169.28,-139.51 -4169.11,-161.37 -4169.28,-184.1 -4169.82,-206.49 -4170.69,-228.55 -4171.93,-250.25 -4173.51,-271.64 -4175.46,-292.67 -4177.76,-313.37 -4180.4,-333.74 -4183.42,-353.76 -4186.78,-373.46 -4190.5,-392.81 -4194.56,-411.82 -4198.99,-430.5 -4203.76,-448.85 -4208.9,-466.85 -4214.39,-484.54 -4220.24,-501.86 -4226.43,-518.87 -4233,-535.53 -4239.91,-551.87 -4247.18,-567.87 -4254.82,-583.54 -4262.81,-598.87 -4271.15,-613.86 -4279.86,-628.53 -4288.92,-642.85 -4298.35,-656.85 -4308.13,-670.52 -4318.26,-683.84 -4328.75,-696.84 -4339.6,-709.52 -4350.82,-721.85 -4362.3,-733.72 -4373.95,-745.2 -4385.78,-756.34 -4397.78,-767.09 -4409.95,-777.46 -4422.29,-787.45 -4434.8,-797.09 -4447.5,-806.34 -4460.36,-815.21 -4473.41,-823.72 -4486.61,-831.84 -4499.99,-839.59 -4513.54,-846.96 -4527.27,-853.96 -4541.17,-860.59 -4555.24,-866.83 -4569.49,-872.69 -4583.91,-878.19 -4598.5,-883.31 -4613.26,-888.04 -4628.21,-892.4 -4643.31,-896.38 -4658.58,-899.98 -4674.05,-903.21 -4689.68,-906.06 -4705.48,-908.52 -4721.45,-910.61 -4737.6,-912.31 -4753.92,-913.64 -4770.42,-914.59 -4787.08,-915.17 -4803.91,-915.36 -4814.52,-915.26 -4825.07,-914.98 -4835.58,-914.51 -4846.06,-913.86 -4856.49,-913.02 -4866.88,-911.99 -4877.24,-910.77 -4887.55,-909.37 -4897.82,-907.77 -4908.03,-905.98 -4918.22,-904.02 -4928.36,-901.86 -4938.47,-899.5 -4948.53,-896.97 -4958.54,-894.23 -4968.52,-891.31 -4978.45,-888.2 -4988.34,-884.9 -4998.19,-881.41 -5008.01,-877.74 -5017.78,-873.86 -5027.51,-869.79 -5037.19,-865.54 -5046.83,-861.1 -5056.45,-856.46 -5066,-851.63 -5075.52,-846.61 -5085.01,-841.39 -5094.43,-835.99 -5103.83,-830.38 -5113.18,-824.59 -5122.5,-818.6 -5135.18,-809.83 -5148.19,-800.31 -5161.55,-790.07 -5175.26,-779.12 -5189.32,-767.4 -5203.72,-754.97 -5218.46,-741.81 -5233.54,-727.91 -5248.98,-713.28 -5264.74,-697.93 -5280.87,-681.83 -5297.33,-665.01 -5314.14,-647.46 -5331.27,-629.18 -5348.77,-610.17 -5366.6,-590.42 -5384.78,-569.96 -5403.29,-548.76 -5422.15,-526.82 -5441.35,-504.17 -5460.89,-480.79 -5480.78,-456.67 -5501,-431.83 -5521.57,-406.26 -5542.48,-379.96 -5563.72,-352.93 -5585.29,-325.19 -5607.22,-296.71 -5629.49,-267.5 -5652.08,-237.57 -5675.03,-206.91 -5698.32,-175.53 -5703.1,-499.19 -5674,-538.41 -5645.31,-576.74 -5617.07,-614.15 -5589.24,-650.66 -5561.83,-686.27 -5534.85,-720.95 -5508.3,-754.73 -5482.17,-787.6 -5456.45,-819.57 -5431.18,-850.61 -5406.32,-880.76 -5381.9,-909.99 -5357.9,-938.31 -5334.32,-965.72 -5311.18,-992.22 -5288.46,-1017.8 -5266.17,-1042.49 -5244.31,-1066.25 -5222.87,-1089.09 -5201.87,-1111.04 -5181.29,-1132.06 -5161.14,-1152.18 -5141.43,-1171.37 -5122.14,-1189.66 -5103.28,-1207.04 -5084.85,-1223.49 -5066.85,-1239.03 -5049.28,-1253.67 -5032.15,-1267.37 -5015.44,-1280.17 -4999.17,-1292.06 -4983.33,-1303.02 -4971.69,-1310.51 -4960,-1317.74 -4948.25,-1324.75 -4936.46,-1331.51 -4924.61,-1338.03 -4912.71,-1344.31 -4900.76,-1350.35 -4888.75,-1356.15 -4876.7,-1361.7 -4864.58,-1367.02 -4852.43,-1372.1 -4840.22,-1376.94 -4827.95,-1381.54 -4815.63,-1385.9 -4803.27,-1390.03 -4790.85,-1393.91 -4778.38,-1397.56 -4765.86,-1400.98 -4753.29,-1404.15 -4740.66,-1407.09 -4727.98,-1409.8 -4715.25,-1412.26 -4702.48,-1414.48 -4689.64,-1416.48 -4676.75,-1418.24 -4663.81,-1419.76 -4650.82,-1421.05 -4637.79,-1422.1 -4624.69,-1422.92 -4611.55,-1423.5 -4598.36,-1423.85 -4585.11,-1423.97 -4564.06,-1423.73 -4543.22,-1423.02 -4522.61,-1421.83 -4502.2,-1420.16 -4482.03,-1418.04 -4462.06,-1415.42 -4442.3,-1412.34 -4422.77,-1408.78 -4403.44,-1404.75 -4384.34,-1400.25 -4365.46,-1395.27 -4346.78,-1389.82 -4328.33,-1383.9 -4310.09,-1377.51 -4292.07,-1370.64 -4274.26,-1363.31 -4256.67,-1355.5 -4239.29,-1347.22 -4222.14,-1338.48 -4205.19,-1329.26 -4188.46,-1319.57 -4171.96,-1309.42 -4155.66,-1298.79 -4139.58,-1287.7 -4123.71,-1276.14 -4108.07,-1264.09 -4092.64,-1251.6 -4077.43,-1238.63 -4062.43,-1225.19 -4047.65,-1211.28 -4033.09,-1196.92 -4018.74,-1182.08 -4004.72,-1166.66 -3991.15,-1150.83 -3978.03,-1134.58 -3965.36,-1117.92 -3953.14,-1100.84 -3941.36,-1083.34 -3930.03,-1065.43 -3919.15,-1047.1 -3908.72,-1028.35 -3898.74,-1009.19 -3889.19,-989.6 -3880.1,-969.61 -3871.46,-949.19 -3863.25,-928.36 -3855.5,-907.11 -3848.2,-885.44 -3841.33,-863.34 -3834.91,-840.83 -3828.94,-817.9 -3823.4,-794.55 -3818.32,-770.78 -3813.68,-746.59 -3809.47,-721.98 -3805.72,-696.95 -3802.4,-671.48 -3799.53,-645.62 -3797.1,-619.32 -3795.12,-592.59 -3793.58,-565.45 -3792.48,-537.89 -3791.81,-509.9 -3791.59,-481.49 -3791.81,-454.16 -3792.45,-427.23 -3793.54,-400.69 -3795.05,-374.53 -3797,-348.76 -3799.38,-323.38 -3802.19,-298.39 -3805.44,-273.78 -3809.12,-249.56 -3813.24,-225.72 -3817.79,-202.27 -3822.78,-179.21 -3828.2,-156.54 -3834.06,-134.25 -3840.35,-112.34 -3847.08,-90.82 -3854.25,-69.68 -3861.85,-48.93 -3869.89,-28.56 -3878.37,-8.58 -3887.29,11.02 -3896.64,30.24 -3906.44,49.08 -3916.66,67.53 -3927.33,85.6 -3938.44,103.29 -3949.98,120.6 -3961.96,137.52 -3974.39,154.06 -3987.26,170.23 -4000.57,186 -4014.31,201.41 -4028.37,216.25 -4042.65,230.61 -4057.14,244.52 -4071.84,257.96 -4086.74,270.93 -4101.84,283.42 -4117.15,295.47 -4132.67,307.03 -4148.4,318.12 -4164.34,328.75 -4180.49,338.9 -4196.83,348.59 -4213.39,357.81 "/>
   <polygon class="fil78" points="-6297.49,-494.76 -6173.83,-171.99 -6190.98,-193.21 -6207.93,-213.94 -6224.66,-234.2 -6361.03,-572.52 -6340.12,-547.2 -6318.94,-521.29 "/>
   <polygon class="fil79" points="-6361.03,-572.52 -6224.66,-234.2 -6241.19,-253.96 -6257.5,-273.24 -6273.62,-292.05 -6422.23,-644.84 -6402.09,-621.33 -6381.7,-597.23 "/>
   <polygon class="fil80" points="-6422.23,-644.84 -6273.62,-292.05 -6289.52,-310.36 -6305.21,-328.2 -6320.69,-345.56 -6335.95,-362.43 -6500.14,-732.81 -6481.07,-711.72 -6461.72,-690.03 -6442.11,-667.73 "/>
   <polygon class="fil81" points="-6500.14,-732.81 -6335.95,-362.43 -6351.01,-378.81 -6365.85,-394.73 -6380.48,-410.15 -6394.89,-425.11 -6573.83,-811.16 -6555.8,-792.47 -6537.52,-773.19 -6518.97,-753.3 "/>
   <polygon class="fil82" points="-6573.83,-811.16 -6394.89,-425.11 -6409.1,-439.57 -6423.09,-453.55 -6436.87,-467.06 -6450.43,-480.09 -6643.25,-879.88 -6626.29,-863.6 -6609.07,-846.71 -6591.59,-829.23 "/>
   <polygon class="fil83" points="-6643.25,-879.88 -6450.43,-480.09 -6463.78,-492.62 -6476.91,-504.69 -6489.82,-516.28 -6502.52,-527.37 -6515,-538.01 -6723.95,-952.28 -6708.36,-938.99 -6692.49,-925.12 -6676.34,-910.64 -6659.92,-895.56 "/>
   <polygon class="fil84" points="-6723.95,-952.28 -6515,-538.01 -6527.26,-548.15 -6539.31,-557.82 -6551.13,-567.01 -6562.75,-575.71 -6574.14,-583.94 -6585.31,-591.7 -6811.84,-1019.41 -6797.87,-1009.71 -6783.64,-999.42 -6769.12,-988.53 -6754.34,-977.05 -6739.28,-964.96 "/>
   <polygon class="fil85" points="-6811.84,-1019.41 -6585.31,-591.7 -6596.25,-598.97 -6606.99,-605.78 -6617.49,-612.11 -6627.87,-618.1 -6638.24,-623.9 -6648.57,-629.52 -6658.86,-634.94 -6903.78,-1073.45 -6890.92,-1066.67 -6878,-1059.65 -6865.05,-1052.39 -6852.07,-1044.9 -6838.94,-1037 -6825.52,-1028.5 "/>
   <polygon class="fil86" points="-6903.78,-1073.45 -6658.86,-634.94 -6669.14,-640.19 -6679.38,-645.25 -6689.6,-650.1 -6699.79,-654.79 -6709.95,-659.27 -6720.09,-663.58 -6730.19,-667.69 -6740.28,-671.62 -7005.56,-1119.29 -6992.95,-1114.39 -6980.32,-1109.25 -6967.65,-1103.86 -6954.95,-1098.25 -6942.21,-1092.41 -6929.44,-1086.33 -6916.63,-1080 "/>
   <polygon class="fil87" points="-7005.56,-1119.29 -6740.28,-671.62 -6750.32,-675.35 -6760.36,-678.9 -6770.35,-682.25 -6780.32,-685.41 -6790.27,-688.38 -6800.17,-691.17 -6810.07,-693.76 -6819.93,-696.17 -6829.76,-698.38 -7117.4,-1152.75 -7105.11,-1149.98 -7092.79,-1146.98 -7080.42,-1143.74 -7068.03,-1140.26 -7055.61,-1136.54 -7043.15,-1132.58 -7030.65,-1128.39 -7018.12,-1123.96 "/>
   <polygon class="fil88" points="-7117.4,-1152.75 -6829.76,-698.38 -6839.55,-700.4 -6849.33,-702.23 -6859.08,-703.87 -6868.8,-705.31 -6878.49,-706.57 -6888.15,-707.63 -6897.8,-708.5 -6907.41,-709.18 -6916.99,-709.66 -7226.45,-1166.85 -7214.46,-1166.24 -7202.46,-1165.39 -7190.4,-1164.31 -7178.32,-1162.99 -7166.21,-1161.41 -7154.06,-1159.61 -7141.87,-1157.56 -7129.65,-1155.28 "/>
   <polygon class="fil89" points="-7226.45,-1166.85 -6916.99,-709.66 -6926.54,-709.95 -6936.07,-710.04 -6948.61,-709.91 -6961.01,-709.49 -6973.29,-708.8 -6985.41,-707.84 -6997.4,-706.6 -7009.27,-705.08 -7341.78,-1161.12 -7326.97,-1163.01 -7311.97,-1164.57 -7296.82,-1165.78 -7281.47,-1166.64 -7265.97,-1167.16 -7250.29,-1167.33 -7238.38,-1167.21 "/>
   <polygon class="fil90" points="-7341.78,-1161.12 -7009.27,-705.08 -7020.99,-703.28 -7032.56,-701.22 -7044.02,-698.87 -7055.33,-696.26 -7066.53,-693.36 -7077.58,-690.19 -7088.48,-686.76 -7099.27,-683.05 -7454.3,-1133.58 -7440.82,-1138.22 -7427.17,-1142.52 -7413.36,-1146.47 -7399.38,-1150.1 -7385.23,-1153.36 -7370.92,-1156.29 -7356.43,-1158.88 "/>
   <polygon class="fil91" points="-7454.3,-1133.58 -7099.27,-683.05 -7109.92,-679.05 -7120.44,-674.8 -7130.82,-670.26 -7141.08,-665.46 -7151.21,-660.39 -7161.21,-655.03 -7171.08,-649.4 -7180.81,-643.5 -7556.23,-1084.15 -7544.05,-1091.52 -7531.72,-1098.55 -7519.22,-1105.25 -7506.56,-1111.59 -7493.74,-1117.6 -7480.76,-1123.27 -7467.61,-1128.6 "/>
   <polygon class="fil92" points="-7556.23,-1084.15 -7180.81,-643.5 -7190.43,-637.33 -7199.9,-630.89 -7209.26,-624.19 -7218.48,-617.2 -7227.58,-609.95 -7236.55,-602.43 -7245.39,-594.63 -7254.11,-586.57 -7647.85,-1012.98 -7636.95,-1023.07 -7625.9,-1032.81 -7614.68,-1042.21 -7603.31,-1051.28 -7591.78,-1060.01 -7580.09,-1068.39 -7568.23,-1076.44 "/>
   <polygon class="fil93" points="-7647.85,-1012.98 -7254.11,-586.57 -7262.71,-578.24 -7271.18,-569.64 -7279.36,-560.79 -7287.26,-551.72 -7294.92,-542.45 -7302.32,-532.97 -7309.46,-523.27 -7717.03,-933.86 -7708.1,-945.99 -7698.85,-957.84 -7689.29,-969.43 -7679.4,-980.75 -7669.18,-991.82 -7658.6,-1002.57 "/>
   <polygon class="fil94" points="-7717.03,-933.86 -7309.46,-523.27 -7316.35,-513.36 -7322.97,-503.24 -7329.35,-492.91 -7335.46,-482.35 -7341.32,-471.6 -7346.91,-460.63 -7352.26,-449.46 -7770.53,-841.59 -7763.85,-855.56 -7756.86,-869.27 -7749.53,-882.71 -7741.88,-895.9 -7733.92,-908.82 -7725.64,-921.47 "/>
   <polygon class="fil95" points="-7770.53,-841.59 -7352.26,-449.46 -7357.33,-438.07 -7362.16,-426.47 -7366.72,-414.68 -7371.02,-402.67 -7375.08,-390.45 -7378.86,-378.03 -7382.4,-365.4 -7808.2,-736.52 -7803.79,-752.31 -7799.05,-767.84 -7793.99,-783.11 -7788.61,-798.12 -7782.9,-812.87 -7776.88,-827.36 "/>
   <polygon class="fil96" points="-7808.2,-736.52 -7382.4,-365.4 -7385.65,-352.55 -7388.66,-339.52 -7391.42,-326.28 -7393.9,-312.82 -7396.13,-299.17 -7398.09,-285.3 -7827.81,-636.41 -7825.36,-653.72 -7822.59,-670.8 -7819.48,-687.62 -7816.04,-704.17 -7812.28,-720.47 "/>
   <polygon class="fil97" points="-7827.81,-636.41 -7398.09,-285.3 -7399.79,-271.24 -7401.23,-256.97 -7402.42,-242.5 -7403.34,-227.84 -7403.98,-212.96 -7404.38,-197.89 -7835.68,-527.13 -7835.19,-545.97 -7834.38,-564.57 -7833.23,-582.9 -7831.75,-601 -7829.94,-618.83 "/>
   <polygon class="fil98" points="-7835.68,-527.13 -7404.38,-197.89 -7404.51,-182.61 -7404.38,-167.45 -7403.97,-152.48 -7403.3,-137.71 -7402.35,-123.14 -7401.14,-108.77 -7831.63,-415.75 -7833.15,-433.7 -7834.33,-451.91 -7835.18,-470.38 -7835.68,-489.08 -7835.85,-508.04 "/>
   <polygon class="fil99" points="-7831.63,-415.75 -7401.14,-108.77 -7399.66,-94.6 -7397.9,-80.62 -7395.86,-66.84 -7393.57,-53.26 -7391,-39.87 -7388.15,-26.67 -7815.4,-313.11 -7818.95,-329.61 -7822.17,-346.35 -7825.04,-363.33 -7827.57,-380.55 -7829.77,-398.02 "/>
   <polygon class="fil100" points="-7815.4,-313.11 -7388.15,-26.67 -7385.03,-13.67 -7381.64,-0.85 -7378,11.75 -7374.06,24.18 -7369.85,36.41 -7365.37,48.47 -7360.62,60.32 -7780.98,-204.38 -7786.92,-219.19 -7792.52,-234.25 -7797.78,-249.55 -7802.7,-265.08 -7807.27,-280.84 -7811.5,-296.86 "/>
   <polygon class="fil101" points="-7780.98,-204.38 -7360.62,60.32 -7355.6,71.99 -7350.3,83.47 -7344.73,94.76 -7338.88,105.86 -7332.75,116.78 -7326.36,127.51 -7319.68,138.07 -7729.82,-107.19 -7738.15,-120.39 -7746.15,-133.79 -7753.81,-147.45 -7761.11,-161.32 -7768.07,-175.43 -7774.7,-189.79 "/>
   <polygon class="fil102" points="-7729.82,-107.19 -7319.68,138.07 -7312.75,148.43 -7305.52,158.6 -7298.02,168.6 -7290.25,178.42 -7282.2,188.06 -7273.88,197.51 -7265.28,206.78 -7661.8,-21.3 -7672.56,-32.89 -7682.96,-44.71 -7693.02,-56.75 -7702.74,-69.02 -7712.11,-81.52 -7721.13,-94.24 "/>
   <polygon class="fil103" points="-7661.8,-21.3 -7265.28,206.78 -7256.59,215.71 -7247.78,224.36 -7238.86,232.72 -7229.82,240.79 -7220.66,248.59 -7211.39,256.1 -7202,263.33 -7582.7,49.39 -7594.45,40.35 -7606.04,30.96 -7617.48,21.21 -7628.78,11.12 -7639.94,0.67 -7650.94,-10.14 "/>
   <polygon class="fil104" points="-7582.7,49.39 -7202,263.33 -7192.48,270.28 -7182.87,276.94 -7173.11,283.3 -7163.25,289.4 -7153.27,295.21 -7521.8,89.25 -7534.27,81.98 -7546.6,74.36 -7558.79,66.4 -7570.82,58.07 "/>
   <polygon class="fil21" points="-6297.49,-494.76 -6173.83,-171.99 -6190.98,-193.21 -6207.93,-213.94 -6224.66,-234.2 -6241.19,-253.96 -6257.5,-273.24 -6273.62,-292.05 -6289.52,-310.36 -6305.21,-328.2 -6320.69,-345.56 -6335.95,-362.43 -6351.01,-378.81 -6365.85,-394.73 -6380.48,-410.15 -6394.89,-425.11 -6409.1,-439.57 -6423.09,-453.55 -6436.87,-467.06 -6450.43,-480.09 -6463.78,-492.62 -6476.91,-504.69 -6489.82,-516.28 -6502.52,-527.37 -6515,-538.01 -6527.26,-548.15 -6539.31,-557.82 -6551.13,-567.01 -6562.75,-575.71 -6574.14,-583.94 -6585.31,-591.7 -6596.25,-598.97 -6606.99,-605.78 -6617.49,-612.11 -6627.87,-618.1 -6638.24,-623.9 -6648.57,-629.52 -6658.86,-634.94 -6669.14,-640.19 -6679.38,-645.25 -6689.6,-650.1 -6699.79,-654.79 -6709.95,-659.27 -6720.09,-663.58 -6730.19,-667.69 -6740.28,-671.62 -6750.32,-675.35 -6760.36,-678.9 -6770.35,-682.25 -6780.32,-685.41 -6790.27,-688.38 -6800.17,-691.17 -6810.07,-693.76 -6819.93,-696.17 -6829.76,-698.38 -6839.55,-700.4 -6849.33,-702.23 -6859.08,-703.87 -6868.8,-705.31 -6878.49,-706.57 -6888.15,-707.63 -6897.8,-708.5 -6907.41,-709.18 -6916.99,-709.66 -6926.54,-709.95 -6936.07,-710.04 -6948.61,-709.91 -6961.01,-709.49 -6973.29,-708.8 -6985.41,-707.84 -6997.4,-706.6 -7009.27,-705.08 -7020.99,-703.28 -7032.56,-701.22 -7044.02,-698.87 -7055.33,-696.26 -7066.53,-693.36 -7077.58,-690.19 -7088.48,-686.76 -7099.27,-683.05 -7109.92,-679.05 -7120.44,-674.8 -7130.82,-670.26 -7141.08,-665.46 -7151.21,-660.39 -7161.21,-655.03 -7171.08,-649.4 -7180.81,-643.5 -7190.43,-637.33 -7199.9,-630.89 -7209.26,-624.19 -7218.48,-617.2 -7227.58,-609.95 -7236.55,-602.43 -7245.39,-594.63 -7254.11,-586.57 -7262.71,-578.24 -7271.18,-569.64 -7279.36,-560.79 -7287.26,-551.72 -7294.92,-542.45 -7302.32,-532.97 -7309.46,-523.27 -7316.35,-513.36 -7322.97,-503.24 -7329.35,-492.91 -7335.46,-482.35 -7341.32,-471.6 -7346.91,-460.63 -7352.26,-449.46 -7357.33,-438.07 -7362.16,-426.47 -7366.72,-414.68 -7371.02,-402.67 -7375.08,-390.45 -7378.86,-378.03 -7382.4,-365.4 -7385.65,-352.55 -7388.66,-339.52 -7391.42,-326.28 -7393.9,-312.82 -7396.13,-299.17 -7398.09,-285.3 -7399.79,-271.24 -7401.23,-256.97 -7402.42,-242.5 -7403.34,-227.84 -7403.98,-212.96 -7404.38,-197.89 -7404.51,-182.61 -7404.38,-167.45 -7403.97,-152.48 -7403.3,-137.71 -7402.35,-123.14 -7401.14,-108.77 -7399.66,-94.6 -7397.9,-80.62 -7395.86,-66.84 -7393.57,-53.26 -7391,-39.87 -7388.15,-26.67 -7385.03,-13.67 -7381.64,-0.85 -7378,11.75 -7374.06,24.18 -7369.85,36.41 -7365.37,48.47 -7360.62,60.32 -7355.6,71.99 -7350.3,83.47 -7344.73,94.76 -7338.88,105.86 -7332.75,116.78 -7326.36,127.51 -7319.68,138.07 -7312.75,148.43 -7305.52,158.6 -7298.02,168.6 -7290.25,178.42 -7282.2,188.06 -7273.88,197.51 -7265.28,206.78 -7256.59,215.71 -7247.78,224.36 -7238.86,232.72 -7229.82,240.79 -7220.66,248.59 -7211.39,256.1 -7202,263.33 -7192.48,270.28 -7182.87,276.94 -7173.11,283.3 -7163.25,289.4 -7153.27,295.21 -7521.8,89.25 -7534.27,81.98 -7546.6,74.36 -7558.79,66.4 -7570.82,58.07 -7582.7,49.39 -7594.45,40.35 -7606.04,30.96 -7617.48,21.21 -7628.78,11.12 -7639.94,0.67 -7650.94,-10.14 -7661.8,-21.3 -7672.56,-32.89 -7682.96,-44.71 -7693.02,-56.75 -7702.74,-69.02 -7712.11,-81.52 -7721.13,-94.24 -7729.82,-107.19 -7738.15,-120.39 -7746.15,-133.79 -7753.81,-147.45 -7761.11,-161.32 -7768.07,-175.43 -7774.7,-189.79 -7780.98,-204.38 -7786.92,-219.19 -7792.52,-234.25 -7797.78,-249.55 -7802.7,-265.08 -7807.27,-280.84 -7811.5,-296.86 -7815.4,-313.11 -7818.95,-329.61 -7822.17,-346.35 -7825.04,-363.33 -7827.57,-380.55 -7829.77,-398.02 -7831.63,-415.75 -7833.15,-433.7 -7834.33,-451.91 -7835.18,-470.38 -7835.68,-489.08 -7835.85,-508.04 -7835.68,-527.13 -7835.19,-545.97 -7834.38,-564.57 -7833.23,-582.9 -7831.75,-601 -7829.94,-618.83 -7827.81,-636.41 -7825.36,-653.72 -7822.59,-670.8 -7819.48,-687.62 -7816.04,-704.17 -7812.28,-720.47 -7808.2,-736.52 -7803.79,-752.31 -7799.05,-767.84 -7793.99,-783.11 -7788.61,-798.12 -7782.9,-812.87 -7776.88,-827.36 -7770.53,-841.59 -7763.85,-855.56 -7756.86,-869.27 -7749.53,-882.71 -7741.88,-895.9 -7733.92,-908.82 -7725.64,-921.47 -7717.03,-933.86 -7708.1,-945.99 -7698.85,-957.84 -7689.29,-969.43 -7679.4,-980.75 -7669.18,-991.82 -7658.6,-1002.57 -7647.85,-1012.98 -7636.95,-1023.07 -7625.9,-1032.81 -7614.68,-1042.21 -7603.31,-1051.28 -7591.78,-1060.01 -7580.09,-1068.39 -7568.23,-1076.44 -7556.23,-1084.15 -7544.05,-1091.52 -7531.72,-1098.55 -7519.22,-1105.25 -7506.56,-1111.59 -7493.74,-1117.6 -7480.76,-1123.27 -7467.61,-1128.6 -7454.3,-1133.58 -7440.82,-1138.22 -7427.17,-1142.52 -7413.36,-1146.47 -7399.38,-1150.1 -7385.23,-1153.36 -7370.92,-1156.29 -7356.43,-1158.88 -7341.78,-1161.12 -7326.97,-1163.01 -7311.97,-1164.57 -7296.82,-1165.78 -7281.47,-1166.64 -7265.97,-1167.16 -7250.29,-1167.33 -7238.38,-1167.21 -7226.45,-1166.85 -7214.46,-1166.24 -7202.46,-1165.39 -7190.4,-1164.31 -7178.32,-1162.99 -7166.21,-1161.41 -7154.06,-1159.61 -7141.87,-1157.56 -7129.65,-1155.28 -7117.4,-1152.75 -7105.11,-1149.98 -7092.79,-1146.98 -7080.42,-1143.74 -7068.03,-1140.26 -7055.61,-1136.54 -7043.15,-1132.58 -7030.65,-1128.39 -7018.12,-1123.96 -7005.56,-1119.29 -6992.95,-1114.39 -6980.32,-1109.25 -6967.65,-1103.86 -6954.95,-1098.25 -6942.21,-1092.41 -6929.44,-1086.33 -6916.63,-1080 -6903.78,-1073.45 -6890.92,-1066.67 -6878,-1059.65 -6865.05,-1052.39 -6852.07,-1044.9 -6838.94,-1037 -6825.52,-1028.5 -6811.84,-1019.41 -6797.87,-1009.71 -6783.64,-999.42 -6769.12,-988.53 -6754.34,-977.05 -6739.28,-964.96 -6723.95,-952.28 -6708.36,-938.99 -6692.49,-925.12 -6676.34,-910.64 -6659.92,-895.56 -6643.25,-879.88 -6626.29,-863.6 -6609.07,-846.71 -6591.59,-829.23 -6573.83,-811.16 -6555.8,-792.47 -6537.52,-773.19 -6518.97,-753.3 -6500.14,-732.81 -6481.07,-711.72 -6461.72,-690.03 -6442.11,-667.73 -6422.23,-644.84 -6402.09,-621.33 -6381.7,-597.23 -6361.03,-572.52 -6340.12,-547.2 -6318.94,-521.29 "/>
  </g>
  <path class="fil105" d="M-5999.56 -909.21c302.37,-379.07 538.35,-629.79 709.44,-750.74 230.08,-166.67 473.46,-250.74 730.09,-250.74 303.84,0 587.03,109.14 851.03,327.44 264.01,219.76 395.28,572.26 395.28,1057.51 0,340.71 -48.66,607.68 -147.48,800.9 -97.35,194.69 -250.74,351.03 -458.72,469.02 -206.49,117.99 -420.34,177 -640.11,177 -256.63,0 -500.01,-82.6 -730.09,-246.32 -171.09,-123.89 -407.07,-376.11 -709.44,-755.17 -392.33,491.16 -809.73,735.99 -1250.73,735.99 -290.57,0 -541.31,-110.61 -749.27,-330.38 -209.44,-219.76 -314.16,-492.63 -314.16,-820.06 0,-324.48 104.72,-597.35 314.16,-818.58 207.96,-221.24 458.7,-331.86 749.27,-331.86 441,0 858.4,244.83 1250.73,735.99zm296.46 410.02c252.21,389.39 482.31,656.35 690.27,799.42 132.75,95.87 281.71,143.07 445.42,143.07 219.77,0 404.13,-81.12 553.1,-241.89 148.98,-162.25 222.72,-389.39 222.72,-682.9 0,-305.31 -75.23,-538.35 -227.15,-700.59 -151.9,-160.77 -340.69,-241.89 -566.37,-241.89 -141.58,0 -274.33,39.83 -398.22,120.95 -166.68,112.09 -407.08,380.53 -719.77,803.83zm-594.39 4.43c-230.09,-286.14 -415.94,-469.02 -554.58,-550.14 -138.65,-81.12 -271.38,-122.43 -398.22,-122.43 -168.15,0 -306.8,58.99 -418.89,175.51 -110.61,116.52 -166.67,278.78 -166.67,483.78 0,203.55 57.53,364.31 174.05,486.74 115.04,120.94 255.16,181.41 420.36,181.41 290.55,0 606.19,-218.29 943.95,-654.87z"/>
  <path id="git.svg" class="fil106" d="M978.95 457.72l-431.27 -431.27c-13.23,-13.23 -31.75,-21.17 -50.27,-21.17 0,0 0,0 0,0 -18.52,0 -37.04,7.94 -50.27,21.17l-92.6 92.6 108.48 108.48c10.58,-5.29 21.17,-7.94 34.4,-7.94 44.98,0 79.38,34.4 79.38,79.38 0,13.23 -2.65,23.81 -7.94,34.4l105.83 105.83c10.58,-5.29 21.17,-7.94 34.4,-7.94 44.98,0 79.38,34.4 79.38,79.38 0,44.98 -34.4,79.38 -79.37,79.38 -44.98,0 -79.37,-34.4 -79.37,-79.37 0,-13.23 2.65,-23.81 7.94,-34.4l-105.83 -105.83c-2.65,0 -5.29,2.65 -7.94,2.65l0 275.17c31.75,10.58 52.92,39.69 52.92,74.08 0,44.98 -34.4,79.38 -79.37,79.38 -44.97,0 -79.37,-34.4 -79.37,-79.37 0,-34.4 21.17,-63.5 52.92,-74.08l-0.05 -277.84c-31.75,-10.58 -52.92,-39.69 -52.92,-74.08 0,-13.23 2.65,-23.81 7.94,-34.4l-108.48 -108.48 -301.62 304.27c-13.23,13.23 -21.17,31.75 -21.17,50.27 0,18.52 7.94,37.04 21.17,50.27l431.27 431.27c0,0 0,0 0,0 13.23,13.23 31.75,21.17 50.27,21.17 18.52,0 37.04,-7.94 50.27,-21.17l431.27 -431.27c13.23,-13.23 21.17,-31.75 21.17,-50.27 0,-18.52 -7.94,-37.04 -21.17,-50.27z"/>
 </g>
</svg>
