<?xml version="1.0" encoding="UTF-8"?>
<!DOCTYPE svg PUBLIC "-//W3C//DTD SVG 1.1//EN" "http://www.w3.org/Graphics/SVG/1.1/DTD/svg11.dtd">
<!-- Creator: CorelDRAW 2021 (64-Bit) -->
<svg xmlns="http://www.w3.org/2000/svg" xml:space="preserve" width="75.5mm" height="75.5mm" version="1.1" style="shape-rendering:geometricPrecision; text-rendering:geometricPrecision; image-rendering:optimizeQuality; fill-rule:evenodd; clip-rule:evenodd"
viewBox="0 0 7550 7550"
 xmlns:xlink="http://www.w3.org/1999/xlink"
 xmlns:xodm="http://www.corel.com/coreldraw/odm/2003">
 <defs>
  <style type="text/css">
   <![CDATA[
    .fil4 {fill:#0593A1;fill-rule:nonzero}
    .fil0 {fill:#575756;fill-rule:nonzero}
    .fil3 {fill:#706F6F;fill-rule:nonzero}
    .fil2 {fill:#DADADA;fill-rule:nonzero}
    .fil1 {fill:#E6E6E6;fill-rule:nonzero}
   ]]>
  </style>
 </defs>
 <g id="Layer_x0020_1">
  <metadata id="CorelCorpID_0Corel-Layer"/>
  <g id="_3137820574256">
   <polygon class="fil0" points="3890.52,2853.76 3573.54,2536.87 3654.52,2455.98 3971.41,2772.87 "/>
   <polygon class="fil0" points="4688.85,3652.18 5005.74,3969.07 5086.72,3888.18 4769.74,3571.2 "/>
   <polygon class="fil0" points="2798.08,3946.18 2481.21,3629.2 2562.08,3548.33 2879.06,3865.23 "/>
   <polygon class="fil0" points="3596.52,4744.51 3913.39,5061.52 3994.37,4980.54 3677.39,4663.64 "/>
   <polygon class="fil1" points="2366.81,3743.6 60.7,1437.52 1463.21,35.01 3769.32,2341.09 "/>
   <polygon class="fil1" points="3799.01,5175.89 6105.1,7482 7507.69,6079.41 5201.61,3773.3 "/>
   <polygon class="fil0" points="1117.84,6424.89 1494.52,5367.66 1636.32,5418.23 1366.07,6176.51 2124.38,5906.41 2174.96,6048.09 "/>
   <polygon class="fil2" points="1972.67,5397.67 2368.32,5002.01 2540.6,5174.41 2145.03,5570.06 "/>
   <polygon class="fil3" points="1960.32,5069.74 2198.14,4831.92 2710.78,5344.48 2472.96,5582.29 "/>
   <polygon class="fil0" points="2532.27,4335.03 4089.71,2777.59 4765.11,3452.9 3207.7,5010.35 "/>
   <polygon class="fil0" points="2001.56,4865.65 3558.98,3308.21 4234.4,3983.61 2676.96,5541.05 "/>
   <path class="fil0" d="M4530.02 2671.52c-92.33,-92.3 -92.33,-241.91 0,-334.24l3.3 -3.3c92.33,-92.33 241.94,-92.33 334.24,0l341.19 341.16c92.3,92.21 92.3,241.94 0,334.15l-3.42 3.42c-92.21,92.3 -241.94,92.3 -334.15,0l-341.16 -341.19z"/>
   <polygon class="fil1" points="2052.22,4603.14 2974.09,3681.28 3861.33,4568.61 2939.56,5490.36 "/>
   <polygon class="fil1" points="3522.85,3132.51 4444.63,2210.76 5331.97,3097.98 4410.22,4019.85 "/>
   <path class="fil1" d="M2110.02 5432.57c-412.69,-412.61 -959.07,-609.07 -1499.73,-591.21l2091.05 2090.96c17.78,-540.66 -178.6,-1087.03 -591.32,-1499.75z"/>
   <polygon class="fil3" points="1024.41,6289.21 1230.42,6083.1 1459.51,6312.19 1253.49,6518.18 "/>
   <polygon class="fil4" points="1456.3,184.03 2141.65,869.47 1762.12,1248.96 1076.8,563.61 "/>
   <polygon class="fil4" points="2195.61,923.34 2880.96,1608.69 2501.46,1988.28 1816.02,1302.95 "/>
   <polygon class="fil4" points="2934.95,1662.68 3620.3,2348.03 3240.69,2727.62 2555.37,2042.18 "/>
   <polygon class="fil4" points="1022.81,617.6 1708.17,1302.95 1328.64,1682.45 643.31,997.09 "/>
   <polygon class="fil4" points="1762.12,1356.82 2447.48,2042.18 2067.89,2421.76 1382.54,1736.43 "/>
   <polygon class="fil4" points="2501.46,2096.16 3186.82,2781.52 2807.21,3161.1 2121.88,2475.75 "/>
   <polygon class="fil4" points="589.33,1051.08 1274.68,1736.43 895.16,2115.93 209.72,1430.58 "/>
   <polygon class="fil4" points="1328.64,1790.31 2013.99,2475.75 1634.41,2855.24 949.06,2169.92 "/>
   <polygon class="fil4" points="2067.89,2529.65 2753.33,3215 2373.72,3594.58 1688.4,2909.23 "/>
   <polygon class="fil4" points="7358.59,6086.32 6673.23,5400.96 6293.65,5780.58 6979.09,6465.93 "/>
   <polygon class="fil4" points="6619.28,5347.09 5933.92,4661.74 5554.42,5041.24 6239.75,5726.59 "/>
   <polygon class="fil4" points="5880.02,4607.75 5194.58,3922.4 4815.08,4301.9 5500.44,4987.25 "/>
   <polygon class="fil4" points="6925.1,6519.89 6239.75,5834.45 5860.17,6214.06 6545.61,6899.41 "/>
   <polygon class="fil4" points="6185.79,5780.58 5500.44,5095.22 5120.94,5474.72 5806.27,6160.07 "/>
   <polygon class="fil4" points="5446.54,5041.24 4761.1,4355.88 4381.6,4735.38 5066.95,5420.85 "/>
   <polygon class="fil4" points="6491.62,6953.37 5806.27,6267.93 5426.68,6647.54 6112.04,7332.9 "/>
   <polygon class="fil4" points="5752.31,6214.06 5066.95,5528.71 4687.46,5908.2 5372.78,6593.56 "/>
   <polygon class="fil4" points="5012.97,5474.72 4327.61,4789.37 3948.12,5168.86 4633.47,5854.33 "/>
  </g>
 </g>
</svg>
