<?xml version="1.0" encoding="UTF-8"?>
<!DOCTYPE svg PUBLIC "-//W3C//DTD SVG 1.1//EN" "http://www.w3.org/Graphics/SVG/1.1/DTD/svg11.dtd">
<!-- Creator: CorelDRAW 2021 (64-Bit) -->
<svg xmlns="http://www.w3.org/2000/svg" xml:space="preserve" width="12.7mm" height="7.8mm" version="1.1" style="shape-rendering:geometricPrecision; text-rendering:geometricPrecision; image-rendering:optimizeQuality; fill-rule:evenodd; clip-rule:evenodd"
viewBox="0 0 1270 780"
 xmlns:xlink="http://www.w3.org/1999/xlink"
 xmlns:xodm="http://www.corel.com/coreldraw/odm/2003">
 <defs>
  <style type="text/css">
   <![CDATA[
    .fil1 {fill:none}
    .fil10 {fill:#000001;fill-rule:nonzero}
    .fil13 {fill:#00ACC1;fill-rule:nonzero}
    .fil11 {fill:#7C4DFF;fill-rule:nonzero}
    .fil9 {fill:#F7DF1E;fill-rule:nonzero}
    .fil8 {fill:#FFFF30;fill-rule:nonzero}
    .fil12 {fill:white;fill-rule:nonzero}
    .fil3 {fill:url(#id0)}
    .fil5 {fill:url(#id1)}
    .fil0 {fill:url(#id2)}
    .fil7 {fill:url(#id3)}
    .fil2 {fill:url(#id4)}
    .fil6 {fill:url(#id5)}
    .fil4 {fill:url(#id6)}
   ]]>
  </style>
  <linearGradient id="id0" gradientUnits="objectBoundingBox" x1="0%" y1="50%" x2="100%" y2="50%">
   <stop offset="0" style="stop-opacity:1; stop-color:#DBDB03"/>
   <stop offset="1" style="stop-opacity:1; stop-color:#94940F"/>
  </linearGradient>
  <linearGradient id="id1" gradientUnits="objectBoundingBox" xlink:href="#id0" x1="100%" y1="50%" x2="0%" y2="50%">
  </linearGradient>
  <linearGradient id="id2" gradientUnits="userSpaceOnUse" xlink:href="#id0" x1="7261.73" y1="-150.88" x2="7955.82" y2="577.6">
  </linearGradient>
  <linearGradient id="id3" gradientUnits="userSpaceOnUse" xlink:href="#id0" x1="11500.38" y1="-150.88" x2="10883.56" y2="577.6">
  </linearGradient>
  <linearGradient id="id4" gradientUnits="userSpaceOnUse" xlink:href="#id0" x1="7262.66" y1="1071.54" x2="7954.89" y2="457.73">
  </linearGradient>
  <linearGradient id="id5" gradientUnits="userSpaceOnUse" xlink:href="#id0" x1="11499.55" y1="1071.54" x2="10884.39" y2="457.73">
  </linearGradient>
  <linearGradient id="id6" gradientUnits="userSpaceOnUse" xlink:href="#id0" x1="9074.5" y1="-124.21" x2="10042.37" y2="843.67">
  </linearGradient>
 </defs>
 <g id="Layer_x0020_1">
  <metadata id="CorelCorpID_0Corel-Layer"/>
  <g id="_2281295094208">
   <polygon class="fil0" points="8190.62,-180.25 8524.32,116.27 7326.41,606.97 6693.23,433.13 "/>
   <polygon class="fil1" points="8190.62,-180.25 8524.32,116.27 7326.41,606.97 6693.23,433.13 "/>
   <polygon class="fil2" points="6693.23,433.13 7326.41,606.97 8524.32,1096.14 8190.62,1044.59 "/>
   <polygon class="fil1" points="6693.23,433.13 7326.41,606.97 8524.32,1096.14 8190.62,1044.59 "/>
   <polygon class="fil3" points="8190.62,1044.59 8524.32,1096.14 8524.32,1543.96 8190.62,1604.36 "/>
   <polygon class="fil1" points="8190.62,1044.59 8524.32,1096.14 8524.32,1543.96 8190.62,1604.36 "/>
   <polygon class="fil3" points="8190.62,-743.21 8524.32,-334.1 8524.32,116.27 8190.62,-180.25 "/>
   <polygon class="fil1" points="8190.62,-743.21 8524.32,-334.1 8524.32,116.27 8190.62,-180.25 "/>
   <polygon class="fil4" points="10067.14,-1210.42 10025.54,-707.87 9211.61,1804.37 9049.73,1929.88 "/>
   <polygon class="fil1" points="10067.14,-1210.42 10025.54,-707.87 9211.61,1804.37 9049.73,1929.88 "/>
   <polygon class="fil5" points="10508.18,1604.36 10378.37,1543.96 10378.37,1096.14 10508.18,1044.59 "/>
   <polygon class="fil1" points="10508.18,1604.36 10378.37,1543.96 10378.37,1096.14 10508.18,1044.59 "/>
   <polygon class="fil6" points="10508.18,1044.59 10378.37,1096.14 11576.28,606.97 12005.57,433.13 "/>
   <polygon class="fil1" points="10508.18,1044.59 10378.37,1096.14 11576.28,606.97 12005.57,433.13 "/>
   <polygon class="fil7" points="12005.57,433.13 11576.28,606.97 10378.37,116.27 10508.18,-180.25 "/>
   <polygon class="fil1" points="12005.57,433.13 11576.28,606.97 10378.37,116.27 10508.18,-180.25 "/>
   <polygon class="fil5" points="10508.18,-180.25 10378.37,116.27 10378.37,-334.1 10508.18,-743.21 "/>
   <polygon class="fil1" points="10508.18,-180.25 10378.37,116.27 10378.37,-334.1 10508.18,-743.21 "/>
  </g>
  <path class="fil8" d="M8190.62 -180.25l-1497.39 613.38 1497.39 611.46 0 559.77 -2202.04 -911.45 0 -525.3 2202.04 -910.82 0 562.96zm859.11 2110.13l-411.05 0 1018.69 -3140.3 409.77 0 -1017.41 3140.3zm3660.49 -1762.27l0 525.3 -2202.04 911.45 0 -559.77 1497.39 -611.46 -1497.39 -613.38 0 -562.96 2202.04 910.82z"/>
  <g id="javascript.svg">
   <polygon class="fil9" points="-2115.9,910.19 -2115.9,-42.31 -1163.4,-42.31 -1163.4,910.19 "/>
   <path class="fil10" d="M-1493.12 670.66c18.31,29.74 38.21,58.23 80.35,58.23 35.4,0 53.98,-17.59 53.98,-41.94 0,-29.13 -19.21,-39.48 -58.16,-56.44l-21.35 -9.1c-61.62,-26.14 -102.61,-58.9 -102.61,-128.08 0,-63.76 48.82,-112.29 125.1,-112.29 54.32,0 93.35,18.81 121.5,68.08l-66.52 42.52c-14.63,-26.14 -30.45,-36.43 -54.98,-36.43 -25.03,0 -40.88,15.8 -40.88,36.43 0,25.51 15.88,35.82 52.52,51.62l21.35 9.1c72.63,30.94 113.59,62.53 113.59,133.54 0,76.52 -60.43,118.46 -141.56,118.46 -79.35,0 -124.41,-39.82 -149.49,-89.11l67.16 -44.59zm-306.55 2.17c13.39,23.97 33.73,42.41 63,42.41 27.99,0 44.11,-11.06 44.11,-54.05l-0.01 -280.17 88.19 0 0 293.71c0,89.09 -51.67,129.62 -127.13,129.62 -68.18,0 -117.4,-46.2 -137.45,-89.11l69.29 -42.41z"/>
  </g>
  <g id="bootstrap.svg">
   <path class="fil11" d="M-2039.71 -957.81c-2.12,-61.14 45.53,-117.55 109.96,-117.55l660.03 0c64.43,0 112.08,56.41 109.93,117.55 -2.04,58.76 0.61,134.86 19.76,196.93 19.21,62.26 51.62,101.6 104.7,106.65l0 57.34c-53.08,5.05 -85.46,44.4 -104.7,106.65 -19.16,62.04 -21.8,138.17 -19.76,196.93 2.12,61.12 -45.53,117.53 -109.93,117.53l-660.03 0c-64.4,0 -112.08,-56.41 -109.93,-117.55 2.04,-58.76 -0.61,-134.86 -19.76,-196.93 -19.21,-62.26 -51.7,-101.6 -104.77,-106.65l0 -57.34c53.08,-5.05 85.54,-44.4 104.78,-106.65 19.11,-62.05 21.78,-138.14 19.72,-196.91z"/>
   <path class="fil12" d="M-1518.48 -639.75l0 -0.74c49.03,-8.47 87.29,-54.42 87.29,-105.04 0,-35.77 -13.76,-66.09 -39.79,-87.63 -25.96,-21.48 -62.36,-32.83 -105.33,-32.83l-196.78 -0.01 0 480.67 197.77 0c51.38,0 94.06,-12.54 123.38,-36.3 29.34,-23.79 44.87,-58.39 44.87,-100.09 -0.02,-63 -44.74,-110.31 -111.41,-118.03zm-92.16 -22.65l-84.16 0 0 -140.71 100.12 0c54.93,0 85.17,24.1 85.17,67.87 0.02,46.96 -35.91,72.84 -101.13,72.84zm-84.16 58.9l99.46 0c71.86,0 108.27,25.96 108.27,77.15 0,51.12 -35.9,78.13 -103.85,78.13l-103.88 0 0 -155.28z"/>
  </g>
  <path id="tailwind.svg" class="fil13" d="M635 19.18c-169.33,0 -275.17,84.64 -317.5,253.92 63.5,-84.64 137.58,-116.36 222.25,-95.22 48.31,12.07 82.84,47.12 121.07,85.91 62.23,63.15 134.28,136.28 291.68,136.28 169.33,0 275.17,-84.64 317.5,-253.95 -63.5,84.64 -137.58,116.39 -222.25,95.25 -48.29,-12.07 -82.81,-47.12 -121.05,-85.91 -62.25,-63.18 -134.33,-136.28 -291.7,-136.28l0 0zm-317.5 380.89c-169.33,0 -275.17,84.64 -317.5,253.95 63.5,-84.64 137.58,-116.39 222.25,-95.22 48.29,12.09 82.81,47.12 121.05,85.88 62.26,63.18 134.33,136.31 291.7,136.31 169.33,0 275.17,-84.64 317.5,-253.95 -63.5,84.64 -137.58,116.39 -222.25,95.22 -48.31,-12.07 -82.84,-47.12 -121.07,-85.88 -62.23,-63.18 -134.28,-136.31 -291.68,-136.31l0 0z"/>
 </g>
</svg>
